{
.formatVersion = 3;
familyName = "ዋልድባ - ውቂያኖስ";
customParameters = (
{
name = glyphOrder;
value = (
.notdef,
NULL,
CR,
space,
FL20,
exclam,
quotedbl,
numbersign,
dollar,
percent,
ampersand,
quotesingle,
parenleft,
parenright,
asterisk,
plus,
comma,
hyphen,
period,
slash,
zero,
one,
two,
three,
four,
five,
six,
seven,
eight,
nine,
colon,
semicolon,
less,
equal,
greater,
question,
at,
A,
B,
C,
D,
E,
F,
G,
H,
I,
J,
K,
L,
M,
N,
O,
P,
Q,
R,
S,
T,
U,
V,
W,
X,
Y,
Z,
bracketleft,
backslash,
bracketright,
asciicircum,
underscore,
grave,
a,
b,
c,
d,
e,
f,
g,
h,
i,
j,
k,
l,
m,
n,
o,
p,
q,
r,
s,
t,
u,
v,
w,
x,
y,
z,
braceleft,
bar,
braceright,
asciitilde,
exclamdown,
cent,
sterling,
currency,
yen,
brokenbar,
section,
dieresis,
copyright,
ordfeminine,
guillemotleft,
logicalnot,
uni00AD,
registered,
overscore,
degree,
plusminus,
twosuperior,
threesuperior,
acute,
mu,
paragraph,
middot,
cedilla,
onesuperior,
ordmasculine,
guillemotright,
onequarter,
onehalf,
threequarters,
questiondown,
Agrave,
Aacute,
Acircumflex,
Atilde,
Adieresis,
Aring,
AE,
Ccedilla,
Egrave,
Eacute,
Ecircumflex,
Edieresis,
Igrave,
Iacute,
Icircumflex,
Idieresis,
Eth,
Ntilde,
Ograve,
Oacute,
Ocircumflex,
Otilde,
Odieresis,
multiply,
Oslash,
Ugrave,
Uacute,
Ucircumflex,
Udieresis,
Yacute,
Thorn,
germandbls,
agrave,
aacute,
acircumflex,
atilde,
adieresis,
aring,
ae,
ccedilla,
egrave,
eacute,
ecircumflex,
edieresis,
igrave,
iacute,
icircumflex,
idieresis,
eth,
ntilde,
ograve,
oacute,
ocircumflex,
otilde,
odieresis,
divide,
oslash,
ugrave,
uacute,
ucircumflex,
udieresis,
yacute,
thorn,
ydieresis,
OE,
oe,
Scaron,
scaron,
Ydieresis,
Zcaron,
zcaron,
florin,
circumflex,
tilde,
uni1200,
uni1201,
uni1202,
uni1203,
uni1204,
uni1205,
uni1206,
uni1208,
uni1209,
uni120A,
uni120B,
uni120C,
uni120D,
uni120E,
uni120F,
uni1210,
uni1211,
uni1212,
uni1213,
uni1214,
uni1215,
uni1216,
uni1217,
uni1218,
uni1219,
uni121A,
uni121B,
uni121C,
uni121D,
uni121E,
uni121F,
uni1220,
uni1221,
uni1222,
uni1223,
uni1224,
uni1225,
uni1226,

glyphs = (
{
glyphname = exclam;
layers = (
{
layerId = "0FD74DFA-4A91-4E89-B38F-D966F2F9984B";
shapes = (
{
closed = 1;
nodes = (
(744,444,l),
(787,1314,l),
(596,1314,l),
(638,444,l)
);
},
{
closed = 1;
nodes = (
(849,161,o),
(760,244,o),
(691,244,q),
(624,244,o),
(532,163,o),
(532,104,q),
(532,44,o),
(624,-39,o),
(691,-39,q),
(757,-39,o),
(849,41,o),
(849,101,q)
);
}
);
width = 1381;
}
);
unicode = 33;
},
{
glyphname = quotedbl;
layers = (
{
layerId = "0FD74DFA-4A91-4E89-B38F-D966F2F9984B";
shapes = (
{
closed = 1;
nodes = (
(557,649,l),
(580,1296,l),
(361,1296,l),
(387,649,l)
);
},
{
closed = 1;
nodes = (
(994,649,l),
(1020,1296,l),
(801,1296,l),
(824,649,l)
);
}
);
width = 1381;
}
);
unicode = 34;
},
{
glyphname = numbersign;
layers = (
{
layerId = "0FD74DFA-4A91-4E89-B38F-D966F2F9984B";
shapes = (
{
closed = 1;
nodes = (
(1202,361,l),
(1202,511,l),
(955,511,l),
(978,895,l),
(1202,895,l),
(1202,1045,l),
(985,1045,l),
(1013,1517,l),
(905,1517,l),
(877,1045,l),
(543,1045,l),
(571,1517,l),
(463,1517,l),
(435,1045,l),
(180,1045,l),
(180,895,l),
(428,895,l),
(405,511,l),
(180,511,l),
(180,361,l),
(396,361,l),
(371,-131,l),
(479,-131,l),
(504,361,l),
(840,361,l),
(813,-131,l),
(921,-131,l),
(948,361,l)
);
},
{
closed = 1;
nodes = (
(847,511,l),
(513,511,l),
(536,895,l),
(870,895,l)
);
}
);
width = 1381;
}
);
unicode = 35;
},
{
glyphname = dollar;
layers = (
{
layerId = "0FD74DFA-4A91-4E89-B38F-D966F2F9984B";
shapes = (
{
closed = 1;
nodes = (
(1130,440,o),
(1064,550,o),
(953,622,o),
(813,668,o),
(741,688,q),
(741,1158,l),
(773,1151,o),
(854,1123,o),
(930,1050,o),
(994,914,o),
(1011,801,q),
(1116,813,l),
(1110,870,o),
(1091,1038,o),
(1091,1149,q),
(1091,1183,o),
(1093,1236,o),
(1096,1259,q),
(988,1259,l),
(983,1225,o),
(974,1202,o),
(955,1202,q),
(946,1202,o),
(930,1209,o),
(900,1222,q),
(819,1259,o),
(741,1271,q),
(741,1510,l),
(631,1510,l),
(631,1271,l),
(465,1257,o),
(265,1082,o),
(265,937,q),
(265,847,o),
(336,732,o),
(444,658,o),
(573,617,o),
(631,601,q),
(631,143,l),
(541,154,o),
(430,228,o),
(368,325,o),
(341,428,o),
(334,467,q),
(226,467,l),
(242,352,o),
(256,147,o),
(249,21,q),
(357,21,l),
(359,60,o),
(366,87,o),
(389,87,q),
(394,87,o),
(414,85,o),
(440,76,q),
(483,62,o),
(541,46,o),
(582,35,o),
(612,32,o),
(631,32,q),
(631,-313,l),
(741,-313,l),
(741,32,l),
(822,39,o),
(965,87,o),
(1070,170,o),
(1130,283,o),
(1130,357,q)
);
},
{
closed = 1;
nodes = (
(631,721,l),
(585,734,o),
(497,767,o),
(428,815,o),
(384,886,o),
(384,941,q),
(384,1008,o),
(442,1089,o),
(520,1137,o),
(603,1156,o),
(631,1160,q)
);
},
{
closed = 1;
nodes = (
(1011,295,o),
(953,214,o),
(870,166,o),
(778,145,o),
(741,143,q),
(741,573,l),
(790,559,o),
(886,527,o),
(962,479,o),
(1011,407,o),
(1011,355,q)
);
}
);
width = 1381;
}
);
unicode = 36;
},
{
glyphname = percent;
layers = (
{
layerId = "0FD74DFA-4A91-4E89-B38F-D966F2F9984B";
shapes = (
{
closed = 1;
nodes = (
(1250,327,o),
(1209,437,o),
(1126,527,o),
(1004,582,o),
(923,582,q),
(843,582,o),
(721,525,o),
(640,435,o),
(599,325,o),
(599,274,q),
(599,221,o),
(640,113,o),
(723,23,o),
(843,-32,o),
(923,-32,q),
(1001,-32,o),
(1123,23,o),
(1206,110,o),
(1250,219,o),
(1250,274,q)
);
},
{
closed = 1;
nodes = (
(1126,239,o),
(1100,168,o),
(1047,110,o),
(971,76,o),
(923,76,q),
(826,76,o),
(723,198,o),
(723,276,q),
(723,313,o),
(750,384,o),
(801,440,o),
(875,474,o),
(923,474,q),
(974,474,o),
(1050,440,o),
(1100,382,o),
(1126,311,o),
(1126,276,q)
);
},
{
closed = 1;
nodes = (
(755,1160,o),
(711,1268,o),
(628,1358,o),
(506,1413,o),
(428,1413,q),
(348,1413,o),
(228,1358,o),
(145,1268,o),
(104,1158,o),
(104,1105,q),
(104,1050,o),
(147,939,o),
(230,854,o),
(352,799,o),
(428,799,q),
(506,799,o),
(628,852,o),
(711,939,o),
(755,1050,o),
(755,1105,q)
);
},
{
closed = 1;
nodes = (
(631,1027,o),
(527,907,o),
(430,907,q),
(382,907,o),
(306,941,o),
(256,997,o),
(228,1068,o),
(228,1105,q),
(228,1142,o),
(253,1213,o),
(304,1271,o),
(380,1305,o),
(430,1305,q),
(527,1305,o),
(631,1181,o),
(631,1105,q)
);
},
{
closed = 1;
nodes = (
(1181,859,l),
(1135,967,l),
(200,552,l),
(246,444,l)
);
}
);
width = 1381;
}
);
unicode = 37;
},
{
glyphname = ampersand;
layers = (
{
layerId = "0FD74DFA-4A91-4E89-B38F-D966F2F9984B";
shapes = (
{
closed = 1;
nodes = (
(1218,536,l),
(1080,536,l),
(1038,414,o),
(978,288,o),
(960,256,q),
(1061,108,l),
(1234,108,l),
(1234,0,l),
(971,0,l),
(877,138,l),
(856,117,o),
(801,62,o),
(723,14,o),
(622,-18,o),
(559,-18,q),
(479,-18,o),
(355,39,o),
(269,136,o),
(226,256,o),
(226,318,q),
(226,435,o),
(368,642,o),
(500,691,q),
(500,697,o),
(490,707,q),
(451,764,o),
(403,838,o),
(375,898,o),
(366,948,o),
(366,981,q),
(366,1093,o),
(525,1243,o),
(663,1243,q),
(714,1243,o),
(801,1222,o),
(845,1204,q),
(893,1186,o),
(925,1179,o),
(939,1179,q),
(967,1179,o),
(1011,1192,o),
(1024,1197,q),
(918,1031,l),
(875,1064,o),
(750,1133,o),
(663,1133,q),
(615,1133,o),
(552,1105,o),
(516,1061,o),
(502,1011,o),
(502,990,q),
(502,948,o),
(548,868,o),
(592,803,q),
(891,359,l),
(912,403,o),
(937,458,o),
(958,513,o),
(981,585,o),
(999,645,q),
(1218,645,l)
);
},
{
closed = 1;
nodes = (
(562,608,l),
(529,594,o),
(465,548,o),
(412,483,o),
(378,398,o),
(378,345,q),
(378,304,o),
(401,216,o),
(453,145,o),
(532,101,o),
(587,101,q),
(631,101,o),
(704,129,o),
(760,170,o),
(801,214,o),
(815,230,q)
);
}
);
width = 1381;
}
);
unicode = 38;
},
{
glyphname = quotesingle;
layers = (
{
layerId = "0FD74DFA-4A91-4E89-B38F-D966F2F9984B";
shapes = (
{
closed = 1;
nodes = (
(776,647,l),
(603,647,l),
(559,1296,l),
(822,1296,l)
);
}
);
width = 1381;
}
);
unicode = 39;
},
{
glyphname = parenleft;
layers = (
{
layerId = "0FD74DFA-4A91-4E89-B38F-D966F2F9984B";
shapes = (
{
closed = 1;
nodes = (
(1066,1494,l),
(1029,1423,o),
(937,1236,o),
(854,1015,o),
(799,767,o),
(799,635,q),
(799,504,o),
(854,256,o),
(937,35,o),
(1029,-152,o),
(1066,-221,q),
(948,-221,l),
(884,-124,o),
(778,97,o),
(702,322,o),
(661,541,o),
(661,635,q),
(661,727,o),
(700,946,o),
(776,1172,o),
(882,1395,o),
(948,1494,q)
);
}
);
width = 1381;
}
);
unicode = 40;
},
{
glyphname = parenright;
layers = (
{
layerId = "0FD74DFA-4A91-4E89-B38F-D966F2F9984B";
shapes = (
{
closed = 1;
nodes = (
(315,-221,l),
(350,-159,o),
(442,25,o),
(527,249,o),
(585,502,o),
(585,635,q),
(585,769,o),
(527,1020,o),
(442,1241,o),
(350,1427,o),
(315,1494,q),
(435,1494,l),
(506,1383,o),
(615,1156,o),
(686,932,o),
(723,725,o),
(723,635,q),
(723,541,o),
(684,327,o),
(610,104,o),
(502,-120,o),
(435,-221,q)
);
}
);
width = 1381;
}
);
unicode = 41;
},
{
glyphname = asterisk;
layers = (
{
layerId = "0FD74DFA-4A91-4E89-B38F-D966F2F9984B";
shapes = (
{
closed = 1;
nodes = (
(755,958,l),
(1077,1075,l),
(1126,928,l),
(794,836,l),
(1008,569,l),
(882,474,l),
(691,762,l),
(500,474,l),
(373,569,l),
(587,836,l),
(256,928,l),
(304,1075,l),
(626,958,l),
(612,1296,l),
(769,1296,l)
);
}
);
width = 1381;
}
);
unicode = 42;
},
{
glyphname = plus;
layers = (
{
layerId = "0FD74DFA-4A91-4E89-B38F-D966F2F9984B";
shapes = (
{
closed = 1;
nodes = (
(748,755,l),
(1229,755,l),
(1229,640,l),
(748,640,l),
(748,168,l),
(633,168,l),
(633,640,l),
(152,640,l),
(152,755,l),
(633,755,l),
(633,1227,l),
(748,1227,l)
);
}
);
width = 1381;
}
);
unicode = 43;
},
{
glyphname = comma;
layers = (
{
layerId = "0FD74DFA-4A91-4E89-B38F-D966F2F9984B";
shapes = (
{
closed = 1;
nodes = (
(571,-251,l),
(407,-251,l),
(582,306,l),
(822,306,l)
);
}
);
width = 1381;
}
);
unicode = 44;
},
{
glyphname = hyphen;
layers = (
{
layerId = "0FD74DFA-4A91-4E89-B38F-D966F2F9984B";
shapes = (
{
closed = 1;
nodes = (
(447,730,l),
(935,730,l),
(935,603,l),
(447,603,l)
);
}
);
width = 1381;
}
);
unicode = 45;
},
{
glyphname = period;
layers = (
{
layerId = "0FD74DFA-4A91-4E89-B38F-D966F2F9984B";
shapes = (
{
closed = 1;
nodes = (
(725,274,o),
(787,251,o),
(838,209,o),
(868,152,o),
(868,117,q),
(868,81,o),
(836,23,o),
(785,-18,o),
(721,-39,o),
(691,-39,q),
(661,-39,o),
(599,-18,o),
(546,21,o),
(513,78,o),
(513,117,q),
(513,154,o),
(546,212,o),
(596,253,o),
(658,274,o),
(691,274,q)
);
}
);
width = 1381;
}
);
unicode = 46;
},
{
glyphname = slash;
layers = (
{
layerId = "0FD74DFA-4A91-4E89-B38F-D966F2F9984B";
shapes = (
{
closed = 1;
nodes = (
(308,-306,l),
(209,-260,l),
(1073,1616,l),
(1172,1575,l)
);
}
);
width = 1381;
}
);
unicode = 47;
},
{
glyphname = zero;
layers = (
{
layerId = "0FD74DFA-4A91-4E89-B38F-D966F2F9984B";
shapes = (
{
closed = 1;
nodes = (
(831,1430,o),
(1004,1284,o),
(1096,1066,o),
(1128,810,o),
(1128,697,q),
(1128,585,o),
(1096,329,o),
(1004,110,o),
(831,-32,o),
(691,-32,q),
(550,-32,o),
(378,113,o),
(285,329,o),
(253,587,o),
(253,697,q),
(253,810,o),
(285,1066,o),
(378,1284,o),
(550,1430,o),
(691,1430,q)
);
},
{
closed = 1;
nodes = (
(587,1326,o),
(463,1197,o),
(396,1008,o),
(375,790,o),
(375,700,q),
(375,608,o),
(396,389,o),
(463,198,o),
(587,71,o),
(688,71,q),
(792,71,o),
(916,200,o),
(985,389,o),
(1006,610,o),
(1006,700,q),
(1006,792,o),
(985,1011,o),
(918,1199,o),
(794,1326,o),
(691,1326,q)
);
}
);
width = 1381;
}
);
unicode = 48;
},
{
glyphname = one;
layers = (
{
layerId = "0FD74DFA-4A91-4E89-B38F-D966F2F9984B";
shapes = (
{
closed = 1;
nodes = (
(769,1430,l),
(769,108,l),
(1162,108,l),
(1162,0,l),
(253,0,l),
(253,108,l),
(654,108,l),
(654,1296,l),
(285,1126,l),
(239,1227,l),
(695,1430,l)
);
}
);
width = 1381;
}
);
unicode = 49;
},
{
glyphname = two;
layers = (
{
layerId = "0FD74DFA-4A91-4E89-B38F-D966F2F9984B";
shapes = (
{
closed = 1;
nodes = (
(1087,0,l),
(189,0,l),
(189,122,l),
(226,154,o),
(382,292,o),
(569,460,o),
(760,638,o),
(829,709,q),
(912,792,o),
(965,928,o),
(965,1008,q),
(965,1091,o),
(898,1206,o),
(801,1280,o),
(691,1314,o),
(647,1314,q),
(615,1314,o),
(513,1294,o),
(417,1238,o),
(350,1146,o),
(355,1075,q),
(235,1075,l),
(235,1225,l),
(299,1301,o),
(435,1386,o),
(552,1423,o),
(638,1430,o),
(651,1430,q),
(732,1430,o),
(889,1370,o),
(1013,1259,o),
(1089,1100,o),
(1089,1004,q),
(1089,930,o),
(1052,815,o),
(1011,748,q),
(983,704,o),
(854,564,o),
(674,394,o),
(458,205,o),
(343,113,q),
(343,108,l),
(978,108,l),
(978,336,l),
(1087,336,l)
);
}
);
width = 1381;
}
);
unicode = 50;
},
{
glyphname = three;
layers = (
{
layerId = "0FD74DFA-4A91-4E89-B38F-D966F2F9984B";
shapes = (
{
closed = 1;
nodes = (
(237,182,l),
(325,140,o),
(523,76,o),
(619,76,q),
(681,76,o),
(803,115,o),
(900,196,o),
(958,313,o),
(958,389,q),
(958,470,o),
(902,575,o),
(836,638,o),
(773,665,o),
(767,668,q),
(707,688,o),
(599,693,o),
(543,688,q),
(543,796,l),
(594,796,o),
(711,810,o),
(764,845,q),
(822,884,o),
(884,1004,o),
(884,1070,q),
(884,1188,o),
(727,1321,o),
(610,1321,q),
(520,1321,o),
(373,1245,o),
(320,1213,q),
(279,1188,l),
(221,1278,l),
(318,1340,o),
(502,1430,o),
(612,1430,q),
(686,1430,o),
(826,1381,o),
(937,1289,o),
(1004,1158,o),
(1004,1073,q),
(1004,997,o),
(960,886,o),
(900,810,o),
(840,769,o),
(826,760,q),
(863,746,o),
(948,686,o),
(1024,596,o),
(1075,472,o),
(1075,394,q),
(1075,297,o),
(1004,138,o),
(877,28,o),
(709,-32,o),
(612,-32,q),
(559,-32,o),
(470,-18,o),
(375,12,o),
(265,53,o),
(193,81,q)
);
}
);
width = 1381;
}
);
unicode = 51;
},
{
glyphname = four;
layers = (
{
layerId = "0FD74DFA-4A91-4E89-B38F-D966F2F9984B";
shapes = (
{
closed = 1;
nodes = (
(1105,447,l),
(1105,336,l),
(898,336,l),
(898,108,l),
(1105,108,l),
(1105,0,l),
(477,0,l),
(477,108,l),
(787,108,l),
(787,336,l),
(170,336,l),
(170,470,l),
(741,1430,l),
(898,1430,l),
(898,447,l)
);
},
{
closed = 1;
nodes = (
(787,1296,l),
(783,1296,l),
(283,447,l),
(787,447,l)
);
}
);
width = 1381;
}
);
unicode = 52;
},
{
glyphname = five;
layers = (
{
layerId = "0FD74DFA-4A91-4E89-B38F-D966F2F9984B";
shapes = (
{
closed = 1;
nodes = (
(1059,1284,l),
(394,1284,l),
(394,819,l),
(447,843,o),
(580,884,o),
(672,884,q),
(776,884,o),
(944,813,o),
(1061,691,o),
(1126,525,o),
(1126,433,q),
(1126,364,o),
(1080,200,o),
(967,62,o),
(780,-32,o),
(642,-32,q),
(520,-32,o),
(325,25,o),
(209,71,q),
(251,175,l),
(279,163,o),
(359,131,o),
(458,104,o),
(573,83,o),
(633,83,q),
(727,83,o),
(866,136,o),
(958,230,o),
(1001,355,o),
(1001,428,q),
(1001,497,o),
(955,624,o),
(866,721,o),
(737,776,o),
(654,776,q),
(566,776,o),
(419,718,o),
(348,665,q),
(290,697,l),
(290,1395,l),
(1059,1395,l)
);
}
);
width = 1381;
}
);
unicode = 53;
},
{
glyphname = six;
layers = (
{
layerId = "0FD74DFA-4A91-4E89-B38F-D966F2F9984B";
shapes = (
{
closed = 1;
nodes = (
(1119,1314,l),
(990,1321,o),
(741,1303,o),
(534,1183,o),
(389,921,o),
(364,684,q),
(368,679,l),
(382,695,o),
(435,755,o),
(518,810,o),
(628,852,o),
(702,852,q),
(792,852,o),
(941,778,o),
(1047,654,o),
(1105,493,o),
(1105,405,q),
(1105,318,o),
(1045,159,o),
(937,39,o),
(787,-32,o),
(697,-32,q),
(628,-32,o),
(465,28,o),
(327,173,o),
(235,414,o),
(235,599,q),
(235,654,o),
(258,870,o),
(343,1112,o),
(518,1331,o),
(670,1386,q),
(695,1395,o),
(767,1413,o),
(870,1427,o),
(1017,1434,o),
(1119,1430,q)
);
},
{
closed = 1;
nodes = (
(371,368,o),
(444,212,o),
(543,120,o),
(654,83,o),
(697,83,q),
(753,83,o),
(854,127,o),
(935,209,o),
(981,329,o),
(981,405,q),
(981,470,o),
(939,592,o),
(868,681,o),
(764,737,o),
(702,737,q),
(684,737,o),
(601,725,o),
(502,677,o),
(401,578,o),
(364,488,q)
);
}
);
width = 1381;
}
);
unicode = 54;
},
{
glyphname = seven;
layers = (
{
layerId = "0FD74DFA-4A91-4E89-B38F-D966F2F9984B";
shapes = (
{
closed = 1;
nodes = (
(1123,1287,l),
(677,0,l),
(543,0,l),
(1008,1287,l),
(331,1287,l),
(331,1075,l),
(219,1075,l),
(219,1395,l),
(1123,1395,l)
);
}
);
width = 1381;
}
);
unicode = 55;
},
{
glyphname = eight;
layers = (
{
layerId = "0FD74DFA-4A91-4E89-B38F-D966F2F9984B";
shapes = (
{
closed = 1;
nodes = (
(456,723,o),
(384,778,o),
(320,863,o),
(272,978,o),
(272,1052,q),
(272,1130,o),
(336,1266,o),
(449,1370,o),
(601,1430,o),
(691,1430,q),
(780,1430,o),
(932,1370,o),
(1045,1266,o),
(1110,1130,o),
(1110,1052,q),
(1110,960,o),
(1011,771,o),
(902,711,q),
(965,684,o),
(1052,601,o),
(1110,506,o),
(1135,407,o),
(1135,364,q),
(1135,299,o),
(1082,159,o),
(971,44,o),
(803,-32,o),
(691,-32,q),
(575,-32,o),
(410,44,o),
(299,159,o),
(246,299,o),
(246,364,q),
(246,472,o),
(375,665,o),
(479,711,q)
);
},
{
closed = 1;
nodes = (
(610,1321,o),
(497,1268,o),
(428,1186,o),
(396,1091,o),
(396,1050,q),
(396,997,o),
(437,895,o),
(513,815,o),
(624,764,o),
(691,764,q),
(746,764,o),
(852,803,o),
(935,879,o),
(985,983,o),
(985,1050,q),
(985,1119,o),
(932,1220,o),
(849,1287,o),
(744,1321,o),
(691,1321,q)
);
},
{
closed = 1;
nodes = (
(610,656,o),
(490,603,o),
(410,518,o),
(371,414,o),
(371,364,q),
(371,306,o),
(419,203,o),
(506,122,o),
(622,76,o),
(691,76,q),
(760,76,o),
(875,122,o),
(962,203,o),
(1011,306,o),
(1011,364,q),
(1011,414,o),
(969,520,o),
(889,603,o),
(769,656,o),
(691,656,q)
);
}
);
width = 1381;
}
);
unicode = 56;
},
{
glyphname = nine;
layers = (
{
layerId = "0FD74DFA-4A91-4E89-B38F-D966F2F9984B";
shapes = (
{
closed = 1;
nodes = (
(186,83,l),
(318,76,o),
(564,94,o),
(769,214,o),
(914,477,o),
(941,714,q),
(937,718,l),
(923,700,o),
(870,642,o),
(787,587,o),
(674,546,o),
(603,546,q),
(513,546,o),
(364,619,o),
(258,744,o),
(200,905,o),
(200,992,q),
(200,1080,o),
(260,1238,o),
(368,1358,o),
(518,1430,o),
(608,1430,q),
(677,1430,o),
(840,1370,o),
(978,1225,o),
(1070,981,o),
(1070,799,q),
(1070,744,o),
(1047,527,o),
(962,285,o),
(787,67,o),
(635,12,q),
(610,2,o),
(539,-18,o),
(435,-32,o),
(288,-37,o),
(186,-32,q)
);
},
{
closed = 1;
nodes = (
(935,1029,o),
(861,1186,o),
(762,1278,o),
(651,1314,o),
(608,1314,q),
(552,1314,o),
(451,1271,o),
(371,1188,o),
(325,1068,o),
(325,992,q),
(325,925,o),
(366,806,o),
(437,716,o),
(541,661,o),
(603,661,q),
(619,661,o),
(702,670,o),
(803,718,o),
(905,819,o),
(941,909,q)
);
}
);
width = 1381;
}
);
unicode = 57;
},
{
glyphname = colon;
layers = (
{
layerId = "0FD74DFA-4A91-4E89-B38F-D966F2F9984B";
shapes = (
{
closed = 1;
nodes = (
(721,898,o),
(785,877,o),
(836,836,o),
(868,778,o),
(868,741,q),
(868,704,o),
(836,647,o),
(785,605,o),
(721,585,o),
(691,585,q),
(661,585,o),
(599,605,o),
(546,645,o),
(513,702,o),
(513,741,q),
(513,778,o),
(546,836,o),
(596,877,o),
(658,898,o),
(691,898,q)
);
},
{
closed = 1;
nodes = (
(721,274,o),
(785,253,o),
(836,212,o),
(868,154,o),
(868,117,q),
(868,81,o),
(836,23,o),
(785,-18,o),
(721,-39,o),
(691,-39,q),
(661,-39,o),
(599,-18,o),
(546,21,o),
(513,78,o),
(513,117,q),
(513,154,o),
(546,212,o),
(596,253,o),
(658,274,o),
(691,274,q)
);
}
);
width = 1381;
}
);
unicode = 58;
},
{
glyphname = semicolon;
layers = (
{
layerId = "0FD74DFA-4A91-4E89-B38F-D966F2F9984B";
shapes = (
{
closed = 1;
nodes = (
(580,-249,l),
(417,-249,l),
(594,308,l),
(831,308,l)
);
},
{
closed = 1;
nodes = (
(721,898,o),
(785,877,o),
(836,836,o),
(868,778,o),
(868,741,q),
(868,704,o),
(836,647,o),
(785,605,o),
(721,585,o),
(691,585,q),
(661,585,o),
(599,605,o),
(546,645,o),
(513,702,o),
(513,741,q),
(513,778,o),
(546,836,o),
(596,877,o),
(658,898,o),
(691,898,q)
);
}
);
width = 1381;
}
);
unicode = 59;
},
{
glyphname = less;
layers = (
{
layerId = "0FD74DFA-4A91-4E89-B38F-D966F2F9984B";
shapes = (
{
closed = 1;
nodes = (
(1211,1225,l),
(1257,1121,l),
(380,709,l),
(1257,306,l),
(1211,205,l),
(124,709,l)
);
}
);
width = 1381;
}
);
unicode = 60;
},
{
glyphname = equal;
layers = (
{
layerId = "0FD74DFA-4A91-4E89-B38F-D966F2F9984B";
shapes = (
{
closed = 1;
nodes = (
(1234,849,l),
(147,849,l),
(147,965,l),
(1234,965,l)
);
},
{
closed = 1;
nodes = (
(1234,433,l),
(147,433,l),
(147,548,l),
(1234,548,l)
);
}
);
width = 1381;
}
);
unicode = 61;
},
{
glyphname = greater;
layers = (
{
layerId = "0FD74DFA-4A91-4E89-B38F-D966F2F9984B";
shapes = (
{
closed = 1;
nodes = (
(170,193,l),
(124,297,l),
(1001,709,l),
(124,1112,l),
(170,1213,l),
(1257,709,l)
);
}
);
width = 1381;
}
);
unicode = 62;
},
{
glyphname = question;
layers = (
{
layerId = "0FD74DFA-4A91-4E89-B38F-D966F2F9984B";
shapes = (
{
closed = 1;
nodes = (
(276,1236,l),
(336,1257,o),
(430,1287,o),
(516,1308,o),
(601,1317,o),
(649,1317,q),
(760,1317,o),
(925,1252,o),
(1036,1149,o),
(1091,1011,o),
(1091,939,q),
(1091,838,o),
(1004,702,o),
(877,615,o),
(732,564,o),
(674,548,q),
(674,410,l),
(562,410,l),
(562,633,l),
(566,635,o),
(596,642,o),
(608,645,q),
(665,658,o),
(794,697,o),
(900,764,o),
(971,868,o),
(971,946,q),
(971,981,o),
(944,1070,o),
(872,1151,o),
(748,1204,o),
(651,1204,q),
(566,1204,o),
(449,1172,o),
(391,1149,q),
(391,1001,l),
(276,1001,l)
);
},
{
closed = 1;
nodes = (
(679,244,o),
(771,163,o),
(771,104,q),
(771,41,o),
(677,-39,o),
(612,-39,q),
(548,-39,o),
(453,41,o),
(453,104,q),
(453,163,o),
(546,244,o),
(612,244,q)
);
}
);
width = 1381;
}
);
unicode = 63;
},
{
glyphname = at;
layers = (
{
layerId = "0FD74DFA-4A91-4E89-B38F-D966F2F9984B";
shapes = (
{
closed = 1;
nodes = (
(1227,131,l),
(1225,131,o),
(1215,124,o),
(1213,124,q),
(1096,58,o),
(815,-32,o),
(663,-32,q),
(511,-32,o),
(290,74,o),
(145,249,o),
(74,477,o),
(74,599,q),
(74,737,o),
(159,976,o),
(320,1153,o),
(559,1257,o),
(711,1257,q),
(838,1257,o),
(1054,1181,o),
(1213,1034,o),
(1305,819,o),
(1305,684,q),
(1305,587,o),
(1257,424,o),
(1167,308,o),
(1045,244,o),
(971,244,q),
(946,244,o),
(916,249,o),
(886,265,o),
(847,292,o),
(815,315,q),
(796,329,o),
(790,350,o),
(790,361,q),
(776,345,o),
(737,304,o),
(681,265,o),
(612,239,o),
(571,239,q),
(550,239,o),
(488,260,o),
(430,311,o),
(391,403,o),
(391,472,q),
(391,548,o),
(444,711,o),
(536,845,o),
(658,930,o),
(730,930,q),
(787,930,o),
(845,863,o),
(861,838,q),
(882,918,l),
(1001,918,l),
(902,559,l),
(902,550,o),
(879,472,o),
(879,444,q),
(879,419,o),
(932,352,o),
(985,352,q),
(1029,352,o),
(1105,407,o),
(1162,502,o),
(1195,626,o),
(1195,697,q),
(1195,810,o),
(1119,981,o),
(985,1093,o),
(808,1149,o),
(707,1149,q),
(569,1149,o),
(375,1052,o),
(251,898,o),
(193,700,o),
(193,596,q),
(193,504,o),
(244,320,o),
(357,170,o),
(539,76,o),
(670,76,q),
(815,76,o),
(1047,159,o),
(1128,203,q),
(1162,221,l),
(1165,221,o),
(1176,228,o),
(1179,228,q)
);
},
{
closed = 1;
nodes = (
(626,352,o),
(704,424,o),
(764,527,o),
(799,649,o),
(799,700,q),
(799,753,o),
(748,815,o),
(716,815,q),
(677,815,o),
(601,744,o),
(543,638,o),
(509,513,o),
(509,463,q),
(509,447,o),
(516,410,o),
(534,375,o),
(562,352,o),
(582,352,q)
);
}
);
width = 1381;
}
);
unicode = 64;
},
{
glyphname = A;
layers = (
{
layerId = "0FD74DFA-4A91-4E89-B38F-D966F2F9984B";
shapes = (
{
closed = 1;
nodes = (
(1358,0,l),
(1358,108,l),
(1241,108,l),
(755,1296,l),
(260,1296,l),
(260,1188,l),
(589,1188,l),
(145,108,l),
(23,108,l),
(23,0,l),
(495,0,l),
(495,108,l),
(260,108,l),
(389,428,l),
(990,428,l),
(1121,108,l),
(886,108,l),
(886,0,l)
);
},
{
closed = 1;
nodes = (
(951,529,l),
(430,529,l),
(691,1160,l)
);
}
);
width = 1381;
}
);
unicode = 65;
},
{
glyphname = B;
layers = (
{
layerId = "0FD74DFA-4A91-4E89-B38F-D966F2F9984B";
shapes = (
{
closed = 1;
nodes = (
(732,1296,l),
(868,1296,o),
(1015,1243,o),
(1112,1156,o),
(1172,1036,o),
(1172,962,q),
(1172,900,o),
(1133,803,o),
(1075,734,o),
(1013,688,o),
(990,677,q),
(1114,640,o),
(1252,479,o),
(1252,355,q),
(1252,258,o),
(1162,104,o),
(1089,64,q),
(1052,44,o),
(983,18,o),
(898,5,o),
(790,0,o),
(711,0,q),
(104,0,l),
(104,108,l),
(295,108,l),
(295,1188,l),
(104,1188,l),
(104,1296,l)
);
},
{
closed = 1;
nodes = (
(410,727,l),
(716,727,l),
(829,727,o),
(962,783,o),
(1031,859,o),
(1052,939,o),
(1052,967,q),
(1052,1050,o),
(965,1139,o),
(852,1181,o),
(746,1188,o),
(727,1188,q),
(410,1188,l)
);
},
{
closed = 1;
nodes = (
(410,108,l),
(707,108,l),
(769,108,o),
(916,115,o),
(1045,161,o),
(1133,260,o),
(1133,355,q),
(1133,426,o),
(1066,527,o),
(951,589,o),
(790,619,o),
(697,619,q),
(410,619,l)
);
}
);
width = 1381;
}
);
unicode = 66;
},
{
glyphname = C;
layers = (
{
layerId = "0FD74DFA-4A91-4E89-B38F-D966F2F9984B";
shapes = (
{
closed = 1;
nodes = (
(1367,228,l),
(1271,136,o),
(1087,30,o),
(928,-25,o),
(803,-39,o),
(769,-39,q),
(617,-39,o),
(384,74,o),
(228,267,o),
(147,520,o),
(147,663,q),
(147,813,o),
(242,1061,o),
(407,1238,o),
(633,1335,o),
(764,1335,q),
(833,1335,o),
(937,1310,o),
(1011,1275,o),
(1052,1243,o),
(1059,1236,q),
(1082,1218,o),
(1093,1211,o),
(1098,1211,q),
(1105,1211,o),
(1116,1234,o),
(1123,1268,o),
(1130,1305,o),
(1133,1321,q),
(1218,1321,l),
(1213,1176,o),
(1229,974,o),
(1241,882,q),
(1133,863,l),
(1126,902,o),
(1096,1024,o),
(1057,1084,q),
(1024,1133,o),
(886,1220,o),
(760,1220,q),
(645,1220,o),
(465,1133,o),
(338,981,o),
(272,778,o),
(272,665,q),
(272,578,o),
(315,373,o),
(428,196,o),
(619,76,o),
(769,76,q),
(925,76,o),
(1179,212,o),
(1291,311,q)
);
}
);
width = 1381;
}
);
unicode = 67;
},
{
glyphname = D;
layers = (
{
layerId = "0FD74DFA-4A91-4E89-B38F-D966F2F9984B";
shapes = (
{
closed = 1;
nodes = (
(654,1296,l),
(730,1296,o),
(861,1284,o),
(974,1250,o),
(1077,1181,o),
(1126,1123,q),
(1176,1061,o),
(1234,928,o),
(1261,803,o),
(1268,702,o),
(1268,672,q),
(1268,569,o),
(1236,401,o),
(1183,269,o),
(1114,168,o),
(1077,134,q),
(1024,83,o),
(900,30,o),
(780,5,o),
(677,0,o),
(645,0,q),
(78,0,l),
(78,108,l),
(260,108,l),
(260,1188,l),
(78,1188,l),
(78,1296,l)
);
},
{
closed = 1;
nodes = (
(375,108,l),
(645,108,l),
(674,108,o),
(757,110,o),
(852,131,o),
(948,175,o),
(990,216,q),
(1052,279,o),
(1144,506,o),
(1144,665,q),
(1142,773,o),
(1103,925,o),
(1047,1031,o),
(985,1096,o),
(960,1116,q),
(900,1162,o),
(755,1188,o),
(656,1188,q),
(375,1188,l)
);
}
);
width = 1381;
}
);
unicode = 68;
},
{
glyphname = E;
layers = (
{
layerId = "0FD74DFA-4A91-4E89-B38F-D966F2F9984B";
shapes = (
{
closed = 1;
nodes = (
(1234,872,l),
(1128,872,l),
(1105,1188,l),
(442,1188,l),
(442,739,l),
(815,739,l),
(815,907,l),
(921,907,l),
(921,465,l),
(815,465,l),
(815,631,l),
(442,631,l),
(442,108,l),
(1128,108,l),
(1139,424,l),
(1245,424,l),
(1245,0,l),
(131,0,l),
(131,108,l),
(327,108,l),
(327,1188,l),
(131,1188,l),
(131,1296,l),
(1225,1296,l)
);
}
);
width = 1381;
}
);
unicode = 69;
},
{
glyphname = F;
layers = (
{
layerId = "0FD74DFA-4A91-4E89-B38F-D966F2F9984B";
shapes = (
{
closed = 1;
nodes = (
(1257,882,l),
(1153,882,l),
(1126,1188,l),
(467,1188,l),
(467,739,l),
(840,739,l),
(840,907,l),
(946,907,l),
(946,465,l),
(840,465,l),
(840,631,l),
(467,631,l),
(467,108,l),
(767,108,l),
(767,0,l),
(166,0,l),
(166,108,l),
(352,108,l),
(352,1188,l),
(166,1188,l),
(166,1296,l),
(1245,1296,l)
);
}
);
width = 1381;
}
);
unicode = 70;
},
{
glyphname = G;
layers = (
{
layerId = "0FD74DFA-4A91-4E89-B38F-D966F2F9984B";
shapes = (
{
closed = 1;
nodes = (
(1202,1321,l),
(1199,1314,o),
(1197,1282,o),
(1197,1278,q),
(1197,1268,o),
(1195,1225,o),
(1190,1169,o),
(1188,1114,o),
(1188,1091,q),
(1188,1034,o),
(1197,923,o),
(1202,882,q),
(1103,863,l),
(1096,902,o),
(1066,1024,o),
(985,1137,o),
(840,1220,o),
(718,1220,q),
(617,1220,o),
(442,1135,o),
(311,983,o),
(235,771,o),
(235,645,q),
(235,527,o),
(297,320,o),
(426,166,o),
(619,76,o),
(750,76,q),
(808,76,o),
(967,104,o),
(1103,150,q),
(1103,460,l),
(762,460,l),
(762,569,l),
(1331,569,l),
(1331,460,l),
(1220,460,l),
(1220,74,l),
(960,-39,o),
(748,-39,q),
(571,-39,o),
(327,87,o),
(177,288,o),
(110,527,o),
(110,642,q),
(110,776,o),
(191,1024,o),
(348,1218,o),
(575,1335,o),
(723,1335,q),
(806,1335,o),
(944,1289,o),
(1011,1236,q),
(1029,1218,o),
(1047,1209,o),
(1057,1209,q),
(1075,1209,o),
(1082,1245,o),
(1091,1321,q)
);
}
);
width = 1381;
}
);
unicode = 71;
},
{
glyphname = H;
layers = (
{
layerId = "0FD74DFA-4A91-4E89-B38F-D966F2F9984B";
shapes = (
{
closed = 1;
nodes = (
(550,1188,l),
(378,1188,l),
(378,723,l),
(1004,723,l),
(1004,1188,l),
(831,1188,l),
(831,1296,l),
(1294,1296,l),
(1294,1188,l),
(1119,1188,l),
(1119,108,l),
(1294,108,l),
(1294,0,l),
(831,0,l),
(831,108,l),
(1004,108,l),
(1004,615,l),
(378,615,l),
(378,108,l),
(550,108,l),
(550,0,l),
(90,0,l),
(90,108,l),
(262,108,l),
(262,1188,l),
(90,1188,l),
(90,1296,l),
(550,1296,l)
);
}
);
width = 1381;
}
);
unicode = 72;
},
{
glyphname = I;
layers = (
{
layerId = "0FD74DFA-4A91-4E89-B38F-D966F2F9984B";
shapes = (
{
closed = 1;
nodes = (
(1151,1188,l),
(748,1188,l),
(748,108,l),
(1151,108,l),
(1151,0,l),
(230,0,l),
(230,108,l),
(633,108,l),
(633,1188,l),
(230,1188,l),
(230,1296,l),
(1151,1296,l)
);
}
);
width = 1381;
}
);
unicode = 73;
},
{
glyphname = J;
layers = (
{
layerId = "0FD74DFA-4A91-4E89-B38F-D966F2F9984B";
shapes = (
{
closed = 1;
nodes = (
(1333,1188,l),
(1040,1188,l),
(1040,470,l),
(1040,373,o),
(1020,180,o),
(974,108,q),
(946,69,o),
(868,12,o),
(785,-23,o),
(700,-39,o),
(663,-39,q),
(525,-39,o),
(297,46,o),
(200,90,q),
(157,108,l),
(136,605,l),
(249,605,l),
(258,382,l),
(260,295,o),
(297,189,o),
(366,147,q),
(433,106,o),
(578,76,o),
(638,76,q),
(744,76,o),
(861,147,o),
(916,260,o),
(925,401,o),
(925,470,q),
(925,1188,l),
(472,1188,l),
(472,1296,l),
(1333,1296,l)
);
}
);
width = 1381;
}
);
unicode = 74;
},
{
glyphname = K;
layers = (
{
layerId = "0FD74DFA-4A91-4E89-B38F-D966F2F9984B";
shapes = (
{
closed = 1;
nodes = (
(642,1188,l),
(447,1188,l),
(447,624,l),
(1027,1188,l),
(838,1188,l),
(838,1296,l),
(1287,1296,l),
(1287,1188,l),
(1183,1188,l),
(684,702,l),
(727,679,o),
(831,605,o),
(946,472,o),
(1073,265,o),
(1142,108,q),
(1354,108,l),
(1354,0,l),
(1059,0,l),
(1022,97,o),
(935,269,o),
(909,311,q),
(843,426,o),
(707,573,o),
(605,624,q),
(447,472,l),
(447,108,l),
(642,108,l),
(642,0,l),
(138,0,l),
(138,108,l),
(331,108,l),
(331,1188,l),
(138,1188,l),
(138,1296,l),
(642,1296,l)
);
}
);
width = 1381;
}
);
unicode = 75;
},
{
glyphname = L;
layers = (
{
layerId = "0FD74DFA-4A91-4E89-B38F-D966F2F9984B";
shapes = (
{
closed = 1;
nodes = (
(764,1188,l),
(481,1188,l),
(481,108,l),
(1133,108,l),
(1165,573,l),
(1273,573,l),
(1248,0,l),
(136,0,l),
(136,108,l),
(366,108,l),
(366,1188,l),
(136,1188,l),
(136,1296,l),
(764,1296,l)
);
}
);
width = 1381;
}
);
unicode = 76;
},
{
glyphname = M;
layers = (
{
layerId = "0FD74DFA-4A91-4E89-B38F-D966F2F9984B";
shapes = (
{
closed = 1;
nodes = (
(665,516,l),
(707,516,l),
(992,1296,l),
(1363,1296,l),
(1363,1188,l),
(1199,1188,l),
(1238,108,l),
(1379,108,l),
(1379,0,l),
(891,0,l),
(891,108,l),
(1137,108,l),
(1103,1188,l),
(1061,1188,l),
(739,331,l),
(619,331,l),
(320,1188,l),
(279,1188,l),
(244,108,l),
(490,108,l),
(490,0,l),
(2,0,l),
(2,108,l),
(143,108,l),
(182,1188,l),
(18,1188,l),
(18,1296,l),
(403,1296,l)
);
}
);
width = 1381;
}
);
unicode = 77;
},
{
glyphname = N;
layers = (
{
layerId = "0FD74DFA-4A91-4E89-B38F-D966F2F9984B";
shapes = (
{
closed = 1;
nodes = (
(1064,97,l),
(1105,97,l),
(1105,1188,l),
(847,1188,l),
(847,1296,l),
(1360,1296,l),
(1360,1188,l),
(1211,1188,l),
(1211,-30,l),
(1006,-30,l),
(389,1188,l),
(350,1188,l),
(350,108,l),
(610,108,l),
(610,0,l),
(64,0,l),
(64,108,l),
(244,108,l),
(244,1188,l),
(64,1188,l),
(64,1296,l),
(458,1296,l)
);
}
);
width = 1381;
}
);
unicode = 78;
},
{
glyphname = O;
layers = (
{
layerId = "0FD74DFA-4A91-4E89-B38F-D966F2F9984B";
shapes = (
{
closed = 1;
nodes = (
(99,790,o),
(182,1040,o),
(336,1227,o),
(555,1335,o),
(691,1335,q),
(829,1335,o),
(1047,1225,o),
(1202,1036,o),
(1282,787,o),
(1282,647,q),
(1282,509,o),
(1199,258,o),
(1047,71,o),
(829,-39,o),
(691,-39,q),
(555,-39,o),
(336,69,o),
(182,256,o),
(99,504,o),
(99,647,q)
);
},
{
closed = 1;
nodes = (
(223,546,o),
(283,341,o),
(401,177,o),
(575,76,o),
(691,76,q),
(803,76,o),
(978,175,o),
(1098,336,o),
(1158,541,o),
(1158,649,q),
(1158,757,o),
(1096,965,o),
(976,1123,o),
(803,1220,o),
(691,1220,q),
(571,1220,o),
(396,1116,o),
(281,953,o),
(223,748,o),
(223,649,q)
);
}
);
width = 1381;
}
);
unicode = 79;
},
{
glyphname = P;
layers = (
{
layerId = "0FD74DFA-4A91-4E89-B38F-D966F2F9984B";
shapes = (
{
closed = 1;
nodes = (
(691,1296,l),
(815,1296,o),
(969,1271,o),
(1031,1236,q),
(1119,1188,o),
(1229,999,o),
(1229,893,q),
(1229,845,o),
(1204,750,o),
(1160,668,o),
(1098,599,o),
(1061,578,q),
(1020,552,o),
(939,525,o),
(838,511,o),
(697,509,o),
(594,509,q),
(465,509,l),
(465,108,l),
(803,108,l),
(803,0,l),
(163,0,l),
(163,108,l),
(350,108,l),
(350,1188,l),
(163,1188,l),
(163,1296,l)
);
},
{
closed = 1;
nodes = (
(465,617,l),
(596,617,l),
(737,617,o),
(948,631,o),
(1008,679,q),
(1040,704,o),
(1105,815,o),
(1105,898,q),
(1105,992,o),
(1013,1119,o),
(967,1142,q),
(946,1153,o),
(900,1169,o),
(838,1181,o),
(753,1188,o),
(691,1188,q),
(465,1188,l)
);
}
);
width = 1381;
}
);
unicode = 80;
},
{
glyphname = Q;
layers = (
{
layerId = "0FD74DFA-4A91-4E89-B38F-D966F2F9984B";
shapes = (
{
closed = 1;
nodes = (
(1259,-203,l),
(1220,-230,o),
(1107,-295,o),
(1027,-295,q),
(974,-295,o),
(891,-265,o),
(771,-214,o),
(695,-193,o),
(651,-193,q),
(575,-193,o),
(460,-242,o),
(380,-288,q),
(327,-203,l),
(368,-175,o),
(437,-113,o),
(488,-60,o),
(518,-21,o),
(523,-16,q),
(426,14,o),
(269,140,o),
(159,313,o),
(99,527,o),
(99,647,q),
(99,810,o),
(196,1066,o),
(359,1243,o),
(573,1335,o),
(688,1335,q),
(813,1335,o),
(1029,1236,o),
(1190,1054,o),
(1282,796,o),
(1282,638,q),
(1282,520,o),
(1220,279,o),
(1073,81,o),
(831,-41,o),
(651,-39,q),
(642,-51,o),
(633,-60,o),
(615,-78,q),
(612,-83,o),
(608,-87,o),
(610,-83,q),
(605,-83,l),
(605,-87,l),
(617,-87,o),
(638,-85,o),
(656,-85,q),
(697,-85,o),
(799,-106,o),
(859,-131,q),
(900,-147,o),
(948,-166,o),
(981,-177,o),
(1004,-180,o),
(1017,-180,q),
(1075,-180,o),
(1156,-140,o),
(1188,-120,q)
);
},
{
closed = 1;
nodes = (
(223,546,o),
(283,341,o),
(401,177,o),
(575,76,o),
(691,76,q),
(803,76,o),
(978,175,o),
(1098,336,o),
(1158,541,o),
(1158,649,q),
(1158,757,o),
(1096,965,o),
(976,1123,o),
(803,1220,o),
(691,1220,q),
(571,1220,o),
(396,1116,o),
(281,953,o),
(223,748,o),
(223,649,q)
);
}
);
width = 1381;
}
);
unicode = 81;
},
{
glyphname = R;
layers = (
{
layerId = "0FD74DFA-4A91-4E89-B38F-D966F2F9984B";
shapes = (
{
closed = 1;
nodes = (
(695,1296,l),
(806,1296,o),
(948,1275,o),
(1068,1192,o),
(1149,1034,o),
(1149,948,q),
(1149,898,o),
(1114,783,o),
(1031,681,o),
(895,605,o),
(796,596,q),
(826,564,o),
(912,444,o),
(1001,306,o),
(1091,166,o),
(1126,108,q),
(1328,108,l),
(1328,0,l),
(1040,0,l),
(1013,58,o),
(946,182,o),
(884,290,o),
(831,375,o),
(819,394,q),
(785,447,o),
(734,523,o),
(681,571,o),
(619,594,o),
(573,594,q),
(407,594,l),
(407,108,l),
(612,108,l),
(612,0,l),
(104,0,l),
(104,108,l),
(292,108,l),
(292,1188,l),
(104,1188,l),
(104,1296,l)
);
},
{
closed = 1;
nodes = (
(407,702,l),
(622,702,l),
(668,702,o),
(806,709,o),
(932,755,o),
(1024,859,o),
(1024,955,q),
(1024,1013,o),
(974,1116,o),
(928,1149,q),
(914,1158,o),
(884,1172,o),
(833,1181,o),
(753,1188,o),
(691,1188,q),
(407,1188,l)
);
}
);
width = 1381;
}
);
unicode = 82;
},
{
glyphname = S;
layers = (
{
layerId = "0FD74DFA-4A91-4E89-B38F-D966F2F9984B";
shapes = (
{
closed = 1;
nodes = (
(1167,1321,l),
(1156,1268,o),
(1146,1199,o),
(1146,1156,q),
(1146,1116,o),
(1156,981,o),
(1167,882,q),
(1064,863,l),
(1059,900,o),
(1031,1020,o),
(992,1080,q),
(978,1100,o),
(935,1149,o),
(866,1190,o),
(769,1220,o),
(700,1220,q),
(610,1220,o),
(479,1167,o),
(394,1087,o),
(352,992,o),
(352,948,q),
(352,868,o),
(430,776,o),
(541,725,o),
(661,707,o),
(702,702,q),
(831,688,o),
(978,658,o),
(1098,580,o),
(1181,451,o),
(1181,352,q),
(1181,251,o),
(1096,104,o),
(962,7,o),
(794,-39,o),
(709,-39,q),
(640,-39,o),
(536,-16,o),
(460,18,o),
(410,53,o),
(394,67,q),
(391,69,o),
(380,76,o),
(375,76,q),
(368,76,o),
(357,62,o),
(352,58,q),
(348,41,o),
(341,12,o),
(331,-46,q),
(228,-46,l),
(239,9,o),
(249,110,o),
(249,136,q),
(249,159,l),
(249,177,o),
(244,239,o),
(237,311,o),
(230,378,o),
(228,403,q),
(331,403,l),
(341,359,o),
(371,249,o),
(410,198,q),
(442,157,o),
(569,76,o),
(693,76,q),
(799,76,o),
(939,127,o),
(1022,205,o),
(1057,299,o),
(1057,343,q),
(1057,419,o),
(990,509,o),
(893,557,o),
(780,575,o),
(737,580,q),
(670,587,o),
(493,615,o),
(336,688,o),
(228,824,o),
(228,939,q),
(228,1017,o),
(297,1160,o),
(419,1271,o),
(587,1335,o),
(686,1335,q),
(748,1335,o),
(845,1312,o),
(914,1282,o),
(960,1250,o),
(971,1241,q),
(999,1220,o),
(1017,1209,o),
(1024,1209,q),
(1040,1209,o),
(1047,1236,o),
(1059,1291,q),
(1061,1303,o),
(1064,1317,o),
(1064,1321,q)
);
}
);
width = 1381;
}
);
unicode = 83;
},
{
glyphname = T;
layers = (
{
layerId = "0FD74DFA-4A91-4E89-B38F-D966F2F9984B";
shapes = (
{
closed = 1;
nodes = (
(1282,753,l),
(1172,739,l),
(1139,1188,l),
(748,1188,l),
(748,108,l),
(1027,108,l),
(1027,0,l),
(355,0,l),
(355,108,l),
(633,108,l),
(633,1188,l),
(242,1188,l),
(209,739,l),
(99,753,l),
(138,1296,l),
(1243,1296,l)
);
}
);
width = 1381;
}
);
unicode = 84;
},
{
glyphname = U;
layers = (
{
layerId = "0FD74DFA-4A91-4E89-B38F-D966F2F9984B";
shapes = (
{
closed = 1;
nodes = (
(571,1188,l),
(336,1188,l),
(336,539,l),
(336,467,o),
(348,306,o),
(380,239,q),
(412,170,o),
(555,76,o),
(688,76,q),
(824,76,o),
(969,157,o),
(1001,221,q),
(1036,283,o),
(1047,437,o),
(1047,516,q),
(1047,1188,l),
(813,1188,l),
(813,1296,l),
(1328,1296,l),
(1328,1188,l),
(1162,1188,l),
(1162,516,l),
(1162,428,o),
(1151,306,o),
(1128,216,o),
(1098,154,o),
(1080,129,q),
(1061,101,o),
(992,44,o),
(893,-7,o),
(767,-39,o),
(691,-39,q),
(649,-39,o),
(546,-25,o),
(440,16,o),
(338,85,o),
(299,140,q),
(269,182,o),
(237,288,o),
(223,396,o),
(221,500,o),
(221,539,q),
(221,1188,l),
(55,1188,l),
(55,1296,l),
(571,1296,l)
);
}
);
width = 1381;
}
);
unicode = 85;
},
{
glyphname = V;
layers = (
{
layerId = "0FD74DFA-4A91-4E89-B38F-D966F2F9984B";
shapes = (
{
closed = 1;
nodes = (
(506,1188,l),
(290,1188,l),
(697,129,l),
(1112,1188,l),
(877,1188,l),
(877,1296,l),
(1367,1296,l),
(1367,1188,l),
(1222,1188,l),
(767,0,l),
(624,0,l),
(173,1188,l),
(14,1188,l),
(14,1296,l),
(506,1296,l)
);
}
);
width = 1381;
}
);
unicode = 86;
},
{
glyphname = W;
layers = (
{
layerId = "0FD74DFA-4A91-4E89-B38F-D966F2F9984B";
shapes = (
{
closed = 1;
nodes = (
(458,1188,l),
(226,1188,l),
(355,221,l),
(359,221,l),
(656,1059,l),
(734,1059,l),
(1024,221,l),
(1029,221,l),
(1162,1188,l),
(928,1188,l),
(928,1296,l),
(1377,1296,l),
(1377,1188,l),
(1271,1188,l),
(1098,0,l),
(983,0,l),
(691,838,l),
(686,838,l),
(389,0,l),
(274,0,l),
(113,1188,l),
(5,1188,l),
(5,1296,l),
(458,1296,l)
);
}
);
width = 1381;
}
);
unicode = 87;
},
{
glyphname = X;
layers = (
{
layerId = "0FD74DFA-4A91-4E89-B38F-D966F2F9984B";
shapes = (
{
closed = 1;
nodes = (
(566,1188,l),
(378,1188,l),
(693,767,l),
(1015,1188,l),
(840,1188,l),
(840,1296,l),
(1261,1296,l),
(1261,1188,l),
(1144,1188,l),
(757,681,l),
(1186,108,l),
(1305,108,l),
(1305,0,l),
(840,0,l),
(840,108,l),
(1047,108,l),
(693,596,l),
(322,108,l),
(566,108,l),
(566,0,l),
(76,0,l),
(76,108,l),
(193,108,l),
(628,681,l),
(242,1188,l),
(120,1188,l),
(120,1296,l),
(566,1296,l)
);
}
);
width = 1381;
}
);
unicode = 88;
},
{
glyphname = Y;
layers = (
{
layerId = "0FD74DFA-4A91-4E89-B38F-D966F2F9984B";
shapes = (
{
closed = 1;
nodes = (
(525,1188,l),
(350,1188,l),
(697,617,l),
(1040,1188,l),
(861,1188,l),
(861,1296,l),
(1308,1296,l),
(1308,1188,l),
(1162,1188,l),
(750,502,l),
(750,108,l),
(1022,108,l),
(1022,0,l),
(361,0,l),
(361,108,l),
(635,108,l),
(635,502,l),
(219,1188,l),
(74,1188,l),
(74,1296,l),
(525,1296,l)
);
}
);
width = 1381;
}
);
unicode = 89;
},
{
glyphname = Z;
layers = (
{
layerId = "0FD74DFA-4A91-4E89-B38F-D966F2F9984B";
shapes = (
{
closed = 1;
nodes = (
(1135,1202,l),
(331,108,l),
(1080,108,l),
(1080,481,l),
(1188,481,l),
(1188,0,l),
(193,0,l),
(193,108,l),
(988,1188,l),
(318,1188,l),
(318,852,l),
(209,852,l),
(209,1296,l),
(1135,1296,l)
);
}
);
width = 1381;
}
);
unicode = 90;
},
{
glyphname = bracketleft;
layers = (
{
layerId = "0FD74DFA-4A91-4E89-B38F-D966F2F9984B";
shapes = (
{
closed = 1;
nodes = (
(1116,1390,l),
(826,1390,l),
(826,-101,l),
(1116,-101,l),
(1116,-216,l),
(711,-216,l),
(711,1505,l),
(1116,1505,l)
);
}
);
width = 1381;
}
);
unicode = 91;
},
{
glyphname = backslash;
layers = (
{
layerId = "0FD74DFA-4A91-4E89-B38F-D966F2F9984B";
shapes = (
{
closed = 1;
nodes = (
(1077,-320,l),
(214,1579,l),
(313,1623,l),
(1176,-274,l)
);
}
);
width = 1381;
}
);
unicode = 92;
},
{
glyphname = bracketright;
layers = (
{
layerId = "0FD74DFA-4A91-4E89-B38F-D966F2F9984B";
shapes = (
{
closed = 1;
nodes = (
(265,-101,l),
(555,-101,l),
(555,1390,l),
(265,1390,l),
(265,1505,l),
(670,1505,l),
(670,-216,l),
(265,-216,l)
);
}
);
width = 1381;
}
);
unicode = 93;
},
{
glyphname = asciicircum;
layers = (
{
layerId = "0FD74DFA-4A91-4E89-B38F-D966F2F9984B";
shapes = (
{
closed = 1;
nodes = (
(168,355,l),
(605,1296,l),
(776,1296,l),
(1213,355,l),
(1066,355,l),
(691,1158,l),
(315,355,l)
);
}
);
width = 1381;
}
);
unicode = 94;
},
{
glyphname = underscore;
layers = (
{
layerId = "0FD74DFA-4A91-4E89-B38F-D966F2F9984B";
shapes = (
{
closed = 1;
nodes = (
(1492,-288,l),
(-110,-288,l),
(-110,-173,l),
(1492,-173,l)
);
}
);
width = 1381;
}
);
unicode = 95;
},
{
glyphname = grave;
layers = (
{
layerId = "0FD74DFA-4A91-4E89-B38F-D966F2F9984B";
shapes = (
{
closed = 1;
nodes = (
(861,1158,l),
(741,1158,l),
(437,1423,l),
(684,1423,l)
);
}
);
width = 1381;
}
);
unicode = 96;
},
{
glyphname = a;
layers = (
{
layerId = "0FD74DFA-4A91-4E89-B38F-D966F2F9984B";
shapes = (
{
closed = 1;
nodes = (
(1266,108,l),
(1266,0,l),
(946,0,l),
(946,166,l),
(912,134,o),
(817,62,o),
(707,5,o),
(578,-32,o),
(506,-32,q),
(419,-32,o),
(283,25,o),
(186,117,o),
(136,232,o),
(136,292,q),
(136,338,o),
(182,458,o),
(292,566,o),
(481,640,o),
(624,640,q),
(631,640,o),
(695,638,o),
(785,631,o),
(893,619,o),
(946,610,q),
(946,681,l),
(946,709,o),
(937,792,o),
(886,870,o),
(771,925,o),
(668,925,q),
(605,925,o),
(412,889,o),
(274,829,q),
(230,932,l),
(304,965,o),
(532,1036,o),
(670,1036,q),
(817,1036,o),
(976,951,o),
(1050,833,o),
(1061,716,o),
(1061,681,q),
(1061,108,l)
);
},
{
closed = 1;
nodes = (
(946,504,l),
(907,511,o),
(744,529,o),
(647,529,q),
(504,529,o),
(348,463,o),
(274,378,o),
(260,299,o),
(260,290,q),
(260,246,o),
(299,170,o),
(368,113,o),
(456,78,o),
(504,78,q),
(532,78,o),
(622,92,o),
(737,140,o),
(872,237,o),
(946,320,q)
);
}
);
width = 1381;
}
);
unicode = 97;
},
{
glyphname = b;
layers = (
{
layerId = "0FD74DFA-4A91-4E89-B38F-D966F2F9984B";
shapes = (
{
closed = 1;
nodes = (
(338,796,l),
(343,796,l),
(414,893,o),
(610,999,o),
(737,999,q),
(843,999,o),
(1031,918,o),
(1172,780,o),
(1252,592,o),
(1252,486,q),
(1252,389,o),
(1179,207,o),
(1045,64,o),
(859,-23,o),
(746,-23,q),
(651,-23,o),
(518,23,o),
(421,85,o),
(359,154,o),
(338,177,q),
(338,0,l),
(39,0,l),
(39,108,l),
(223,108,l),
(223,1331,l),
(12,1319,l),
(12,1427,l),
(338,1448,l)
);
},
{
closed = 1;
nodes = (
(341,410,o),
(403,265,o),
(509,157,o),
(656,92,o),
(744,92,q),
(829,92,o),
(971,157,o),
(1073,267,o),
(1128,410,o),
(1128,488,q),
(1128,566,o),
(1070,711,o),
(967,819,o),
(824,884,o),
(741,884,q),
(656,884,o),
(511,819,o),
(403,711,o),
(341,569,o),
(341,490,q)
);
}
);
width = 1381;
}
);
unicode = 98;
},
{
glyphname = c;
layers = (
{
layerId = "0FD74DFA-4A91-4E89-B38F-D966F2F9984B";
shapes = (
{
closed = 1;
nodes = (
(1204,1008,l),
(1199,974,o),
(1183,856,o),
(1183,796,q),
(1183,734,o),
(1190,645,q),
(1084,628,l),
(1075,668,l),
(1068,691,o),
(1040,773,o),
(969,852,o),
(836,909,o),
(725,909,q),
(615,909,o),
(449,838,o),
(341,721,o),
(288,573,o),
(288,500,q),
(288,428,o),
(336,281,o),
(440,159,o),
(601,83,o),
(716,83,q),
(840,83,o),
(1077,191,o),
(1204,279,q),
(1264,191,l),
(1227,163,o),
(1114,87,o),
(971,16,o),
(801,-32,o),
(704,-32,q),
(582,-32,o),
(384,51,o),
(242,196,o),
(163,387,o),
(163,497,q),
(163,589,o),
(230,778,o),
(366,930,o),
(573,1024,o),
(714,1024,q),
(780,1024,o),
(948,985,o),
(1052,902,q),
(1059,895,o),
(1061,895,q),
(1070,895,o),
(1082,935,o),
(1084,946,q),
(1089,976,o),
(1098,1020,q)
);
}
);
width = 1381;
}
);
unicode = 99;
},
{
glyphname = d;
layers = (
{
layerId = "0FD74DFA-4A91-4E89-B38F-D966F2F9984B";
shapes = (
{
closed = 1;
nodes = (
(1142,108,l),
(1337,108,l),
(1337,0,l),
(1027,0,l),
(1027,170,l),
(1022,170,l),
(969,97,o),
(847,18,o),
(734,-18,o),
(649,-23,o),
(633,-23,q),
(525,-23,o),
(338,60,o),
(200,198,o),
(122,384,o),
(122,488,q),
(122,605,o),
(209,794,o),
(355,928,o),
(534,999,o),
(628,999,q),
(739,999,o),
(958,898,o),
(1022,801,q),
(1027,801,l),
(1027,1319,l),
(656,1296,l),
(649,1400,l),
(1142,1443,l)
);
},
{
closed = 1;
nodes = (
(1022,552,o),
(971,693,o),
(875,810,o),
(730,884,o),
(633,884,q),
(557,884,o),
(417,829,o),
(311,725,o),
(246,580,o),
(246,490,q),
(246,403,o),
(308,256,o),
(414,150,o),
(555,92,o),
(633,92,q),
(711,92,o),
(852,152,o),
(960,256,o),
(1022,398,o),
(1022,483,q)
);
}
);
width = 1381;
}
);
unicode = 100;
},
{
glyphname = e;
layers = (
{
layerId = "0FD74DFA-4A91-4E89-B38F-D966F2F9984B";
shapes = (
{
closed = 1;
nodes = (
(1287,131,l),
(1241,106,o),
(1116,48,o),
(971,0,o),
(810,-32,o),
(730,-32,q),
(589,-32,o),
(380,55,o),
(239,200,o),
(170,391,o),
(170,493,q),
(170,599,o),
(246,792,o),
(387,939,o),
(589,1024,o),
(716,1024,q),
(847,1024,o),
(1043,941,o),
(1174,808,o),
(1238,645,o),
(1238,566,q),
(1238,539,o),
(1234,474,o),
(1234,463,q),
(295,463,l),
(297,417,o),
(334,285,o),
(430,166,o),
(599,78,o),
(732,78,q),
(803,78,o),
(953,113,o),
(1087,161,o),
(1197,214,o),
(1234,232,q)
);
},
{
closed = 1;
nodes = (
(1114,571,l),
(1114,626,o),
(1066,748,o),
(969,849,o),
(819,914,o),
(716,914,q),
(601,914,o),
(447,836,o),
(350,727,o),
(302,610,o),
(295,571,q)
);
}
);
width = 1381;
}
);
unicode = 101;
},
{
glyphname = f;
layers = (
{
layerId = "0FD74DFA-4A91-4E89-B38F-D966F2F9984B";
shapes = (
{
closed = 1;
nodes = (
(463,1091,l),
(463,1162,o),
(483,1289,o),
(555,1383,o),
(700,1439,o),
(824,1439,q),
(921,1439,o),
(1091,1416,o),
(1165,1402,q),
(1116,1287,l),
(1040,1305,o),
(868,1324,o),
(794,1324,q),
(714,1324,o),
(626,1284,o),
(585,1218,o),
(578,1130,o),
(578,1084,q),
(578,962,l),
(1068,962,l),
(1068,854,l),
(578,854,l),
(578,108,l),
(1068,108,l),
(1068,0,l),
(223,0,l),
(223,108,l),
(463,108,l),
(463,854,l),
(223,854,l),
(223,962,l),
(463,962,l)
);
}
);
width = 1381;
}
);
unicode = 102;
},
{
glyphname = g;
layers = (
{
layerId = "0FD74DFA-4A91-4E89-B38F-D966F2F9984B";
shapes = (
{
closed = 1;
nodes = (
(1273,882,l),
(1087,882,l),
(1087,69,l),
(1087,-37,o),
(1038,-198,o),
(916,-306,o),
(714,-361,o),
(559,-361,q),
(414,-361,l),
(414,-253,l),
(559,-253,o),
(769,-242,o),
(905,-180,o),
(971,-48,o),
(971,69,q),
(971,203,l),
(967,203,l),
(955,184,o),
(895,124,o),
(803,64,o),
(677,23,o),
(601,23,q),
(495,23,o),
(315,101,o),
(184,237,o),
(108,414,o),
(108,511,q),
(108,617,o),
(191,796,o),
(327,925,o),
(504,999,o),
(601,999,q),
(610,999,o),
(691,994,o),
(799,960,o),
(918,889,o),
(967,822,q),
(971,822,l),
(971,990,l),
(1273,990,l)
);
},
{
closed = 1;
nodes = (
(971,592,o),
(912,732,o),
(810,831,o),
(677,884,o),
(605,884,q),
(532,884,o),
(398,829,o),
(295,732,o),
(232,596,o),
(232,513,q),
(232,433,o),
(292,297,o),
(394,196,o),
(529,138,o),
(605,138,q),
(686,138,o),
(822,200,o),
(918,302,o),
(971,435,o),
(971,506,q)
);
}
);
width = 1381;
}
);
unicode = 103;
},
{
glyphname = h;
layers = (
{
layerId = "0FD74DFA-4A91-4E89-B38F-D966F2F9984B";
shapes = (
{
closed = 1;
nodes = (
(396,861,l),
(433,889,o),
(520,946,o),
(617,994,o),
(727,1024,o),
(790,1024,q),
(868,1024,o),
(994,969,o),
(1084,868,o),
(1130,727,o),
(1130,645,q),
(1130,108,l),
(1324,108,l),
(1324,0,l),
(819,0,l),
(819,108,l),
(1015,108,l),
(1015,635,l),
(1015,760,o),
(898,909,o),
(794,909,q),
(739,909,o),
(633,877,o),
(529,824,o),
(437,760,o),
(396,725,q),
(396,108,l),
(578,108,l),
(578,0,l),
(87,0,l),
(87,108,l),
(281,108,l),
(281,1331,l),
(67,1312,l),
(58,1420,l),
(396,1448,l)
);
}
);
width = 1381;
}
);
unicode = 104;
},
{
glyphname = i;
layers = (
{
layerId = "0FD74DFA-4A91-4E89-B38F-D966F2F9984B";
shapes = (
{
closed = 1;
nodes = (
(753,108,l),
(1151,108,l),
(1151,0,l),
(232,0,l),
(232,108,l),
(638,108,l),
(638,882,l),
(299,882,l),
(299,990,l),
(753,990,l)
);
},
{
closed = 1;
nodes = (
(753,1510,l),
(753,1236,l),
(587,1236,l),
(587,1510,l)
);
}
);
width = 1381;
}
);
unicode = 105;
},
{
glyphname = j;
layers = (
{
layerId = "0FD74DFA-4A91-4E89-B38F-D966F2F9984B";
shapes = (
{
closed = 1;
nodes = (
(898,92,l),
(898,46,o),
(884,-104,o),
(803,-244,o),
(628,-348,o),
(467,-348,q),
(375,-348,o),
(223,-322,o),
(157,-308,q),
(182,-198,l),
(228,-209,o),
(387,-232,o),
(474,-232,q),
(589,-232,o),
(716,-163,o),
(773,-60,o),
(783,60,o),
(783,108,q),
(783,882,l),
(196,882,l),
(196,990,l),
(898,990,l)
);
},
{
closed = 1;
nodes = (
(852,1510,l),
(852,1236,l),
(686,1236,l),
(686,1510,l)
);
}
);
width = 1381;
}
);
unicode = 106;
},
{
glyphname = k;
layers = (
{
layerId = "0FD74DFA-4A91-4E89-B38F-D966F2F9984B";
shapes = (
{
closed = 1;
nodes = (
(426,550,l),
(856,877,l),
(856,882,l),
(727,882,l),
(727,990,l),
(1209,990,l),
(1209,882,l),
(1029,882,l),
(642,585,l),
(711,523,o),
(849,387,o),
(971,260,o),
(1070,147,o),
(1103,108,q),
(1296,108,l),
(1296,0,l),
(817,0,l),
(817,108,l),
(965,108,l),
(930,150,o),
(856,230,o),
(760,325,o),
(638,442,o),
(555,520,q),
(426,421,l),
(426,0,l),
(120,0,l),
(120,108,l),
(311,108,l),
(311,1328,l),
(92,1310,l),
(83,1418,l),
(426,1448,l)
);
}
);
width = 1381;
}
);
unicode = 107;
},
{
glyphname = l;
layers = (
{
layerId = "0FD74DFA-4A91-4E89-B38F-D966F2F9984B";
shapes = (
{
closed = 1;
nodes = (
(748,108,l),
(1149,108,l),
(1149,0,l),
(232,0,l),
(232,108,l),
(633,108,l),
(633,1296,l),
(258,1268,l),
(246,1374,l),
(748,1406,l)
);
}
);
width = 1381;
}
);
unicode = 108;
},
{
glyphname = m;
layers = (
{
layerId = "0FD74DFA-4A91-4E89-B38F-D966F2F9984B";
shapes = (
{
closed = 1;
nodes = (
(262,909,l),
(292,935,l),
(295,937,o),
(327,962,o),
(378,992,o),
(449,1015,o),
(490,1015,q),
(564,1015,o),
(688,939,o),
(721,870,q),
(771,930,o),
(902,1015,o),
(983,1015,q),
(1043,1015,o),
(1158,962,o),
(1188,916,q),
(1204,891,o),
(1227,843,o),
(1241,780,o),
(1248,691,o),
(1248,626,q),
(1248,108,l),
(1379,108,l),
(1379,0,l),
(1133,0,l),
(1133,626,l),
(1133,674,o),
(1128,771,o),
(1100,852,o),
(1040,900,o),
(985,900,q),
(937,900,o),
(824,838,o),
(760,748,q),
(760,108,l),
(902,108,l),
(902,0,l),
(645,0,l),
(645,635,l),
(645,672,o),
(640,767,o),
(612,845,o),
(550,900,o),
(493,900,q),
(451,900,o),
(382,872,o),
(327,833,o),
(285,790,o),
(272,771,q),
(272,108,l),
(428,108,l),
(428,0,l),
(0,0,l),
(0,108,l),
(157,108,l),
(157,882,l),
(0,882,l),
(0,990,l),
(262,990,l)
);
}
);
width = 1381;
}
);
unicode = 109;
},
{
glyphname = n;
layers = (
{
layerId = "0FD74DFA-4A91-4E89-B38F-D966F2F9984B";
shapes = (
{
closed = 1;
nodes = (
(382,861,l),
(419,889,o),
(506,946,o),
(605,994,o),
(716,1024,o),
(778,1024,q),
(856,1024,o),
(983,969,o),
(1073,868,o),
(1121,727,o),
(1121,645,q),
(1121,108,l),
(1305,108,l),
(1305,0,l),
(808,0,l),
(808,108,l),
(1006,108,l),
(1006,635,l),
(1006,762,o),
(884,909,o),
(780,909,q),
(753,909,o),
(679,898,o),
(582,859,o),
(460,787,o),
(382,725,q),
(382,108,l),
(575,108,l),
(575,0,l),
(78,0,l),
(78,108,l),
(267,108,l),
(267,882,l),
(78,882,l),
(78,990,l),
(382,990,l)
);
}
);
width = 1381;
}
);
unicode = 110;
},
{
glyphname = o;
layers = (
{
layerId = "0FD74DFA-4A91-4E89-B38F-D966F2F9984B";
shapes = (
{
closed = 1;
nodes = (
(120,605,o),
(193,799,o),
(336,946,o),
(550,1036,o),
(691,1036,q),
(836,1036,o),
(1050,944,o),
(1190,792,o),
(1261,601,o),
(1261,502,q),
(1261,403,o),
(1190,212,o),
(1050,60,o),
(836,-32,o),
(691,-32,q),
(550,-32,o),
(336,58,o),
(193,207,o),
(120,398,o),
(120,502,q)
);
},
{
closed = 1;
nodes = (
(244,421,o),
(302,269,o),
(414,152,o),
(582,83,o),
(691,83,q),
(801,83,o),
(969,154,o),
(1080,272,o),
(1137,421,o),
(1137,502,q),
(1137,580,o),
(1080,732,o),
(969,849,o),
(801,921,o),
(691,921,q),
(582,921,o),
(417,852,o),
(302,734,o),
(244,585,o),
(244,502,q)
);
}
);
width = 1381;
}
);
unicode = 111;
},
{
glyphname = p;
layers = (
{
layerId = "0FD74DFA-4A91-4E89-B38F-D966F2F9984B";
shapes = (
{
closed = 1;
nodes = (
(348,826,l),
(352,826,l),
(366,847,o),
(424,912,o),
(520,974,o),
(656,1020,o),
(748,1020,q),
(866,1020,o),
(1054,932,o),
(1190,787,o),
(1261,603,o),
(1261,504,q),
(1261,389,o),
(1172,198,o),
(1029,60,o),
(845,-16,o),
(753,-16,q),
(739,-16,o),
(656,-9,o),
(541,28,o),
(412,108,o),
(352,182,q),
(348,182,l),
(348,-253,l),
(691,-253,l),
(691,-361,l),
(44,-361,l),
(44,-253,l),
(232,-253,l),
(232,882,l),
(44,882,l),
(44,990,l),
(348,990,l)
);
},
{
closed = 1;
nodes = (
(338,410,o),
(417,256,o),
(536,152,o),
(681,99,o),
(748,99,q),
(826,99,o),
(967,161,o),
(1073,269,o),
(1137,419,o),
(1137,506,q),
(1137,578,o),
(1089,721,o),
(992,833,o),
(847,905,o),
(750,905,q),
(661,905,o),
(509,840,o),
(401,734,o),
(338,589,o),
(338,511,q)
);
}
);
width = 1381;
}
);
unicode = 112;
},
{
glyphname = q;
layers = (
{
layerId = "0FD74DFA-4A91-4E89-B38F-D966F2F9984B";
shapes = (
{
closed = 1;
nodes = (
(1149,882,l),
(1149,-253,l),
(1337,-253,l),
(1337,-361,l),
(691,-361,l),
(691,-253,l),
(1034,-253,l),
(1034,182,l),
(1029,182,l),
(969,108,o),
(840,28,o),
(725,-9,o),
(642,-16,o),
(628,-16,q),
(534,-16,o),
(352,60,o),
(209,198,o),
(120,389,o),
(120,504,q),
(120,603,o),
(191,787,o),
(327,932,o),
(516,1020,o),
(633,1020,q),
(725,1020,o),
(861,974,o),
(958,912,o),
(1015,847,o),
(1029,826,q),
(1034,826,l),
(1034,990,l),
(1337,990,l),
(1337,882,l)
);
},
{
closed = 1;
nodes = (
(1043,589,o),
(981,734,o),
(872,840,o),
(721,905,o),
(631,905,q),
(534,905,o),
(389,833,o),
(292,721,o),
(244,578,o),
(244,506,q),
(244,419,o),
(306,269,o),
(414,161,o),
(555,99,o),
(633,99,q),
(700,99,o),
(845,152,o),
(965,256,o),
(1043,410,o),
(1043,511,q)
);
}
);
width = 1381;
}
);
unicode = 113;
},
{
glyphname = r;
layers = (
{
layerId = "0FD74DFA-4A91-4E89-B38F-D966F2F9984B";
shapes = (
{
closed = 1;
nodes = (
(573,760,l),
(612,799,o),
(709,891,o),
(826,969,o),
(967,1022,o),
(1050,1022,q),
(1103,1022,o),
(1183,999,o),
(1245,962,o),
(1289,918,o),
(1308,895,q),
(1186,806,l),
(1183,808,o),
(1176,817,o),
(1176,822,q),
(1167,836,o),
(1146,866,o),
(1114,891,o),
(1066,907,o),
(1031,907,q),
(955,907,o),
(815,840,o),
(697,746,o),
(603,645,o),
(573,612,q),
(573,108,l),
(1011,108,l),
(1011,0,l),
(173,0,l),
(173,108,l),
(458,108,l),
(458,882,l),
(191,882,l),
(191,990,l),
(573,990,l)
);
}
);
width = 1381;
}
);
unicode = 114;
},
{
glyphname = s;
layers = (
{
layerId = "0FD74DFA-4A91-4E89-B38F-D966F2F9984B";
shapes = (
{
closed = 1;
nodes = (
(1110,1020,l),
(1103,983,o),
(1089,889,o),
(1089,822,q),
(1089,773,o),
(1096,707,o),
(1100,677,q),
(999,665,l),
(992,700,o),
(967,783,o),
(895,854,o),
(757,905,o),
(638,905,q),
(500,905,o),
(352,806,o),
(352,734,q),
(352,672,o),
(424,601,o),
(552,562,o),
(725,548,o),
(826,543,q),
(847,543,o),
(955,529,o),
(1070,479,o),
(1160,375,o),
(1160,285,q),
(1160,203,o),
(1080,81,o),
(951,2,o),
(796,-35,o),
(721,-35,q),
(658,-35,o),
(552,-14,o),
(465,18,o),
(403,51,o),
(382,62,q),
(382,62,o),
(378,64,q),
(375,67,o),
(371,67,q),
(355,67,o),
(336,9,o),
(325,-30,q),
(223,-30,l),
(228,0,o),
(237,58,o),
(237,115,q),
(237,189,o),
(228,304,o),
(223,343,q),
(325,355,l),
(329,325,o),
(357,232,o),
(433,145,o),
(575,81,o),
(695,81,q),
(730,81,o),
(845,94,o),
(955,136,o),
(1036,214,o),
(1036,281,q),
(1036,331,o),
(988,391,o),
(900,421,o),
(778,430,o),
(707,433,q),
(661,435,o),
(500,451,o),
(343,509,o),
(228,626,o),
(228,730,q),
(228,792,o),
(288,898,o),
(394,976,o),
(546,1020,o),
(635,1020,q),
(739,1020,o),
(868,971,o),
(900,953,q),
(905,948,o),
(937,932,o),
(951,932,q),
(969,932,o),
(988,976,o),
(992,988,q),
(997,1011,o),
(1001,1024,o),
(1006,1036,q)
);
}
);
width = 1381;
}
);
unicode = 115;
},
{
glyphname = t;
layers = (
{
layerId = "0FD74DFA-4A91-4E89-B38F-D966F2F9984B";
shapes = (
{
closed = 1;
nodes = (
(513,958,l),
(1070,958,l),
(1070,849,l),
(513,849,l),
(513,414,l),
(513,350,o),
(520,230,o),
(564,138,o),
(663,83,o),
(753,83,q),
(780,83,o),
(852,90,o),
(953,113,o),
(1096,161,o),
(1197,203,q),
(1238,99,l),
(1128,48,o),
(877,-32,o),
(764,-32,q),
(654,-32,o),
(516,35,o),
(479,71,q),
(419,131,o),
(398,299,o),
(398,414,q),
(398,849,l),
(242,849,l),
(242,958,l),
(398,958,l),
(398,1296,l),
(513,1296,l)
);
}
);
width = 1381;
}
);
unicode = 116;
},
{
glyphname = u;
layers = (
{
layerId = "0FD74DFA-4A91-4E89-B38F-D966F2F9984B";
shapes = (
{
closed = 1;
nodes = (
(378,380,l),
(378,357,o),
(384,258,o),
(428,159,o),
(520,83,o),
(608,83,q),
(704,83,o),
(882,180,o),
(978,283,q),
(978,882,l),
(780,882,l),
(780,990,l),
(1093,990,l),
(1093,108,l),
(1280,108,l),
(1280,0,l),
(978,0,l),
(978,127,l),
(953,106,o),
(884,51,o),
(794,2,o),
(684,-32,o),
(617,-32,q),
(509,-32,o),
(371,46,o),
(292,166,o),
(262,311,o),
(262,380,q),
(262,882,l),
(74,882,l),
(74,990,l),
(378,990,l)
);
}
);
width = 1381;
}
);
unicode = 117;
},
{
glyphname = v;
layers = (
{
layerId = "0FD74DFA-4A91-4E89-B38F-D966F2F9984B";
shapes = (
{
closed = 1;
nodes = (
(539,882,l),
(352,882,l),
(697,134,l),
(1047,882,l),
(866,882,l),
(866,990,l),
(1333,990,l),
(1333,882,l),
(1162,882,l),
(746,0,l),
(638,0,l),
(219,882,l),
(48,882,l),
(48,990,l),
(539,990,l)
);
}
);
width = 1381;
}
);
unicode = 118;
},
{
glyphname = w;
layers = (
{
layerId = "0FD74DFA-4A91-4E89-B38F-D966F2F9984B";
shapes = (
{
closed = 1;
nodes = (
(417,882,l),
(226,882,l),
(428,184,l),
(433,184,l),
(658,810,l),
(739,810,l),
(967,175,l),
(971,175,l),
(1179,882,l),
(985,882,l),
(985,990,l),
(1377,990,l),
(1377,882,l),
(1287,882,l),
(1029,0,l),
(909,0,l),
(691,594,l),
(477,0,l),
(364,0,l),
(104,882,l),
(5,882,l),
(5,990,l),
(417,990,l)
);
}
);
width = 1381;
}
);
unicode = 119;
},
{
glyphname = x;
layers = (
{
layerId = "0FD74DFA-4A91-4E89-B38F-D966F2F9984B";
shapes = (
{
closed = 1;
nodes = (
(539,882,l),
(398,882,l),
(686,594,l),
(974,882,l),
(840,882,l),
(840,990,l),
(1264,990,l),
(1264,882,l),
(1123,882,l),
(762,518,l),
(1176,108,l),
(1321,108,l),
(1321,0,l),
(854,0,l),
(854,108,l),
(1017,108,l),
(686,444,l),
(352,108,l),
(513,108,l),
(513,0,l),
(60,0,l),
(60,108,l),
(203,108,l),
(608,518,l),
(242,882,l),
(94,882,l),
(94,990,l),
(539,990,l)
);
}
);
width = 1381;
}
);
unicode = 120;
},
{
glyphname = y;
layers = (
{
layerId = "0FD74DFA-4A91-4E89-B38F-D966F2F9984B";
shapes = (
{
closed = 1;
nodes = (
(486,882,l),
(327,882,l),
(691,182,l),
(1091,882,l),
(935,882,l),
(935,990,l),
(1356,990,l),
(1356,882,l),
(1222,882,l),
(578,-244,l),
(783,-244,l),
(783,-352,l),
(92,-352,l),
(92,-244,l),
(447,-244,l),
(624,62,l),
(196,882,l),
(55,882,l),
(55,990,l),
(486,990,l)
);
}
);
width = 1381;
}
);
unicode = 121;
},
{
glyphname = z;
layers = (
{
layerId = "0FD74DFA-4A91-4E89-B38F-D966F2F9984B";
shapes = (
{
closed = 1;
nodes = (
(1142,891,l),
(396,108,l),
(1034,108,l),
(1034,320,l),
(1142,320,l),
(1142,0,l),
(239,0,l),
(239,108,l),
(978,882,l),
(371,882,l),
(371,677,l),
(262,677,l),
(262,990,l),
(1142,990,l)
);
}
);
width = 1381;
}
);
unicode = 122;
},
{
glyphname = braceleft;
layers = (
{
layerId = "0FD74DFA-4A91-4E89-B38F-D966F2F9984B";
shapes = (
{
closed = 1;
nodes = (
(1061,1390,l),
(1020,1390,o),
(928,1383,o),
(852,1349,o),
(801,1280,o),
(801,1218,q),
(801,1181,o),
(810,1105,o),
(829,1031,q),
(847,951,l),
(849,939,o),
(859,877,o),
(859,849,q),
(859,808,o),
(836,744,o),
(799,695,o),
(753,656,o),
(732,640,q),
(753,624,o),
(796,587,o),
(836,539,o),
(859,474,o),
(859,433,q),
(859,405,o),
(849,343,o),
(847,331,q),
(829,251,l),
(810,177,o),
(801,101,o),
(801,62,q),
(801,0,o),
(854,-69,o),
(935,-101,o),
(1024,-108,o),
(1061,-108,q),
(1061,-219,l),
(969,-219,l),
(932,-219,o),
(872,-200,q),
(780,-170,o),
(681,-25,o),
(681,67,q),
(681,83,o),
(686,143,o),
(695,182,q),
(695,196,o),
(711,262,o),
(716,276,q),
(723,313,o),
(737,398,o),
(737,437,q),
(737,483,o),
(688,539,o),
(624,569,o),
(557,580,o),
(541,582,q),
(541,700,l),
(628,709,o),
(737,778,o),
(737,849,q),
(737,870,o),
(732,916,o),
(725,962,o),
(718,997,o),
(716,1006,q),
(707,1054,o),
(693,1114,o),
(686,1156,o),
(681,1188,o),
(681,1209,q),
(681,1324,o),
(783,1443,o),
(914,1496,o),
(1038,1501,o),
(1061,1501,q)
);
}
);
width = 1381;
}
);
unicode = 123;
},
{
glyphname = bar;
layers = (
{
layerId = "0FD74DFA-4A91-4E89-B38F-D966F2F9984B";
shapes = (
{
closed = 1;
nodes = (
(631,-426,l),
(631,1549,l),
(753,1549,l),
(753,-426,l)
);
}
);
width = 1381;
}
);
unicode = 124;
},
{
glyphname = braceright;
layers = (
{
layerId = "0FD74DFA-4A91-4E89-B38F-D966F2F9984B";
shapes = (
{
closed = 1;
nodes = (
(320,-108,l),
(361,-108,o),
(453,-101,o),
(529,-67,o),
(580,2,o),
(580,64,q),
(580,101,o),
(571,177,o),
(552,251,q),
(534,331,l),
(532,343,o),
(523,405,o),
(523,433,q),
(523,474,o),
(546,539,o),
(582,587,o),
(628,626,o),
(649,642,q),
(608,672,o),
(523,767,o),
(523,849,q),
(523,877,o),
(532,939,o),
(534,951,q),
(552,1031,l),
(571,1105,o),
(580,1181,o),
(580,1220,q),
(580,1282,o),
(525,1351,o),
(447,1383,o),
(357,1390,o),
(320,1390,q),
(320,1501,l),
(410,1501,l),
(449,1501,o),
(509,1482,q),
(601,1453,o),
(700,1308,o),
(700,1215,q),
(700,1199,o),
(695,1139,o),
(686,1100,q),
(686,1087,o),
(670,1020,o),
(665,1006,q),
(658,969,o),
(645,884,o),
(645,845,q),
(645,799,o),
(693,744,o),
(757,714,o),
(822,702,o),
(840,700,q),
(840,582,l),
(753,573,o),
(645,504,o),
(645,433,q),
(645,412,o),
(649,366,o),
(656,320,o),
(663,285,o),
(665,276,q),
(674,228,o),
(688,168,o),
(695,127,o),
(700,94,o),
(700,74,q),
(700,-41,o),
(599,-163,o),
(467,-214,o),
(343,-219,o),
(320,-219,q)
);
}
);
width = 1381;
}
);
unicode = 125;
},
{
glyphname = asciitilde;
layers = (
{
layerId = "0FD74DFA-4A91-4E89-B38F-D966F2F9984B";
shapes = (
{
closed = 1;
nodes = (
(1186,803,l),
(1172,778,o),
(1123,704,o),
(1052,635,o),
(960,585,o),
(902,585,q),
(893,585,o),
(868,587,o),
(822,599,o),
(746,624,o),
(686,649,q),
(631,672,o),
(566,700,o),
(525,714,o),
(495,718,o),
(479,718,q),
(410,718,o),
(322,610,o),
(274,527,q),
(198,617,l),
(221,656,o),
(274,739,o),
(341,806,o),
(424,849,o),
(479,849,q),
(529,849,o),
(631,815,o),
(721,776,q),
(767,757,o),
(826,734,o),
(863,721,o),
(889,716,o),
(900,716,q),
(914,716,o),
(955,725,o),
(1008,757,o),
(1066,817,o),
(1096,870,q),
(1096,875,o),
(1105,889,o),
(1107,891,q)
);
}
);
width = 1381;
}
);
unicode = 126;
},
{
glyphname = exclamdown;
layers = (
{
layerId = "0FD74DFA-4A91-4E89-B38F-D966F2F9984B";
shapes = (
{
closed = 1;
nodes = (
(744,552,l),
(785,-318,l),
(594,-318,l),
(638,552,l)
);
},
{
closed = 1;
nodes = (
(622,753,o),
(532,836,o),
(532,895,q),
(532,955,o),
(624,1036,o),
(691,1036,q),
(757,1036,o),
(849,953,o),
(849,893,q),
(849,833,o),
(757,753,o),
(691,753,q)
);
}
);
width = 1381;
}
);
unicode = 161;
},
{
glyphname = cent;
layers = (
{
layerId = "0FD74DFA-4A91-4E89-B38F-D966F2F9984B";
shapes = (
{
closed = 1;
nodes = (
(764,313,l),
(815,322,o),
(891,341,o),
(967,368,o),
(1054,414,o),
(1116,453,q),
(1172,359,l),
(1169,359,o),
(1160,352,o),
(1158,352,q),
(1103,315,o),
(1017,267,o),
(932,235,o),
(833,212,o),
(764,200,q),
(764,-131,l),
(651,-131,l),
(651,200,l),
(587,214,o),
(493,244,o),
(421,285,o),
(364,343,o),
(336,382,q),
(302,435,o),
(256,564,o),
(256,647,q),
(256,727,o),
(308,877,o),
(407,997,o),
(555,1080,o),
(651,1096,q),
(651,1409,l),
(764,1409,l),
(764,1096,l),
(819,1091,o),
(905,1064,o),
(962,1034,o),
(997,1004,o),
(1001,999,q),
(1006,997,o),
(1011,990,o),
(1015,990,q),
(1022,990,o),
(1029,1006,o),
(1036,1024,o),
(1036,1034,q),
(1038,1040,o),
(1038,1043,q),
(1040,1054,o),
(1043,1068,o),
(1043,1070,q),
(1151,1059,l),
(1144,1017,o),
(1130,918,o),
(1130,872,q),
(1130,849,o),
(1133,787,o),
(1137,734,q),
(1029,721,l),
(1029,741,o),
(1024,796,o),
(1006,854,o),
(971,912,o),
(941,932,q),
(895,965,o),
(794,990,o),
(764,990,q)
);
},
{
closed = 1;
nodes = (
(651,983,l),
(548,960,o),
(435,856,o),
(384,746,o),
(375,656,o),
(375,649,q),
(375,599,o),
(412,479,o),
(453,426,q),
(500,366,o),
(601,327,o),
(651,315,q)
);
}
);
width = 1381;
}
);
unicode = 162;
},
{
glyphname = sterling;
layers = (
{
layerId = "0FD74DFA-4A91-4E89-B38F-D966F2F9984B";
shapes = (
{
closed = 1;
nodes = (
(430,780,l),
(396,872,o),
(371,978,o),
(371,1031,q),
(371,1112,o),
(437,1250,o),
(552,1351,o),
(700,1409,o),
(783,1409,q),
(870,1409,o),
(997,1372,o),
(1045,1354,q),
(1050,1351,o),
(1066,1347,o),
(1070,1347,q),
(1075,1347,o),
(1082,1354,o),
(1089,1370,q),
(1192,1370,l),
(1174,1305,o),
(1153,1195,o),
(1149,1112,q),
(1045,1100,l),
(1047,1128,o),
(1050,1167,o),
(1050,1176,q),
(1050,1190,o),
(1038,1229,o),
(1020,1241,q),
(994,1255,o),
(861,1296,o),
(787,1296,q),
(714,1296,o),
(599,1250,o),
(523,1174,o),
(483,1080,o),
(483,1034,q),
(483,1008,o),
(490,965,o),
(504,907,o),
(527,833,o),
(546,780,q),
(1105,780,l),
(1105,672,l),
(578,672,l),
(589,626,o),
(599,552,o),
(599,504,q),
(599,355,o),
(518,166,o),
(477,113,q),
(481,108,l),
(513,124,o),
(592,152,o),
(645,152,q),
(686,152,o),
(760,136,o),
(822,110,q),
(872,92,o),
(928,76,o),
(953,76,q),
(1008,76,o),
(1093,124,o),
(1149,170,q),
(1215,87,l),
(1199,71,o),
(1151,30,o),
(1089,-7,o),
(1008,-32,o),
(960,-32,q),
(928,-32,o),
(854,-18,o),
(799,2,q),
(734,25,o),
(670,44,o),
(633,44,q),
(587,44,o),
(470,9,o),
(373,-46,q),
(297,53,l),
(364,122,o),
(442,258,o),
(481,375,o),
(490,467,o),
(490,495,q),
(490,585,o),
(463,672,q),
(221,672,l),
(221,780,l)
);
}
);
width = 1381;
}
);
unicode = 163;
},
{
glyphname = currency;
layers = (
{
layerId = "0FD74DFA-4A91-4E89-B38F-D966F2F9984B";
shapes = (
{
closed = 1;
nodes = (
(1128,140,l),
(941,325,l),
(870,267,o),
(727,239,o),
(691,239,q),
(677,239,o),
(624,244,o),
(557,260,o),
(479,295,o),
(440,325,q),
(253,140,l),
(173,219,l),
(361,403,l),
(302,490,o),
(281,615,o),
(281,633,q),
(281,744,o),
(336,863,o),
(361,898,q),
(173,1084,l),
(253,1160,l),
(440,976,l),
(511,1031,o),
(645,1061,o),
(691,1061,q),
(741,1061,o),
(822,1043,o),
(884,1015,o),
(928,985,o),
(941,976,q),
(1128,1160,l),
(1209,1084,l),
(1020,898,l),
(1077,817,o),
(1103,693,o),
(1103,668,q),
(1103,557,o),
(1043,435,o),
(1020,403,q),
(1209,219,l)
);
},
{
closed = 1;
nodes = (
(994,709,o),
(953,817,o),
(872,902,o),
(760,953,o),
(691,953,q),
(619,953,o),
(509,900,o),
(430,815,o),
(389,707,o),
(389,651,q),
(389,592,o),
(430,483,o),
(506,398,o),
(619,348,o),
(688,348,q),
(757,348,o),
(872,398,o),
(951,483,o),
(994,592,o),
(994,651,q)
);
}
);
width = 1381;
}
);
unicode = 164;
},
{
glyphname = yen;
layers = (
{
layerId = "0FD74DFA-4A91-4E89-B38F-D966F2F9984B";
shapes = (
{
closed = 1;
nodes = (
(1027,108,l),
(1027,0,l),
(368,0,l),
(368,108,l),
(642,108,l),
(642,320,l),
(304,320,l),
(304,428,l),
(642,428,l),
(642,562,l),
(304,562,l),
(304,670,l),
(642,670,l),
(642,700,l),
(214,1257,l),
(74,1257,l),
(74,1365,l),
(527,1365,l),
(527,1257,l),
(352,1257,l),
(697,808,l),
(1036,1257,l),
(861,1257,l),
(861,1365,l),
(1308,1365,l),
(1308,1257,l),
(1169,1257,l),
(753,700,l),
(753,670,l),
(1084,670,l),
(1084,562,l),
(753,562,l),
(753,428,l),
(1084,428,l),
(1084,320,l),
(753,320,l),
(753,108,l)
);
}
);
width = 1381;
}
);
unicode = 165;
},
{
glyphname = brokenbar;
layers = (
{
layerId = "0FD74DFA-4A91-4E89-B38F-D966F2F9984B";
shapes = (
{
closed = 1;
nodes = (
(631,691,l),
(631,1549,l),
(753,1549,l),
(753,691,l)
);
},
{
closed = 1;
nodes = (
(631,-426,l),
(631,433,l),
(753,433,l),
(753,-426,l)
);
}
);
width = 1381;
}
);
unicode = 166;
},
{
glyphname = section;
layers = (
{
layerId = "0FD74DFA-4A91-4E89-B38F-D966F2F9984B";
shapes = (
{
closed = 1;
nodes = (
(971,990,l),
(971,1188,l),
(707,1188,l),
(688,1188,o),
(631,1183,o),
(575,1158,o),
(536,1105,o),
(536,1054,q),
(536,1008,o),
(587,941,o),
(619,916,q),
(937,672,l),
(978,640,o),
(1050,580,o),
(1100,518,o),
(1128,447,o),
(1128,403,q),
(1128,375,o),
(1110,306,o),
(1066,242,o),
(992,191,o),
(937,180,q),
(948,161,o),
(981,97,o),
(981,41,q),
(981,-76,o),
(810,-209,o),
(665,-209,q),
(302,-209,l),
(302,122,l),
(410,122,l),
(410,-101,l),
(679,-101,l),
(709,-101,o),
(776,-85,o),
(826,-53,o),
(861,0,o),
(861,39,q),
(861,71,o),
(829,134,o),
(767,180,q),
(458,417,l),
(384,474,o),
(285,582,o),
(285,663,q),
(285,702,o),
(315,780,o),
(366,845,o),
(433,891,o),
(472,898,q),
(433,941,o),
(417,1038,o),
(417,1052,q),
(417,1126,o),
(486,1225,o),
(523,1250,q),
(575,1282,o),
(700,1296,o),
(739,1296,q),
(1080,1296,l),
(1080,990,l)
);
},
{
closed = 1;
nodes = (
(571,810,l),
(509,803,o),
(442,760,o),
(410,711,o),
(405,670,o),
(405,665,q),
(405,635,o),
(447,571,o),
(520,516,q),
(833,274,l),
(889,276,o),
(955,306,o),
(994,345,o),
(1008,389,o),
(1008,403,q),
(1008,424,o),
(997,460,o),
(965,500,o),
(909,548,o),
(866,582,q)
);
}
);
width = 1381;
}
);
unicode = 167;
},
{
glyphname = dieresis;
layers = (
{
layerId = "0FD74DFA-4A91-4E89-B38F-D966F2F9984B";
shapes = (
{
closed = 1;
nodes = (
(624,1430,l),
(624,1181,l),
(458,1181,l),
(458,1430,l)
);
},
{
closed = 1;
nodes = (
(923,1430,l),
(923,1181,l),
(757,1181,l),
(757,1430,l)
);
}
);
width = 1381;
}
);
unicode = 168;
},
{
glyphname = copyright;
layers = (
{
layerId = "0FD74DFA-4A91-4E89-B38F-D966F2F9984B";
shapes = (
{
closed = 1;
nodes = (
(925,787,l),
(921,838,o),
(914,907,o),
(902,925,q),
(884,955,o),
(787,994,o),
(727,994,q),
(656,994,o),
(548,944,o),
(474,856,o),
(437,741,o),
(437,677,q),
(437,610,o),
(477,488,o),
(550,396,o),
(654,343,o),
(721,343,q),
(776,343,o),
(854,378,o),
(907,428,o),
(941,483,o),
(953,506,q),
(1008,483,l),
(967,373,o),
(790,272,o),
(688,272,q),
(603,272,o),
(467,336,o),
(371,444,o),
(320,587,o),
(320,668,q),
(320,744,o),
(371,886,o),
(470,994,o),
(619,1061,o),
(718,1061,q),
(776,1061,o),
(930,1031,o),
(990,1011,q),
(990,787,l)
);
},
{
closed = 1;
nodes = (
(829,1335,o),
(1073,1232,o),
(1252,1050,o),
(1358,806,o),
(1358,668,q),
(1358,529,o),
(1252,285,o),
(1073,104,o),
(829,-2,o),
(691,-2,q),
(552,-2,o),
(311,104,o),
(129,285,o),
(23,529,o),
(23,668,q),
(23,808,o),
(129,1052,o),
(311,1232,o),
(555,1335,o),
(691,1335,q)
);
},
{
closed = 1;
nodes = (
(571,1248,o),
(361,1158,o),
(203,999,o),
(110,787,o),
(110,665,q),
(110,546,o),
(203,334,o),
(361,177,o),
(571,85,o),
(691,85,q),
(810,85,o),
(1020,177,o),
(1179,334,o),
(1271,546,o),
(1271,665,q),
(1271,785,o),
(1179,999,o),
(1022,1156,o),
(810,1248,o),
(691,1248,q)
);
}
);
width = 1381;
}
);
unicode = 169;
},
{
glyphname = ordfeminine;
layers = (
{
layerId = "0FD74DFA-4A91-4E89-B38F-D966F2F9984B";
shapes = (
{
closed = 1;
nodes = (
(440,1278,l),
(520,1310,o),
(622,1335,o),
(674,1335,q),
(884,1335,o),
(884,1151,q),
(884,879,l),
(983,879,l),
(983,796,l),
(796,796,l),
(796,861,l),
(737,815,o),
(647,780,o),
(594,780,q),
(513,780,o),
(398,879,o),
(398,953,q),
(398,1036,o),
(536,1139,o),
(654,1139,q),
(688,1139,o),
(746,1135,o),
(796,1128,q),
(796,1144,l),
(796,1202,o),
(739,1252,o),
(672,1252,q),
(628,1252,o),
(536,1227,o),
(472,1199,q)
);
},
{
closed = 1;
nodes = (
(796,1045,l),
(748,1052,o),
(693,1057,o),
(665,1057,q),
(585,1057,o),
(486,1001,o),
(486,953,q),
(486,916,o),
(550,863,o),
(594,863,q),
(700,863,o),
(796,974,q)
);
},
{
closed = 1;
nodes = (
(971,612,l),
(410,612,l),
(410,695,l),
(971,695,l)
);
}
);
width = 1381;
}
);
unicode = 170;
},
{
glyphname = guillemotleft;
layers = (
{
layerId = "0FD74DFA-4A91-4E89-B38F-D966F2F9984B";
shapes = (
{
closed = 1;
nodes = (
(863,115,l),
(552,619,l),
(863,1121,l),
(1112,1121,l),
(801,619,l),
(1112,115,l)
);
},
{
closed = 1;
nodes = (
(426,115,l),
(115,619,l),
(426,1121,l),
(677,1121,l),
(366,619,l),
(677,115,l)
);
}
);
width = 1227;
}
);
unicode = 171;
},
{
glyphname = logicalnot;
layers = (
{
layerId = "0FD74DFA-4A91-4E89-B38F-D966F2F9984B";
shapes = (
{
closed = 1;
nodes = (
(1195,389,l),
(1080,389,l),
(1080,893,l),
(207,893,l),
(207,1008,l),
(1195,1008,l)
);
}
);
width = 1381;
}
);
unicode = 172;
},
{
glyphname = uni00AD;
layers = (
{
layerId = "0FD74DFA-4A91-4E89-B38F-D966F2F9984B";
shapes = (
{
closed = 1;
nodes = (
(447,730,l),
(935,730,l),
(935,603,l),
(447,603,l)
);
}
);
width = 1381;
}
);
unicode = 173;
},
{
glyphname = registered;
layers = (
{
layerId = "0FD74DFA-4A91-4E89-B38F-D966F2F9984B";
shapes = (
{
closed = 1;
nodes = (
(686,1073,l),
(704,1073,o),
(792,1066,o),
(884,1029,o),
(953,948,o),
(953,877,q),
(953,866,o),
(946,815,o),
(914,753,o),
(843,695,o),
(778,679,q),
(815,654,o),
(866,557,o),
(902,474,q),
(921,433,o),
(946,389,o),
(974,368,o),
(1011,366,o),
(1040,366,q),
(1040,311,l),
(948,311,l),
(882,311,o),
(819,405,o),
(790,486,q),
(767,548,o),
(734,615,o),
(697,649,o),
(649,656,o),
(608,656,q),
(566,656,l),
(566,426,l),
(566,396,o),
(571,380,o),
(582,373,q),
(587,371,o),
(642,366,o),
(661,364,q),
(661,311,l),
(368,311,l),
(368,364,l),
(371,366,o),
(384,366,q),
(398,366,o),
(401,368,q),
(442,373,o),
(463,387,o),
(463,426,q),
(463,962,l),
(463,990,o),
(460,1004,o),
(449,1008,q),
(447,1011,o),
(433,1011,q),
(428,1011,o),
(394,1013,o),
(368,1015,q),
(368,1073,l)
);
},
{
closed = 1;
nodes = (
(619,711,l),
(723,711,o),
(849,780,o),
(849,870,q),
(849,923,o),
(808,983,o),
(748,1011,o),
(684,1017,o),
(661,1017,q),
(596,1017,o),
(566,1004,o),
(566,969,q),
(566,711,l)
);
},
{
closed = 1;
nodes = (
(829,1335,o),
(1070,1232,o),
(1252,1052,o),
(1358,808,o),
(1358,668,q),
(1358,529,o),
(1252,288,o),
(1073,106,o),
(829,0,o),
(691,0,q),
(552,0,o),
(308,106,o),
(129,288,o),
(23,529,o),
(23,668,q),
(23,808,o),
(129,1052,o),
(311,1232,o),
(555,1335,o),
(691,1335,q)
);
},
{
closed = 1;
nodes = (
(571,1248,o),
(361,1158,o),
(203,999,o),
(110,787,o),
(110,668,q),
(110,548,o),
(200,338,o),
(359,180,o),
(569,87,o),
(691,87,q),
(810,87,o),
(1022,180,o),
(1181,338,o),
(1271,548,o),
(1271,668,q),
(1271,790,o),
(1179,1001,o),
(1020,1158,o),
(808,1248,o),
(691,1248,q)
);
}
);
width = 1381;
}
);
unicode = 174;
},
{
glyphname = overscore;
layers = (
{
layerId = "0FD74DFA-4A91-4E89-B38F-D966F2F9984B";
shapes = (
{
closed = 1;
nodes = (
(1082,1248,l),
(299,1248,l),
(299,1363,l),
(1082,1363,l)
);
}
);
width = 1381;
}
);
unicode = 175;
},
{
glyphname = degree;
layers = (
{
layerId = "0FD74DFA-4A91-4E89-B38F-D966F2F9984B";
shapes = (
{
closed = 1;
nodes = (
(338,1149,o),
(394,1278,o),
(488,1374,o),
(617,1430,o),
(691,1430,q),
(767,1430,o),
(895,1372,o),
(990,1275,o),
(1043,1146,o),
(1043,1075,q),
(1043,1004,o),
(988,877,o),
(893,780,o),
(764,725,o),
(691,725,q),
(617,725,o),
(488,780,o),
(394,875,o),
(338,1001,o),
(338,1075,q)
);
},
{
closed = 1;
nodes = (
(465,981,o),
(594,852,o),
(691,852,q),
(739,852,o),
(822,886,o),
(882,948,o),
(916,1029,o),
(916,1077,q),
(916,1174,o),
(787,1303,o),
(691,1303,q),
(642,1303,o),
(562,1268,o),
(500,1209,o),
(465,1126,o),
(465,1077,q)
);
}
);
width = 1381;
}
);
unicode = 176;
},
{
glyphname = plusminus;
layers = (
{
layerId = "0FD74DFA-4A91-4E89-B38F-D966F2F9984B";
shapes = (
{
closed = 1;
nodes = (
(748,875,l),
(1229,875,l),
(1229,760,l),
(748,760,l),
(748,308,l),
(633,308,l),
(633,760,l),
(152,760,l),
(152,875,l),
(633,875,l),
(633,1326,l),
(748,1326,l)
);
},
{
closed = 1;
nodes = (
(1229,71,l),
(152,71,l),
(152,186,l),
(1229,186,l)
);
}
);
width = 1381;
}
);
unicode = 177;
},
{
glyphname = twosuperior;
layers = (
{
layerId = "0FD74DFA-4A91-4E89-B38F-D966F2F9984B";
shapes = (
{
closed = 1;
nodes = (
(935,571,l),
(384,571,l),
(384,661,l),
(405,679,l),
(428,700,o),
(497,762,o),
(571,829,o),
(640,891,o),
(663,912,q),
(721,965,o),
(792,1036,o),
(826,1091,o),
(838,1139,o),
(838,1172,q),
(838,1241,o),
(737,1337,o),
(665,1337,q),
(601,1337,o),
(509,1268,o),
(506,1222,q),
(509,1195,l),
(412,1195,l),
(412,1303,l),
(511,1430,o),
(668,1430,q),
(723,1430,o),
(822,1388,o),
(895,1319,o),
(937,1225,o),
(937,1169,q),
(937,1126,o),
(914,1054,o),
(859,974,o),
(760,877,o),
(684,808,q),
(525,663,l),
(845,663,l),
(845,794,l),
(935,794,l)
);
}
);
width = 1381;
}
);
unicode = 178;
},
{
glyphname = threesuperior;
layers = (
{
layerId = "0FD74DFA-4A91-4E89-B38F-D966F2F9984B";
shapes = (
{
closed = 1;
nodes = (
(398,1333,l),
(483,1388,o),
(587,1430,o),
(645,1430,q),
(748,1430,o),
(886,1305,o),
(886,1209,q),
(886,1103,o),
(799,1029,q),
(928,948,o),
(928,813,q),
(928,695,o),
(769,550,o),
(645,550,q),
(594,550,o),
(504,573,o),
(426,605,q),
(382,624,l),
(419,709,l),
(493,674,o),
(601,642,o),
(649,642,q),
(730,642,o),
(831,739,o),
(831,813,q),
(831,889,o),
(734,969,o),
(645,969,q),
(589,969,l),
(589,1061,l),
(651,1064,o),
(707,1075,o),
(732,1093,q),
(790,1137,o),
(790,1206,q),
(790,1264,o),
(707,1337,o),
(645,1337,q),
(605,1337,o),
(534,1314,o),
(481,1278,q),
(447,1255,l)
);
}
);
width = 1381;
}
);
unicode = 179;
},
{
glyphname = acute;
layers = (
{
layerId = "0FD74DFA-4A91-4E89-B38F-D966F2F9984B";
shapes = (
{
closed = 1;
nodes = (
(495,1158,l),
(700,1423,l),
(946,1423,l),
(617,1158,l)
);
}
);
width = 1381;
}
);
unicode = 180;
},
{
glyphname = mu;
layers = (
{
layerId = "0FD74DFA-4A91-4E89-B38F-D966F2F9984B";
shapes = (
{
closed = 1;
nodes = (
(387,449,l),
(387,394,o),
(391,315,o),
(403,258,o),
(424,216,o),
(440,196,q),
(483,138,o),
(612,83,o),
(677,83,q),
(741,83,o),
(884,138,o),
(923,189,q),
(944,216,o),
(969,269,o),
(983,329,o),
(988,403,o),
(988,449,q),
(988,893,l),
(799,893,l),
(799,990,l),
(1103,990,l),
(1103,94,l),
(1294,94,l),
(1294,0,l),
(990,0,l),
(990,122,l),
(985,122,l),
(967,94,l),
(923,35,o),
(762,-32,o),
(681,-32,q),
(640,-32,o),
(562,-12,o),
(495,16,o),
(449,46,o),
(440,58,q),
(419,78,o),
(405,92,o),
(384,108,q),
(384,-343,l),
(272,-343,l),
(272,893,l),
(83,893,l),
(83,990,l),
(387,990,l)
);
}
);
width = 1381;
}
);
unicode = 181;
},
{
glyphname = paragraph;
layers = (
{
layerId = "0FD74DFA-4A91-4E89-B38F-D966F2F9984B";
shapes = (
{
closed = 1;
nodes = (
(1142,-108,l),
(1142,-177,l),
(875,-177,l),
(875,-108,l),
(918,-108,l),
(918,1227,l),
(730,1227,l),
(730,-108,l),
(773,-108,l),
(773,-177,l),
(483,-177,l),
(483,-108,l),
(626,-108,l),
(626,601,l),
(559,596,o),
(421,624,o),
(306,702,o),
(232,843,o),
(232,953,q),
(232,1080,o),
(311,1220,o),
(433,1284,o),
(582,1296,o),
(656,1296,q),
(1133,1296,l),
(1133,1227,l),
(1022,1227,l),
(1022,-108,l)
);
},
{
closed = 1;
nodes = (
(626,1227,l),
(587,1227,o),
(513,1218,o),
(456,1179,o),
(419,1096,o),
(419,1020,q),
(419,882,l),
(419,868,o),
(428,794,o),
(470,718,o),
(552,663,o),
(626,670,q)
);
}
);
width = 1381;
}
);
unicode = 182;
},
{
glyphname = middot;
layers = (
{
layerId = "0FD74DFA-4A91-4E89-B38F-D966F2F9984B";
shapes = (
{
closed = 1;
nodes = (
(725,854,o),
(787,831,o),
(838,790,o),
(868,732,o),
(868,697,q),
(868,661,o),
(836,603,o),
(785,562,o),
(721,541,o),
(691,541,q),
(661,541,o),
(599,562,o),
(546,601,o),
(513,658,o),
(513,697,q),
(513,734,o),
(546,792,o),
(596,833,o),
(658,854,o),
(691,854,q)
);
}
);
width = 1381;
}
);
unicode = 183;
},
{
glyphname = cedilla;
layers = (
{
layerId = "0FD74DFA-4A91-4E89-B38F-D966F2F9984B";
shapes = (
{
closed = 1;
nodes = (
(741,-58,l),
(799,-67,o),
(863,-108,o),
(895,-154,o),
(902,-193,o),
(902,-200,q),
(902,-212,o),
(893,-256,o),
(859,-299,o),
(783,-334,o),
(718,-334,q),
(633,-334,o),
(497,-306,o),
(465,-299,q),
(481,-198,l),
(518,-207,o),
(642,-230,o),
(716,-230,q),
(737,-230,l),
(755,-230,o),
(794,-216,o),
(794,-200,q),
(794,-168,o),
(695,-147,o),
(628,-143,q),
(645,-5,l),
(748,-5,l)
);
}
);
width = 1381;
}
);
unicode = 184;
},
{
glyphname = onesuperior;
layers = (
{
layerId = "0FD74DFA-4A91-4E89-B38F-D966F2F9984B";
shapes = (
{
closed = 1;
nodes = (
(750,1430,l),
(750,663,l),
(981,663,l),
(981,571,l),
(421,571,l),
(421,663,l),
(656,663,l),
(656,1314,l),
(447,1222,l),
(410,1305,l),
(691,1430,l)
);
}
);
width = 1381;
}
);
unicode = 185;
},
{
glyphname = ordmasculine;
layers = (
{
layerId = "0FD74DFA-4A91-4E89-B38F-D966F2F9984B";
shapes = (
{
closed = 1;
nodes = (
(396,1181,o),
(559,1335,o),
(691,1335,q),
(822,1335,o),
(985,1181,o),
(985,1057,q),
(985,932,o),
(822,780,o),
(691,780,q),
(559,780,o),
(396,932,o),
(396,1057,q)
);
},
{
closed = 1;
nodes = (
(488,971,o),
(601,863,o),
(691,863,q),
(780,863,o),
(893,971,o),
(893,1059,q),
(893,1144,o),
(780,1252,o),
(691,1252,q),
(601,1252,o),
(488,1144,o),
(488,1059,q)
);
},
{
closed = 1;
nodes = (
(971,612,l),
(410,612,l),
(410,695,l),
(971,695,l)
);
}
);
width = 1381;
}
);
unicode = 186;
},
{
glyphname = guillemotright;
layers = (
{
layerId = "0FD74DFA-4A91-4E89-B38F-D966F2F9984B";
shapes = (
{
closed = 1;
nodes = (
(364,115,l),
(115,115,l),
(428,619,l),
(115,1121,l),
(364,1121,l),
(677,619,l)
);
},
{
closed = 1;
nodes = (
(801,115,l),
(552,115,l),
(861,619,l),
(552,1121,l),
(801,1121,l),
(1112,619,l)
);
}
);
width = 1227;
}
);
unicode = 187;
},
{
glyphname = onequarter;
layers = (
{
layerId = "0FD74DFA-4A91-4E89-B38F-D966F2F9984B";
shapes = (
{
closed = 1;
nodes = (
(1354,106,l),
(1354,21,l),
(1232,21,l),
(1232,-94,l),
(1354,-94,l),
(1354,-177,l),
(990,-177,l),
(990,-94,l),
(1144,-94,l),
(1144,21,l),
(778,21,l),
(778,113,l),
(1121,681,l),
(1232,681,l),
(1232,106,l)
);
},
{
closed = 1;
nodes = (
(1139,555,l),
(875,106,l),
(1144,106,l),
(1144,555,l)
);
},
{
closed = 1;
nodes = (
(352,1432,l),
(352,661,l),
(527,661,l),
(527,573,l),
(87,573,l),
(87,661,l),
(265,661,l),
(265,1324,l),
(97,1255,l),
(60,1333,l),
(297,1432,l)
);
},
{
closed = 1;
nodes = (
(203,-207,l),
(138,-157,l),
(1312,1457,l),
(1377,1411,l)
);
}
);
width = 1381;
}
);
unicode = 188;
},
{
glyphname = onehalf;
layers = (
{
layerId = "0FD74DFA-4A91-4E89-B38F-D966F2F9984B";
shapes = (
{
closed = 1;
nodes = (
(336,1432,l),
(336,661,l),
(511,661,l),
(511,573,l),
(71,573,l),
(71,661,l),
(249,661,l),
(249,1324,l),
(81,1255,l),
(44,1333,l),
(283,1432,l)
);
},
{
closed = 1;
nodes = (
(173,-207,l),
(108,-157,l),
(1280,1457,l),
(1347,1411,l)
);
},
{
closed = 1;
nodes = (
(1358,-177,l),
(831,-177,l),
(831,-87,l),
(838,-81,o),
(840,-78,o),
(859,-64,o),
(907,-21,o),
(962,30,q),
(1020,85,o),
(1103,163,o),
(1160,219,o),
(1199,258,o),
(1218,279,q),
(1250,318,o),
(1271,382,o),
(1271,421,q),
(1271,495,o),
(1172,592,o),
(1096,592,q),
(1036,592,o),
(941,525,o),
(941,479,q),
(941,474,o),
(944,463,o),
(944,451,q),
(856,451,l),
(856,555,l),
(955,679,o),
(1100,679,q),
(1156,679,o),
(1252,640,o),
(1321,571,o),
(1360,477,o),
(1360,421,q),
(1360,341,o),
(1266,189,o),
(1142,78,q),
(999,-48,l),
(955,-90,l),
(1280,-90,l),
(1280,41,l),
(1358,41,l)
);
}
);
width = 1381;
}
);
unicode = 189;
},
{
glyphname = threequarters;
layers = (
{
layerId = "0FD74DFA-4A91-4E89-B38F-D966F2F9984B";
shapes = (
{
closed = 1;
nodes = (
(1156,555,l),
(891,106,l),
(1160,106,l),
(1160,555,l)
);
},
{
closed = 1;
nodes = (
(1370,106,l),
(1370,21,l),
(1248,21,l),
(1248,-94,l),
(1370,-94,l),
(1370,-177,l),
(1006,-177,l),
(1006,-94,l),
(1160,-94,l),
(1160,21,l),
(794,21,l),
(794,113,l),
(1137,681,l),
(1248,681,l),
(1248,106,l)
);
},
{
closed = 1;
nodes = (
(67,1337,l),
(150,1390,o),
(256,1432,o),
(313,1432,q),
(364,1432,o),
(453,1397,o),
(520,1340,o),
(557,1259,o),
(557,1213,q),
(557,1156,o),
(513,1070,o),
(465,1031,q),
(599,955,o),
(599,815,q),
(599,697,o),
(437,555,o),
(313,555,q),
(288,555,o),
(244,559,o),
(193,573,o),
(134,594,o),
(92,610,q),
(51,626,l),
(85,707,l),
(163,670,o),
(267,642,o),
(318,642,q),
(401,642,o),
(506,737,o),
(506,815,q),
(506,893,o),
(410,983,o),
(313,978,q),
(262,976,l),
(262,1061,l),
(322,1064,o),
(380,1075,o),
(405,1093,q),
(465,1135,o),
(465,1211,q),
(465,1271,o),
(380,1344,o),
(313,1344,q),
(274,1344,o),
(200,1317,o),
(145,1284,q),
(110,1264,l)
);
},
{
closed = 1;
nodes = (
(219,-207,l),
(154,-157,l),
(1328,1457,l),
(1393,1411,l)
);
}
);
width = 1381;
}
);
unicode = 190;
},
{
glyphname = questiondown;
layers = (
{
layerId = "0FD74DFA-4A91-4E89-B38F-D966F2F9984B";
shapes = (
{
closed = 1;
nodes = (
(1091,-242,l),
(1031,-262,o),
(937,-292,o),
(852,-313,o),
(767,-322,o),
(718,-322,q),
(608,-322,o),
(442,-258,o),
(331,-154,o),
(276,-18,o),
(276,55,q),
(276,157,o),
(364,292,o),
(490,380,o),
(635,430,o),
(693,447,q),
(693,585,l),
(806,585,l),
(806,361,l),
(801,359,o),
(771,352,o),
(760,350,q),
(702,336,o),
(573,297,o),
(467,230,o),
(396,127,o),
(396,48,q),
(396,14,o),
(424,-76,o),
(495,-157,o),
(619,-209,o),
(716,-209,q),
(801,-209,o),
(918,-177,o),
(976,-154,q),
(976,-7,l),
(1091,-7,l)
);
},
{
closed = 1;
nodes = (
(691,753,o),
(599,833,o),
(599,893,q),
(599,955,o),
(693,1036,o),
(757,1036,q),
(822,1036,o),
(916,955,o),
(916,893,q),
(916,833,o),
(824,753,o),
(757,753,q)
);
}
);
width = 1381;
}
);
unicode = 191;
},
{
glyphname = Agrave;
layers = (
{
layerId = "0FD74DFA-4A91-4E89-B38F-D966F2F9984B";
shapes = (
{
closed = 1;
nodes = (
(1241,108,l),
(1358,108,l),
(1358,0,l),
(886,0,l),
(886,108,l),
(1121,108,l),
(990,428,l),
(389,428,l),
(260,108,l),
(495,108,l),
(495,0,l),
(23,0,l),
(23,108,l),
(145,108,l),
(589,1188,l),
(260,1188,l),
(260,1296,l),
(755,1296,l)
);
},
{
closed = 1;
nodes = (
(430,529,l),
(951,529,l),
(691,1160,l)
);
},
{
closed = 1;
nodes = (
(861,1464,l),
(741,1464,l),
(437,1729,l),
(684,1729,l)
);
}
);
width = 1381;
}
);
unicode = 192;
},
{
glyphname = Aacute;
layers = (
{
layerId = "0FD74DFA-4A91-4E89-B38F-D966F2F9984B";
shapes = (
{
closed = 1;
nodes = (
(1241,108,l),
(1358,108,l),
(1358,0,l),
(886,0,l),
(886,108,l),
(1121,108,l),
(990,428,l),
(389,428,l),
(260,108,l),
(495,108,l),
(495,0,l),
(23,0,l),
(23,108,l),
(145,108,l),
(589,1188,l),
(260,1188,l),
(260,1296,l),
(755,1296,l)
);
},
{
closed = 1;
nodes = (
(430,529,l),
(951,529,l),
(691,1160,l)
);
},
{
closed = 1;
nodes = (
(495,1464,l),
(700,1729,l),
(946,1729,l),
(617,1464,l)
);
}
);
width = 1381;
}
);
unicode = 193;
},
{
glyphname = Acircumflex;
layers = (
{
layerId = "0FD74DFA-4A91-4E89-B38F-D966F2F9984B";
shapes = (
{
closed = 1;
nodes = (
(1241,108,l),
(1358,108,l),
(1358,0,l),
(886,0,l),
(886,108,l),
(1121,108,l),
(990,428,l),
(389,428,l),
(260,108,l),
(495,108,l),
(495,0,l),
(23,0,l),
(23,108,l),
(145,108,l),
(589,1188,l),
(260,1188,l),
(260,1296,l),
(755,1296,l)
);
},
{
closed = 1;
nodes = (
(430,529,l),
(951,529,l),
(691,1160,l)
);
},
{
closed = 1;
nodes = (
(985,1519,l),
(912,1462,l),
(679,1614,l),
(470,1462,l),
(394,1517,l),
(596,1736,l),
(773,1736,l)
);
}
);
width = 1381;
}
);
unicode = 194;
},
{
glyphname = Atilde;
layers = (
{
layerId = "0FD74DFA-4A91-4E89-B38F-D966F2F9984B";
shapes = (
{
closed = 1;
nodes = (
(1241,108,l),
(1358,108,l),
(1358,0,l),
(886,0,l),
(886,108,l),
(1121,108,l),
(990,428,l),
(389,428,l),
(260,108,l),
(495,108,l),
(495,0,l),
(23,0,l),
(23,108,l),
(145,108,l),
(589,1188,l),
(260,1188,l),
(260,1296,l),
(755,1296,l)
);
},
{
closed = 1;
nodes = (
(430,529,l),
(951,529,l),
(691,1160,l)
);
},
{
closed = 1;
nodes = (
(1059,1701,l),
(1054,1697,o),
(1054,1685,q),
(1027,1588,o),
(902,1489,o),
(829,1489,q),
(790,1489,o),
(718,1522,o),
(665,1563,q),
(610,1604,o),
(564,1630,o),
(539,1630,q),
(493,1630,o),
(437,1556,o),
(419,1510,q),
(419,1508,o),
(417,1501,q),
(414,1496,l),
(322,1529,l),
(355,1616,o),
(453,1733,o),
(539,1733,q),
(594,1733,o),
(672,1687,o),
(709,1655,q),
(753,1623,o),
(810,1593,o),
(836,1593,q),
(866,1593,o),
(909,1623,o),
(939,1667,o),
(960,1713,o),
(967,1731,q)
);
}
);
width = 1381;
}
);
unicode = 195;
},
{
glyphname = Adieresis;
layers = (
{
layerId = "0FD74DFA-4A91-4E89-B38F-D966F2F9984B";
shapes = (
{
closed = 1;
nodes = (
(1241,108,l),
(1358,108,l),
(1358,0,l),
(886,0,l),
(886,108,l),
(1121,108,l),
(990,428,l),
(389,428,l),
(260,108,l),
(495,108,l),
(495,0,l),
(23,0,l),
(23,108,l),
(145,108,l),
(589,1188,l),
(260,1188,l),
(260,1296,l),
(755,1296,l)
);
},
{
closed = 1;
nodes = (
(430,529,l),
(951,529,l),
(691,1160,l)
);
},
{
closed = 1;
nodes = (
(624,1736,l),
(624,1487,l),
(458,1487,l),
(458,1736,l)
);
},
{
closed = 1;
nodes = (
(923,1736,l),
(923,1487,l),
(757,1487,l),
(757,1736,l)
);
}
);
width = 1381;
}
);
unicode = 196;
},
{
glyphname = Aring;
layers = (
{
layerId = "0FD74DFA-4A91-4E89-B38F-D966F2F9984B";
shapes = (
{
closed = 1;
nodes = (
(1241,108,l),
(1358,108,l),
(1358,0,l),
(886,0,l),
(886,108,l),
(1121,108,l),
(990,428,l),
(389,428,l),
(260,108,l),
(495,108,l),
(495,0,l),
(23,0,l),
(23,108,l),
(145,108,l),
(589,1188,l),
(260,1188,l),
(260,1296,l),
(755,1296,l)
);
},
{
closed = 1;
nodes = (
(430,529,l),
(951,529,l),
(691,1160,l)
);
},
{
closed = 1;
nodes = (
(764,1784,o),
(866,1683,o),
(866,1609,q),
(866,1535,o),
(764,1434,o),
(691,1434,q),
(617,1434,o),
(516,1535,o),
(516,1609,q),
(516,1683,o),
(617,1784,o),
(691,1784,q)
);
},
{
closed = 1;
nodes = (
(656,1697,o),
(603,1651,o),
(603,1609,q),
(603,1572,o),
(656,1522,o),
(693,1522,q),
(730,1522,o),
(778,1572,o),
(778,1609,q),
(778,1646,o),
(730,1697,o),
(693,1697,q)
);
}
);
width = 1381;
}
);
unicode = 197;
},
{
glyphname = AE;
layers = (
{
layerId = "0FD74DFA-4A91-4E89-B38F-D966F2F9984B";
shapes = (
{
closed = 1;
nodes = (
(1264,882,l),
(1160,882,l),
(1139,1188,l),
(810,1188,l),
(810,741,l),
(960,741,l),
(960,909,l),
(1066,909,l),
(1066,465,l),
(960,465,l),
(960,633,l),
(810,633,l),
(810,108,l),
(1160,108,l),
(1174,428,l),
(1280,428,l),
(1280,0,l),
(695,0,l),
(695,424,l),
(412,424,l),
(281,108,l),
(486,108,l),
(486,0,l),
(44,0,l),
(44,108,l),
(166,108,l),
(601,1188,l),
(364,1188,l),
(364,1296,l),
(1264,1296,l)
);
},
{
closed = 1;
nodes = (
(691,1160,l),
(451,532,l),
(695,532,l),
(695,1160,l)
);
}
);
width = 1381;
}
);
unicode = 198;
},
{
glyphname = Ccedilla;
layers = (
{
layerId = "0FD74DFA-4A91-4E89-B38F-D966F2F9984B";
shapes = (
{
closed = 1;
nodes = (
(815,-58,l),
(838,-58,o),
(893,-76,o),
(941,-113,o),
(976,-166,o),
(976,-200,q),
(976,-209,o),
(967,-253,o),
(932,-299,o),
(856,-334,o),
(792,-334,q),
(707,-334,o),
(571,-306,o),
(539,-299,q),
(555,-198,l),
(601,-209,o),
(716,-230,o),
(794,-230,q),
(810,-230,l),
(829,-230,o),
(868,-216,o),
(868,-200,q),
(868,-168,o),
(769,-147,o),
(702,-143,q),
(716,-39,l),
(552,-23,o),
(334,124,o),
(203,329,o),
(147,562,o),
(147,663,q),
(147,813,o),
(242,1061,o),
(407,1238,o),
(633,1335,o),
(764,1335,q),
(801,1335,o),
(944,1314,o),
(1017,1268,q),
(1022,1264,o),
(1045,1245,o),
(1070,1225,o),
(1093,1211,o),
(1098,1211,q),
(1105,1211,o),
(1116,1234,o),
(1123,1268,o),
(1130,1305,o),
(1133,1321,q),
(1218,1321,l),
(1213,1176,o),
(1229,974,o),
(1241,882,q),
(1133,863,l),
(1126,902,o),
(1096,1024,o),
(1020,1137,o),
(879,1220,o),
(760,1220,q),
(672,1220,o),
(500,1153,o),
(359,1017,o),
(272,808,o),
(272,665,q),
(272,555,o),
(327,343,o),
(449,177,o),
(638,76,o),
(769,76,q),
(866,76,o),
(1031,129,o),
(1162,205,o),
(1259,285,o),
(1291,311,q),
(1367,228,l),
(1250,117,o),
(974,-25,o),
(815,-39,q)
);
}
);
width = 1381;
}
);
unicode = 199;
},
{
glyphname = Egrave;
layers = (
{
layerId = "0FD74DFA-4A91-4E89-B38F-D966F2F9984B";
shapes = (
{
closed = 1;
nodes = (
(1234,872,l),
(1128,872,l),
(1105,1188,l),
(442,1188,l),
(442,739,l),
(815,739,l),
(815,907,l),
(921,907,l),
(921,465,l),
(815,465,l),
(815,631,l),
(442,631,l),
(442,108,l),
(1128,108,l),
(1139,424,l),
(1245,424,l),
(1245,0,l),
(131,0,l),
(131,108,l),
(327,108,l),
(327,1188,l),
(131,1188,l),
(131,1296,l),
(1225,1296,l)
);
},
{
closed = 1;
nodes = (
(861,1464,l),
(741,1464,l),
(437,1729,l),
(684,1729,l)
);
}
);
width = 1381;
}
);
unicode = 200;
},
{
glyphname = Eacute;
layers = (
{
layerId = "0FD74DFA-4A91-4E89-B38F-D966F2F9984B";
shapes = (
{
closed = 1;
nodes = (
(1234,872,l),
(1128,872,l),
(1105,1188,l),
(442,1188,l),
(442,739,l),
(815,739,l),
(815,907,l),
(921,907,l),
(921,465,l),
(815,465,l),
(815,631,l),
(442,631,l),
(442,108,l),
(1128,108,l),
(1139,424,l),
(1245,424,l),
(1245,0,l),
(131,0,l),
(131,108,l),
(327,108,l),
(327,1188,l),
(131,1188,l),
(131,1296,l),
(1225,1296,l)
);
},
{
closed = 1;
nodes = (
(495,1464,l),
(700,1729,l),
(946,1729,l),
(617,1464,l)
);
}
);
width = 1381;
}
);
unicode = 201;
},
{
glyphname = Ecircumflex;
layers = (
{
layerId = "0FD74DFA-4A91-4E89-B38F-D966F2F9984B";
shapes = (
{
closed = 1;
nodes = (
(1234,872,l),
(1128,872,l),
(1105,1188,l),
(442,1188,l),
(442,739,l),
(815,739,l),
(815,907,l),
(921,907,l),
(921,465,l),
(815,465,l),
(815,631,l),
(442,631,l),
(442,108,l),
(1128,108,l),
(1139,424,l),
(1245,424,l),
(1245,0,l),
(131,0,l),
(131,108,l),
(327,108,l),
(327,1188,l),
(131,1188,l),
(131,1296,l),
(1225,1296,l)
);
},
{
closed = 1;
nodes = (
(985,1519,l),
(912,1462,l),
(679,1614,l),
(470,1462,l),
(394,1517,l),
(596,1736,l),
(773,1736,l)
);
}
);
width = 1381;
}
);
unicode = 202;
},
{
glyphname = Edieresis;
layers = (
{
layerId = "0FD74DFA-4A91-4E89-B38F-D966F2F9984B";
shapes = (
{
closed = 1;
nodes = (
(1234,872,l),
(1128,872,l),
(1105,1188,l),
(442,1188,l),
(442,739,l),
(815,739,l),
(815,907,l),
(921,907,l),
(921,465,l),
(815,465,l),
(815,631,l),
(442,631,l),
(442,108,l),
(1128,108,l),
(1139,424,l),
(1245,424,l),
(1245,0,l),
(131,0,l),
(131,108,l),
(327,108,l),
(327,1188,l),
(131,1188,l),
(131,1296,l),
(1225,1296,l)
);
},
{
closed = 1;
nodes = (
(624,1736,l),
(624,1487,l),
(458,1487,l),
(458,1736,l)
);
},
{
closed = 1;
nodes = (
(923,1736,l),
(923,1487,l),
(757,1487,l),
(757,1736,l)
);
}
);
width = 1381;
}
);
unicode = 203;
},
{
glyphname = Igrave;
layers = (
{
layerId = "0FD74DFA-4A91-4E89-B38F-D966F2F9984B";
shapes = (
{
closed = 1;
nodes = (
(1151,1188,l),
(748,1188,l),
(748,108,l),
(1151,108,l),
(1151,0,l),
(230,0,l),
(230,108,l),
(633,108,l),
(633,1188,l),
(230,1188,l),
(230,1296,l),
(1151,1296,l)
);
},
{
closed = 1;
nodes = (
(861,1464,l),
(741,1464,l),
(437,1729,l),
(684,1729,l)
);
}
);
width = 1381;
}
);
unicode = 204;
},
{
glyphname = Iacute;
layers = (
{
layerId = "0FD74DFA-4A91-4E89-B38F-D966F2F9984B";
shapes = (
{
closed = 1;
nodes = (
(1151,1188,l),
(748,1188,l),
(748,108,l),
(1151,108,l),
(1151,0,l),
(230,0,l),
(230,108,l),
(633,108,l),
(633,1188,l),
(230,1188,l),
(230,1296,l),
(1151,1296,l)
);
},
{
closed = 1;
nodes = (
(495,1464,l),
(700,1729,l),
(946,1729,l),
(617,1464,l)
);
}
);
width = 1381;
}
);
unicode = 205;
},
{
glyphname = Icircumflex;
layers = (
{
layerId = "0FD74DFA-4A91-4E89-B38F-D966F2F9984B";
shapes = (
{
closed = 1;
nodes = (
(1151,1188,l),
(748,1188,l),
(748,108,l),
(1151,108,l),
(1151,0,l),
(230,0,l),
(230,108,l),
(633,108,l),
(633,1188,l),
(230,1188,l),
(230,1296,l),
(1151,1296,l)
);
},
{
closed = 1;
nodes = (
(985,1519,l),
(912,1462,l),
(679,1614,l),
(470,1462,l),
(394,1517,l),
(596,1736,l),
(773,1736,l)
);
}
);
width = 1381;
}
);
unicode = 206;
},
{
glyphname = Idieresis;
layers = (
{
layerId = "0FD74DFA-4A91-4E89-B38F-D966F2F9984B";
shapes = (
{
closed = 1;
nodes = (
(1151,1188,l),
(748,1188,l),
(748,108,l),
(1151,108,l),
(1151,0,l),
(230,0,l),
(230,108,l),
(633,108,l),
(633,1188,l),
(230,1188,l),
(230,1296,l),
(1151,1296,l)
);
},
{
closed = 1;
nodes = (
(624,1736,l),
(624,1487,l),
(458,1487,l),
(458,1736,l)
);
},
{
closed = 1;
nodes = (
(923,1736,l),
(923,1487,l),
(757,1487,l),
(757,1736,l)
);
}
);
width = 1381;
}
);
unicode = 207;
},
{
glyphname = Eth;
layers = (
{
layerId = "0FD74DFA-4A91-4E89-B38F-D966F2F9984B";
shapes = (
{
closed = 1;
nodes = (
(78,739,l),
(260,739,l),
(260,1188,l),
(78,1188,l),
(78,1296,l),
(654,1296,l),
(730,1296,o),
(861,1284,o),
(974,1250,o),
(1077,1181,o),
(1126,1123,q),
(1176,1061,o),
(1234,928,o),
(1261,803,o),
(1268,702,o),
(1268,672,q),
(1268,569,o),
(1236,401,o),
(1183,269,o),
(1114,168,o),
(1077,134,q),
(1024,83,o),
(900,30,o),
(780,5,o),
(677,0,o),
(645,0,q),
(78,0,l),
(78,108,l),
(260,108,l),
(260,631,l),
(78,631,l)
);
},
{
closed = 1;
nodes = (
(375,108,l),
(645,108,l),
(674,108,o),
(757,110,o),
(852,131,o),
(948,175,o),
(990,216,q),
(1052,279,o),
(1144,506,o),
(1144,665,q),
(1142,773,o),
(1103,925,o),
(1047,1031,o),
(985,1096,o),
(960,1116,q),
(900,1162,o),
(755,1188,o),
(656,1188,q),
(375,1188,l),
(375,739,l),
(757,739,l),
(757,631,l),
(375,631,l)
);
}
);
width = 1381;
}
);
unicode = 208;
},
{
glyphname = Ntilde;
layers = (
{
layerId = "0FD74DFA-4A91-4E89-B38F-D966F2F9984B";
shapes = (
{
closed = 1;
nodes = (
(1064,97,l),
(1105,97,l),
(1105,1188,l),
(847,1188,l),
(847,1296,l),
(1360,1296,l),
(1360,1188,l),
(1211,1188,l),
(1211,-30,l),
(1006,-30,l),
(389,1188,l),
(350,1188,l),
(350,108,l),
(610,108,l),
(610,0,l),
(64,0,l),
(64,108,l),
(244,108,l),
(244,1188,l),
(64,1188,l),
(64,1296,l),
(458,1296,l)
);
},
{
closed = 1;
nodes = (
(1059,1701,l),
(1054,1697,o),
(1054,1685,q),
(1027,1588,o),
(902,1489,o),
(829,1489,q),
(790,1489,o),
(718,1522,o),
(665,1563,q),
(610,1604,o),
(564,1630,o),
(539,1630,q),
(493,1630,o),
(437,1556,o),
(419,1510,q),
(419,1508,o),
(417,1501,q),
(414,1496,l),
(322,1529,l),
(355,1616,o),
(453,1733,o),
(539,1733,q),
(594,1733,o),
(672,1687,o),
(709,1655,q),
(753,1623,o),
(810,1593,o),
(836,1593,q),
(866,1593,o),
(909,1623,o),
(939,1667,o),
(960,1713,o),
(967,1731,q)
);
}
);
width = 1381;
}
);
unicode = 209;
},
{
glyphname = Ograve;
layers = (
{
layerId = "0FD74DFA-4A91-4E89-B38F-D966F2F9984B";
shapes = (
{
closed = 1;
nodes = (
(99,790,o),
(182,1040,o),
(336,1227,o),
(555,1335,o),
(691,1335,q),
(829,1335,o),
(1047,1225,o),
(1202,1036,o),
(1282,787,o),
(1282,647,q),
(1282,509,o),
(1199,258,o),
(1047,71,o),
(829,-39,o),
(691,-39,q),
(555,-39,o),
(336,69,o),
(182,256,o),
(99,504,o),
(99,647,q)
);
},
{
closed = 1;
nodes = (
(223,546,o),
(283,341,o),
(401,177,o),
(575,76,o),
(691,76,q),
(803,76,o),
(978,175,o),
(1098,336,o),
(1158,541,o),
(1158,649,q),
(1158,757,o),
(1096,965,o),
(976,1123,o),
(803,1220,o),
(691,1220,q),
(571,1220,o),
(396,1116,o),
(281,953,o),
(223,748,o),
(223,649,q)
);
},
{
closed = 1;
nodes = (
(861,1464,l),
(741,1464,l),
(437,1729,l),
(684,1729,l)
);
}
);
width = 1381;
}
);
unicode = 210;
},
{
glyphname = Oacute;
layers = (
{
layerId = "0FD74DFA-4A91-4E89-B38F-D966F2F9984B";
shapes = (
{
closed = 1;
nodes = (
(99,790,o),
(182,1040,o),
(336,1227,o),
(555,1335,o),
(691,1335,q),
(829,1335,o),
(1047,1225,o),
(1202,1036,o),
(1282,787,o),
(1282,647,q),
(1282,509,o),
(1199,258,o),
(1047,71,o),
(829,-39,o),
(691,-39,q),
(555,-39,o),
(336,69,o),
(182,256,o),
(99,504,o),
(99,647,q)
);
},
{
closed = 1;
nodes = (
(223,546,o),
(283,341,o),
(401,177,o),
(575,76,o),
(691,76,q),
(803,76,o),
(978,175,o),
(1098,336,o),
(1158,541,o),
(1158,649,q),
(1158,757,o),
(1096,965,o),
(976,1123,o),
(803,1220,o),
(691,1220,q),
(571,1220,o),
(396,1116,o),
(281,953,o),
(223,748,o),
(223,649,q)
);
},
{
closed = 1;
nodes = (
(495,1464,l),
(700,1729,l),
(946,1729,l),
(617,1464,l)
);
}
);
width = 1381;
}
);
unicode = 211;
},
{
glyphname = Ocircumflex;
layers = (
{
layerId = "0FD74DFA-4A91-4E89-B38F-D966F2F9984B";
shapes = (
{
closed = 1;
nodes = (
(99,790,o),
(182,1040,o),
(336,1227,o),
(555,1335,o),
(691,1335,q),
(829,1335,o),
(1047,1225,o),
(1202,1036,o),
(1282,787,o),
(1282,647,q),
(1282,509,o),
(1199,258,o),
(1047,71,o),
(829,-39,o),
(691,-39,q),
(555,-39,o),
(336,69,o),
(182,256,o),
(99,504,o),
(99,647,q)
);
},
{
closed = 1;
nodes = (
(223,546,o),
(283,341,o),
(401,177,o),
(575,76,o),
(691,76,q),
(803,76,o),
(978,175,o),
(1098,336,o),
(1158,541,o),
(1158,649,q),
(1158,757,o),
(1096,965,o),
(976,1123,o),
(803,1220,o),
(691,1220,q),
(571,1220,o),
(396,1116,o),
(281,953,o),
(223,748,o),
(223,649,q)
);
},
{
closed = 1;
nodes = (
(985,1519,l),
(912,1462,l),
(679,1614,l),
(470,1462,l),
(394,1517,l),
(596,1736,l),
(773,1736,l)
);
}
);
width = 1381;
}
);
unicode = 212;
},
{
glyphname = Otilde;
layers = (
{
layerId = "0FD74DFA-4A91-4E89-B38F-D966F2F9984B";
shapes = (
{
closed = 1;
nodes = (
(99,790,o),
(182,1040,o),
(336,1227,o),
(555,1335,o),
(691,1335,q),
(829,1335,o),
(1047,1225,o),
(1202,1036,o),
(1282,787,o),
(1282,647,q),
(1282,509,o),
(1199,258,o),
(1047,71,o),
(829,-39,o),
(691,-39,q),
(555,-39,o),
(336,69,o),
(182,256,o),
(99,504,o),
(99,647,q)
);
},
{
closed = 1;
nodes = (
(223,546,o),
(283,341,o),
(401,177,o),
(575,76,o),
(691,76,q),
(803,76,o),
(978,175,o),
(1098,336,o),
(1158,541,o),
(1158,649,q),
(1158,757,o),
(1096,965,o),
(976,1123,o),
(803,1220,o),
(691,1220,q),
(571,1220,o),
(396,1116,o),
(281,953,o),
(223,748,o),
(223,649,q)
);
},
{
closed = 1;
nodes = (
(1059,1701,l),
(1054,1697,o),
(1054,1685,q),
(1027,1588,o),
(902,1489,o),
(829,1489,q),
(790,1489,o),
(718,1522,o),
(665,1563,q),
(610,1604,o),
(564,1630,o),
(539,1630,q),
(493,1630,o),
(437,1556,o),
(419,1510,q),
(419,1508,o),
(417,1501,q),
(414,1496,l),
(322,1529,l),
(355,1616,o),
(453,1733,o),
(539,1733,q),
(594,1733,o),
(672,1687,o),
(709,1655,q),
(753,1623,o),
(810,1593,o),
(836,1593,q),
(866,1593,o),
(909,1623,o),
(939,1667,o),
(960,1713,o),
(967,1731,q)
);
}
);
width = 1381;
}
);
unicode = 213;
},
{
glyphname = Odieresis;
layers = (
{
layerId = "0FD74DFA-4A91-4E89-B38F-D966F2F9984B";
shapes = (
{
closed = 1;
nodes = (
(99,790,o),
(182,1040,o),
(336,1227,o),
(555,1335,o),
(691,1335,q),
(829,1335,o),
(1047,1225,o),
(1202,1036,o),
(1282,787,o),
(1282,647,q),
(1282,509,o),
(1199,258,o),
(1047,71,o),
(829,-39,o),
(691,-39,q),
(555,-39,o),
(336,69,o),
(182,256,o),
(99,504,o),
(99,647,q)
);
},
{
closed = 1;
nodes = (
(223,546,o),
(283,341,o),
(401,177,o),
(575,76,o),
(691,76,q),
(803,76,o),
(978,175,o),
(1098,336,o),
(1158,541,o),
(1158,649,q),
(1158,757,o),
(1096,965,o),
(976,1123,o),
(803,1220,o),
(691,1220,q),
(571,1220,o),
(396,1116,o),
(281,953,o),
(223,748,o),
(223,649,q)
);
},
{
closed = 1;
nodes = (
(624,1736,l),
(624,1487,l),
(458,1487,l),
(458,1736,l)
);
},
{
closed = 1;
nodes = (
(923,1736,l),
(923,1487,l),
(757,1487,l),
(757,1736,l)
);
}
);
width = 1381;
}
);
unicode = 214;
},
{
glyphname = multiply;
layers = (
{
layerId = "0FD74DFA-4A91-4E89-B38F-D966F2F9984B";
shapes = (
{
closed = 1;
nodes = (
(355,1123,l),
(691,787,l),
(1027,1123,l),
(1110,1043,l),
(771,704,l),
(1110,368,l),
(1027,285,l),
(691,624,l),
(355,285,l),
(272,368,l),
(610,704,l),
(272,1043,l)
);
}
);
width = 1381;
}
);
unicode = 215;
},
{
glyphname = Oslash;
layers = (
{
layerId = "0FD74DFA-4A91-4E89-B38F-D966F2F9984B";
shapes = (
{
closed = 1;
nodes = (
(147,9,l),
(262,159,l),
(232,198,o),
(173,292,o),
(127,410,o),
(99,555,o),
(99,645,q),
(99,787,o),
(182,1038,o),
(336,1227,o),
(555,1335,o),
(693,1335,q),
(771,1335,o),
(889,1305,o),
(976,1261,o),
(1040,1211,o),
(1066,1192,q),
(1156,1305,l),
(1236,1245,l),
(1135,1116,l),
(1190,1050,o),
(1250,898,o),
(1278,760,o),
(1282,658,o),
(1282,642,q),
(1282,506,o),
(1202,258,o),
(1050,71,o),
(833,-39,o),
(700,-39,q),
(631,-39,o),
(444,2,o),
(341,85,q),
(226,-53,l)
);
},
{
closed = 1;
nodes = (
(407,180,l),
(424,166,o),
(472,131,o),
(541,99,o),
(631,76,o),
(691,76,q),
(796,76,o),
(969,166,o),
(1091,320,o),
(1158,527,o),
(1158,645,q),
(1158,845,o),
(1057,1015,q)
);
},
{
closed = 1;
nodes = (
(992,1098,l),
(958,1137,o),
(877,1186,o),
(796,1211,o),
(718,1220,o),
(688,1220,q),
(578,1220,o),
(405,1123,o),
(285,965,o),
(223,760,o),
(223,651,q),
(223,619,o),
(232,520,o),
(260,410,o),
(306,299,o),
(341,258,q)
);
}
);
width = 1381;
}
);
unicode = 216;
},
{
glyphname = Ugrave;
layers = (
{
layerId = "0FD74DFA-4A91-4E89-B38F-D966F2F9984B";
shapes = (
{
closed = 1;
nodes = (
(571,1188,l),
(336,1188,l),
(336,539,l),
(336,467,o),
(348,306,o),
(380,239,q),
(412,170,o),
(555,76,o),
(688,76,q),
(824,76,o),
(969,157,o),
(1001,221,q),
(1036,283,o),
(1047,437,o),
(1047,516,q),
(1047,1188,l),
(813,1188,l),
(813,1296,l),
(1328,1296,l),
(1328,1188,l),
(1162,1188,l),
(1162,516,l),
(1162,428,o),
(1151,306,o),
(1128,216,o),
(1098,154,o),
(1080,129,q),
(1061,101,o),
(992,44,o),
(893,-7,o),
(767,-39,o),
(691,-39,q),
(649,-39,o),
(546,-25,o),
(440,16,o),
(338,85,o),
(299,140,q),
(269,182,o),
(237,288,o),
(223,396,o),
(221,500,o),
(221,539,q),
(221,1188,l),
(55,1188,l),
(55,1296,l),
(571,1296,l)
);
},
{
closed = 1;
nodes = (
(861,1464,l),
(741,1464,l),
(437,1729,l),
(684,1729,l)
);
}
);
width = 1381;
}
);
unicode = 217;
},
{
glyphname = Uacute;
layers = (
{
layerId = "0FD74DFA-4A91-4E89-B38F-D966F2F9984B";
shapes = (
{
closed = 1;
nodes = (
(571,1188,l),
(336,1188,l),
(336,539,l),
(336,467,o),
(348,306,o),
(380,239,q),
(412,170,o),
(555,76,o),
(688,76,q),
(824,76,o),
(969,157,o),
(1001,221,q),
(1036,283,o),
(1047,437,o),
(1047,516,q),
(1047,1188,l),
(813,1188,l),
(813,1296,l),
(1328,1296,l),
(1328,1188,l),
(1162,1188,l),
(1162,516,l),
(1162,428,o),
(1151,306,o),
(1128,216,o),
(1098,154,o),
(1080,129,q),
(1061,101,o),
(992,44,o),
(893,-7,o),
(767,-39,o),
(691,-39,q),
(649,-39,o),
(546,-25,o),
(440,16,o),
(338,85,o),
(299,140,q),
(269,182,o),
(237,288,o),
(223,396,o),
(221,500,o),
(221,539,q),
(221,1188,l),
(55,1188,l),
(55,1296,l),
(571,1296,l)
);
},
{
closed = 1;
nodes = (
(495,1464,l),
(700,1729,l),
(946,1729,l),
(617,1464,l)
);
}
);
width = 1381;
}
);
unicode = 218;
},
{
glyphname = Ucircumflex;
layers = (
{
layerId = "0FD74DFA-4A91-4E89-B38F-D966F2F9984B";
shapes = (
{
closed = 1;
nodes = (
(571,1188,l),
(336,1188,l),
(336,539,l),
(336,467,o),
(348,306,o),
(380,239,q),
(412,170,o),
(555,76,o),
(688,76,q),
(824,76,o),
(969,157,o),
(1001,221,q),
(1036,283,o),
(1047,437,o),
(1047,516,q),
(1047,1188,l),
(813,1188,l),
(813,1296,l),
(1328,1296,l),
(1328,1188,l),
(1162,1188,l),
(1162,516,l),
(1162,428,o),
(1151,306,o),
(1128,216,o),
(1098,154,o),
(1080,129,q),
(1061,101,o),
(992,44,o),
(893,-7,o),
(767,-39,o),
(691,-39,q),
(649,-39,o),
(546,-25,o),
(440,16,o),
(338,85,o),
(299,140,q),
(269,182,o),
(237,288,o),
(223,396,o),
(221,500,o),
(221,539,q),
(221,1188,l),
(55,1188,l),
(55,1296,l),
(571,1296,l)
);
},
{
closed = 1;
nodes = (
(985,1519,l),
(912,1462,l),
(679,1614,l),
(470,1462,l),
(394,1517,l),
(596,1736,l),
(773,1736,l)
);
}
);
width = 1381;
}
);
unicode = 219;
},
{
glyphname = Udieresis;
layers = (
{
layerId = "0FD74DFA-4A91-4E89-B38F-D966F2F9984B";
shapes = (
{
closed = 1;
nodes = (
(571,1188,l),
(336,1188,l),
(336,539,l),
(336,467,o),
(348,306,o),
(380,239,q),
(412,170,o),
(555,76,o),
(688,76,q),
(824,76,o),
(969,157,o),
(1001,221,q),
(1036,283,o),
(1047,437,o),
(1047,516,q),
(1047,1188,l),
(813,1188,l),
(813,1296,l),
(1328,1296,l),
(1328,1188,l),
(1162,1188,l),
(1162,516,l),
(1162,428,o),
(1151,306,o),
(1128,216,o),
(1098,154,o),
(1080,129,q),
(1061,101,o),
(992,44,o),
(893,-7,o),
(767,-39,o),
(691,-39,q),
(649,-39,o),
(546,-25,o),
(440,16,o),
(338,85,o),
(299,140,q),
(269,182,o),
(237,288,o),
(223,396,o),
(221,500,o),
(221,539,q),
(221,1188,l),
(55,1188,l),
(55,1296,l),
(571,1296,l)
);
},
{
closed = 1;
nodes = (
(624,1736,l),
(624,1487,l),
(458,1487,l),
(458,1736,l)
);
},
{
closed = 1;
nodes = (
(923,1736,l),
(923,1487,l),
(757,1487,l),
(757,1736,l)
);
}
);
width = 1381;
}
);
unicode = 220;
},
{
glyphname = Yacute;
layers = (
{
layerId = "0FD74DFA-4A91-4E89-B38F-D966F2F9984B";
shapes = (
{
closed = 1;
nodes = (
(525,1188,l),
(350,1188,l),
(697,617,l),
(1040,1188,l),
(861,1188,l),
(861,1296,l),
(1308,1296,l),
(1308,1188,l),
(1162,1188,l),
(750,502,l),
(750,108,l),
(1022,108,l),
(1022,0,l),
(361,0,l),
(361,108,l),
(635,108,l),
(635,502,l),
(219,1188,l),
(74,1188,l),
(74,1296,l),
(525,1296,l)
);
},
{
closed = 1;
nodes = (
(495,1464,l),
(700,1729,l),
(946,1729,l),
(617,1464,l)
);
}
);
width = 1381;
}
);
unicode = 221;
},
{
glyphname = Thorn;
layers = (
{
layerId = "0FD74DFA-4A91-4E89-B38F-D966F2F9984B";
shapes = (
{
closed = 1;
nodes = (
(725.115,0,l),
(163.439,0,l),
(163.439,108.192,l),
(349.897,108.192,l),
(349.897,1187.81,l),
(163.439,1187.81,l),
(163.439,1296,l),
(725.115,1296,l),
(725.115,1187.81,l),
(464.994,1187.81,l),
(464.994,1070.41,l),
(591.602,1070.41,l),
(697.491,1070.41,o),
(842.514,1065.8,o),
(946.102,1049.69,o),
(1022.07,1022.07,o),
(1058.9,999.047,q),
(1132.56,953.008,o),
(1229.24,784.966,o),
(1229.24,679.076,q),
(1229.24,575.488,o),
(1132.56,393.634,o),
(1058.9,352.199,q),
(1017.46,326.877,o),
(939.196,299.254,o),
(835.609,285.442,o),
(695.19,283.14,o),
(591.602,283.14,q),
(464.994,283.14,l),
(464.994,108.192,l),
(725.115,108.192,l)
);
},
{
closed = 1;
nodes = (
(464.994,391.332,l),
(596.206,391.332,l),
(736.625,391.332,o),
(948.404,405.144,o),
(1008.25,453.485,q),
(1040.48,478.806,o),
(1104.94,589.3,o),
(1104.94,672.17,q),
(1104.94,766.55,o),
(1012.86,893.157,o),
(966.82,916.177,q),
(946.102,927.687,o),
(900.063,943.8,o),
(837.911,955.31,o),
(752.738,962.216,o),
(690.586,962.216,q),
(464.994,962.216,l)
);
}
);
width = 1381;
}
);
unicode = 222;
},
{
glyphname = germandbls;
layers = (
{
layerId = "0FD74DFA-4A91-4E89-B38F-D966F2F9984B";
shapes = (
{
closed = 1;
nodes = (
(324.575,1038.18,l),
(324.575,1130.26,o),
(386.728,1279.89,o),
(490.316,1383.47,o),
(623.829,1438.72,o),
(697.491,1438.72,q),
(773.456,1438.72,o),
(895.459,1385.78,o),
(978.33,1296,o),
(1024.37,1176.3,o),
(1024.37,1109.54,q),
(1024.37,1005.95,o),
(913.875,849.42,o),
(833.307,817.193,q),
(865.534,805.683,o),
(982.934,757.342,o),
(1095.73,658.358,o),
(1180.9,494.92,o),
(1180.9,370.614,q),
(1180.9,294.65,o),
(1132.56,154.231,o),
(1035.88,48.341,o),
(895.459,-16.114,o),
(803.381,-16.114,q),
(690.586,-16.114,o),
(566.28,41.435,o),
(538.657,59.851,q),
(538.657,179.552,l),
(580.092,154.231,o),
(709.001,98.984,o),
(801.079,98.984,q),
(842.514,98.984,o),
(932.291,128.909,o),
(1008.25,195.666,o),
(1056.6,303.858,o),
(1056.6,382.124,q),
(1056.6,734.323,o),
(591.602,750.436,q),
(591.602,856.326,l),
(614.621,858.628,o),
(718.209,872.44,o),
(824.099,923.083,o),
(904.667,1019.76,o),
(904.667,1107.24,q),
(904.667,1199.32,o),
(798.777,1323.62,o),
(692.888,1323.62,q),
(649.15,1323.62,o),
(559.374,1293.7,o),
(485.712,1224.64,o),
(439.673,1107.24,o),
(439.673,1019.76,q),
(439.673,0,l),
(149.627,0,l),
(149.627,108.192,l),
(324.575,108.192,l)
);
}
);
width = 1381;
}
);
unicode = 223;
},
{
glyphname = agrave;
layers = (
{
layerId = "0FD74DFA-4A91-4E89-B38F-D966F2F9984B";
shapes = (
{
closed = 1;
nodes = (
(1266.07,108.192,l),
(1266.07,0,l),
(946.102,0,l),
(946.102,165.741,l),
(911.573,133.513,o),
(817.193,62.153,o),
(706.699,4.604,o),
(577.79,-32.227,o),
(506.429,-32.227,q),
(418.955,-32.227,o),
(283.14,25.322,o),
(186.458,117.4,o),
(135.815,232.497,o),
(135.815,292.348,q),
(135.815,338.387,o),
(181.854,458.088,o),
(292.348,566.28,o),
(481.108,639.943,o),
(623.829,639.943,q),
(630.735,639.943,o),
(695.19,637.641,o),
(784.966,630.735,o),
(893.157,619.225,o),
(946.102,610.017,q),
(946.102,681.378,l),
(946.102,709.001,o),
(936.894,791.871,o),
(886.252,870.138,o),
(771.154,925.385,o),
(667.566,925.385,q),
(605.413,925.385,o),
(412.049,888.553,o),
(273.932,828.703,q),
(230.195,932.291,l),
(303.858,964.518,o),
(531.751,1035.88,o),
(669.868,1035.88,q),
(817.193,1035.88,o),
(976.028,950.706,o),
(1049.69,833.307,o),
(1061.2,715.907,o),
(1061.2,681.378,q),
(1061.2,108.192,l)
);
},
{
closed = 1;
nodes = (
(946.102,504.127,l),
(906.969,511.033,o),
(743.53,529.449,o),
(646.849,529.449,q),
(504.127,529.449,o),
(347.595,462.692,o),
(273.932,377.52,o),
(260.121,299.254,o),
(260.121,290.046,q),
(260.121,246.309,o),
(299.254,170.344,o),
(368.312,112.796,o),
(455.786,78.266,o),
(504.127,78.266,q),
(531.751,78.266,o),
(621.527,92.078,o),
(736.625,140.419,o),
(872.44,237.101,o),
(946.102,319.971,q)
);
},
{
closed = 1;
nodes = (
(860.93,1157.88,l),
(741.229,1157.88,l),
(437.371,1422.61,l),
(683.68,1422.61,l)
);
}
);
width = 1381;
}
);
unicode = 224;
},
{
glyphname = aacute;
layers = (
{
layerId = "0FD74DFA-4A91-4E89-B38F-D966F2F9984B";
shapes = (
{
closed = 1;
nodes = (
(1266.07,108.192,l),
(1266.07,0,l),
(946.102,0,l),
(946.102,165.741,l),
(911.573,133.513,o),
(817.193,62.153,o),
(706.699,4.604,o),
(577.79,-32.227,o),
(506.429,-32.227,q),
(418.955,-32.227,o),
(283.14,25.322,o),
(186.458,117.4,o),
(135.815,232.497,o),
(135.815,292.348,q),
(135.815,338.387,o),
(181.854,458.088,o),
(292.348,566.28,o),
(481.108,639.943,o),
(623.829,639.943,q),
(630.735,639.943,o),
(695.19,637.641,o),
(784.966,630.735,o),
(893.157,619.225,o),
(946.102,610.017,q),
(946.102,681.378,l),
(946.102,709.001,o),
(936.894,791.871,o),
(886.252,870.138,o),
(771.154,925.385,o),
(667.566,925.385,q),
(605.413,925.385,o),
(412.049,888.553,o),
(273.932,828.703,q),
(230.195,932.291,l),
(303.858,964.518,o),
(531.751,1035.88,o),
(669.868,1035.88,q),
(817.193,1035.88,o),
(976.028,950.706,o),
(1049.69,833.307,o),
(1061.2,715.907,o),
(1061.2,681.378,q),
(1061.2,108.192,l)
);
},
{
closed = 1;
nodes = (
(946.102,504.127,l),
(906.969,511.033,o),
(743.53,529.449,o),
(646.849,529.449,q),
(504.127,529.449,o),
(347.595,462.692,o),
(273.932,377.52,o),
(260.121,299.254,o),
(260.121,290.046,q),
(260.121,246.309,o),
(299.254,170.344,o),
(368.312,112.796,o),
(455.786,78.266,o),
(504.127,78.266,q),
(531.751,78.266,o),
(621.527,92.078,o),
(736.625,140.419,o),
(872.44,237.101,o),
(946.102,319.971,q)
);
},
{
closed = 1;
nodes = (
(494.92,1157.88,l),
(699.793,1422.61,l),
(946.102,1422.61,l),
(616.923,1157.88,l)
);
}
);
width = 1381;
}
);
unicode = 225;
},
{
glyphname = acircumflex;
layers = (
{
layerId = "0FD74DFA-4A91-4E89-B38F-D966F2F9984B";
shapes = (
{
closed = 1;
nodes = (
(1266.07,108.192,l),
(1266.07,0,l),
(946.102,0,l),
(946.102,165.741,l),
(911.573,133.513,o),
(817.193,62.153,o),
(706.699,4.604,o),
(577.79,-32.227,o),
(506.429,-32.227,q),
(418.955,-32.227,o),
(283.14,25.322,o),
(186.458,117.4,o),
(135.815,232.497,o),
(135.815,292.348,q),
(135.815,338.387,o),
(181.854,458.088,o),
(292.348,566.28,o),
(481.108,639.943,o),
(623.829,639.943,q),
(630.735,639.943,o),
(695.19,637.641,o),
(784.966,630.735,o),
(893.157,619.225,o),
(946.102,610.017,q),
(946.102,681.378,l),
(946.102,709.001,o),
(936.894,791.871,o),
(886.252,870.138,o),
(771.154,925.385,o),
(667.566,925.385,q),
(605.413,925.385,o),
(412.049,888.553,o),
(273.932,828.703,q),
(230.195,932.291,l),
(303.858,964.518,o),
(531.751,1035.88,o),
(669.868,1035.88,q),
(817.193,1035.88,o),
(976.028,950.706,o),
(1049.69,833.307,o),
(1061.2,715.907,o),
(1061.2,681.378,q),
(1061.2,108.192,l)
);
},
{
closed = 1;
nodes = (
(946.102,504.127,l),
(906.969,511.033,o),
(743.53,529.449,o),
(646.849,529.449,q),
(504.127,529.449,o),
(347.595,462.692,o),
(273.932,377.52,o),
(260.121,299.254,o),
(260.121,290.046,q),
(260.121,246.309,o),
(299.254,170.344,o),
(368.312,112.796,o),
(455.786,78.266,o),
(504.127,78.266,q),
(531.751,78.266,o),
(621.527,92.078,o),
(736.625,140.419,o),
(872.44,237.101,o),
(946.102,319.971,q)
);
},
{
closed = 1;
nodes = (
(941.498,1213.13,l),
(867.836,1155.58,l),
(635.339,1307.51,l),
(425.861,1155.58,l),
(349.897,1210.83,l),
(552.468,1429.51,l),
(729.719,1429.51,l)
);
}
);
width = 1381;
}
);
unicode = 226;
},
{
glyphname = atilde;
layers = (
{
layerId = "0FD74DFA-4A91-4E89-B38F-D966F2F9984B";
shapes = (
{
closed = 1;
nodes = (
(1266.07,108.192,l),
(1266.07,0,l),
(946.102,0,l),
(946.102,165.741,l),
(911.573,133.513,o),
(817.193,62.153,o),
(706.699,4.604,o),
(577.79,-32.227,o),
(506.429,-32.227,q),
(418.955,-32.227,o),
(283.14,25.322,o),
(186.458,117.4,o),
(135.815,232.497,o),
(135.815,292.348,q),
(135.815,338.387,o),
(181.854,458.088,o),
(292.348,566.28,o),
(481.108,639.943,o),
(623.829,639.943,q),
(630.735,639.943,o),
(695.19,637.641,o),
(784.966,630.735,o),
(893.157,619.225,o),
(946.102,610.017,q),
(946.102,681.378,l),
(946.102,709.001,o),
(936.894,791.871,o),
(886.252,870.138,o),
(771.154,925.385,o),
(667.566,925.385,q),
(605.413,925.385,o),
(412.049,888.553,o),
(273.932,828.703,q),
(230.195,932.291,l),
(303.858,964.518,o),
(531.751,1035.88,o),
(669.868,1035.88,q),
(817.193,1035.88,o),
(976.028,950.706,o),
(1049.69,833.307,o),
(1061.2,715.907,o),
(1061.2,681.378,q),
(1061.2,108.192,l)
);
},
{
closed = 1;
nodes = (
(946.102,504.127,l),
(906.969,511.033,o),
(743.53,529.449,o),
(646.849,529.449,q),
(504.127,529.449,o),
(347.595,462.692,o),
(273.932,377.52,o),
(260.121,299.254,o),
(260.121,290.046,q),
(260.121,246.309,o),
(299.254,170.344,o),
(368.312,112.796,o),
(455.786,78.266,o),
(504.127,78.266,q),
(531.751,78.266,o),
(621.527,92.078,o),
(736.625,140.419,o),
(872.44,237.101,o),
(946.102,319.971,q)
);
},
{
closed = 1;
nodes = (
(1058.9,1394.98,l),
(1054.29,1390.38,o),
(1054.29,1378.87,q),
(1026.67,1282.19,o),
(902.365,1183.2,o),
(828.703,1183.2,q),
(789.57,1183.2,o),
(718.209,1215.43,o),
(665.264,1256.87,q),
(610.017,1298.3,o),
(563.978,1323.62,o),
(538.657,1323.62,q),
(492.618,1323.62,o),
(437.371,1249.96,o),
(418.955,1203.92,q),
(418.955,1201.62,o),
(416.653,1197.02,q),
(414.351,1190.11,l),
(322.273,1222.34,l),
(354.501,1309.81,o),
(453.485,1427.21,o),
(538.657,1427.21,q),
(593.904,1427.21,o),
(672.17,1381.17,o),
(709.001,1348.94,q),
(752.738,1316.72,o),
(810.287,1286.79,o),
(835.609,1286.79,q),
(865.534,1286.79,o),
(909.271,1316.72,o),
(939.196,1360.45,o),
(959.914,1406.49,o),
(966.82,1424.91,q)
);
}
);
width = 1381;
}
);
unicode = 227;
},
{
glyphname = adieresis;
layers = (
{
layerId = "0FD74DFA-4A91-4E89-B38F-D966F2F9984B";
shapes = (
{
closed = 1;
nodes = (
(1266.07,108.192,l),
(1266.07,0,l),
(946.102,0,l),
(946.102,165.741,l),
(911.573,133.513,o),
(817.193,62.153,o),
(706.699,4.604,o),
(577.79,-32.227,o),
(506.429,-32.227,q),
(418.955,-32.227,o),
(283.14,25.322,o),
(186.458,117.4,o),
(135.815,232.497,o),
(135.815,292.348,q),
(135.815,338.387,o),
(181.854,458.088,o),
(292.348,566.28,o),
(481.108,639.943,o),
(623.829,639.943,q),
(630.735,639.943,o),
(695.19,637.641,o),
(784.966,630.735,o),
(893.157,619.225,o),
(946.102,610.017,q),
(946.102,681.378,l),
(946.102,709.001,o),
(936.894,791.871,o),
(886.252,870.138,o),
(771.154,925.385,o),
(667.566,925.385,q),
(605.413,925.385,o),
(412.049,888.553,o),
(273.932,828.703,q),
(230.195,932.291,l),
(303.858,964.518,o),
(531.751,1035.88,o),
(669.868,1035.88,q),
(817.193,1035.88,o),
(976.028,950.706,o),
(1049.69,833.307,o),
(1061.2,715.907,o),
(1061.2,681.378,q),
(1061.2,108.192,l)
);
},
{
closed = 1;
nodes = (
(946.102,504.127,l),
(906.969,511.033,o),
(743.53,529.449,o),
(646.849,529.449,q),
(504.127,529.449,o),
(347.595,462.692,o),
(273.932,377.52,o),
(260.121,299.254,o),
(260.121,290.046,q),
(260.121,246.309,o),
(299.254,170.344,o),
(368.312,112.796,o),
(455.786,78.266,o),
(504.127,78.266,q),
(531.751,78.266,o),
(621.527,92.078,o),
(736.625,140.419,o),
(872.44,237.101,o),
(946.102,319.971,q)
);
},
{
closed = 1;
nodes = (
(580.092,1429.51,l),
(580.092,1180.9,l),
(414.351,1180.9,l),
(414.351,1429.51,l)
);
},
{
closed = 1;
nodes = (
(879.346,1429.51,l),
(879.346,1180.9,l),
(713.605,1180.9,l),
(713.605,1429.51,l)
);
}
);
width = 1381;
}
);
unicode = 228;
},
{
glyphname = aring;
layers = (
{
layerId = "0FD74DFA-4A91-4E89-B38F-D966F2F9984B";
shapes = (
{
closed = 1;
nodes = (
(1266.07,108.192,l),
(1266.07,0,l),
(946.102,0,l),
(946.102,165.741,l),
(911.573,133.513,o),
(817.193,62.153,o),
(706.699,4.604,o),
(577.79,-32.227,o),
(506.429,-32.227,q),
(418.955,-32.227,o),
(283.14,25.322,o),
(186.458,117.4,o),
(135.815,232.497,o),
(135.815,292.348,q),
(135.815,338.387,o),
(181.854,458.088,o),
(292.348,566.28,o),
(481.108,639.943,o),
(623.829,639.943,q),
(630.735,639.943,o),
(695.19,637.641,o),
(784.966,630.735,o),
(893.157,619.225,o),
(946.102,610.017,q),
(946.102,681.378,l),
(946.102,709.001,o),
(936.894,791.871,o),
(886.252,870.138,o),
(771.154,925.385,o),
(667.566,925.385,q),
(605.413,925.385,o),
(412.049,888.553,o),
(273.932,828.703,q),
(230.195,932.291,l),
(303.858,964.518,o),
(531.751,1035.88,o),
(669.868,1035.88,q),
(817.193,1035.88,o),
(976.028,950.706,o),
(1049.69,833.307,o),
(1061.2,715.907,o),
(1061.2,681.378,q),
(1061.2,108.192,l)
);
},
{
closed = 1;
nodes = (
(946.102,504.127,l),
(906.969,511.033,o),
(743.53,529.449,o),
(646.849,529.449,q),
(504.127,529.449,o),
(347.595,462.692,o),
(273.932,377.52,o),
(260.121,299.254,o),
(260.121,290.046,q),
(260.121,246.309,o),
(299.254,170.344,o),
(368.312,112.796,o),
(455.786,78.266,o),
(504.127,78.266,q),
(531.751,78.266,o),
(621.527,92.078,o),
(736.625,140.419,o),
(872.44,237.101,o),
(946.102,319.971,q)
);
},
{
closed = 1;
nodes = (
(764.248,1477.85,o),
(865.534,1376.57,o),
(865.534,1302.9,q),
(865.534,1229.24,o),
(764.248,1127.96,o),
(690.586,1127.96,q),
(616.923,1127.96,o),
(515.637,1229.24,o),
(515.637,1302.9,q),
(515.637,1376.57,o),
(616.923,1477.85,o),
(690.586,1477.85,q)
);
},
{
closed = 1;
nodes = (
(656.056,1390.38,o),
(603.111,1344.34,o),
(603.111,1302.9,q),
(603.111,1266.07,o),
(656.056,1215.43,o),
(692.888,1215.43,q),
(729.719,1215.43,o),
(778.06,1266.07,o),
(778.06,1302.9,q),
(778.06,1339.74,o),
(729.719,1390.38,o),
(692.888,1390.38,q)
);
}
);
width = 1381;
}
);
unicode = 229;
},
{
glyphname = ae;
layers = (
{
layerId = "0FD74DFA-4A91-4E89-B38F-D966F2F9984B";
shapes = (
{
closed = 1;
nodes = (
(736.625,467.296,l),
(741.229,368.312,o),
(764.248,234.799,o),
(810.287,174.948,q),
(863.232,105.89,o),
(973.726,78.266,o),
(1005.95,78.266,q),
(1075.01,78.266,o),
(1208.52,110.494,o),
(1266.07,128.909,q),
(1307.51,29.925,l),
(1183.2,-13.812,o),
(1031.27,-32.227,o),
(1001.35,-32.227,q),
(932.291,-32.227,o),
(831.005,9.208,o),
(759.644,64.455,o),
(715.907,122.003,o),
(704.397,138.117,q),
(651.452,85.172,o),
(552.468,16.114,o),
(464.994,-20.718,o),
(391.332,-34.529,o),
(361.406,-34.529,q),
(292.348,-34.529,o),
(186.458,16.114,o),
(112.796,101.286,o),
(75.964,209.478,o),
(75.964,267.026,q),
(75.964,324.575,o),
(122.003,448.881,o),
(211.78,547.865,o),
(349.897,612.319,o),
(444.277,612.319,q),
(483.41,612.319,o),
(557.072,600.809,o),
(621.527,591.602,q),
(621.527,672.17,l),
(621.527,791.871,o),
(557.072,925.385,o),
(453.485,925.385,q),
(393.634,925.385,o),
(273.932,897.761,o),
(177.25,863.232,q),
(145.023,964.518,l),
(241.705,1001.35,o),
(384.426,1035.88,o),
(455.786,1035.88,q),
(517.939,1035.88,o),
(603.111,1008.25,o),
(658.358,959.914,o),
(692.888,897.761,o),
(704.397,863.232,q),
(722.813,886.252,o),
(771.154,948.404,o),
(837.911,999.047,o),
(923.083,1035.88,o),
(978.33,1035.88,q),
(987.537,1035.88,o),
(1045.09,1028.97,o),
(1121.05,996.745,o),
(1201.62,927.687,o),
(1266.07,801.079,o),
(1302.9,607.715,o),
(1296,467.296,q)
);
},
{
closed = 1;
nodes = (
(621.527,481.108,l),
(561.676,492.618,o),
(485.712,501.826,o),
(446.579,501.826,q),
(368.312,501.826,o),
(269.328,451.183,o),
(211.78,379.822,o),
(191.062,296.952,o),
(191.062,267.026,q),
(191.062,232.497,o),
(211.78,165.741,o),
(253.215,110.494,o),
(315.367,75.964,o),
(359.105,75.964,q),
(400.54,75.964,o),
(481.108,103.588,o),
(547.865,145.023,o),
(603.111,188.76,o),
(621.527,204.874,q)
);
},
{
closed = 1;
nodes = (
(1180.9,575.488,l),
(1169.39,925.385,o),
(976.028,925.385,q),
(916.177,925.385,o),
(833.307,863.232,o),
(807.985,833.307,q),
(757.342,771.154,o),
(738.927,649.15,o),
(736.625,575.488,q)
);
}
);
width = 1381;
}
);
unicode = 230;
},
{
glyphname = ccedilla;
layers = (
{
layerId = "0FD74DFA-4A91-4E89-B38F-D966F2F9984B";
shapes = (
{
closed = 1;
nodes = (
(759.644,-59.851,l),
(807.985,-71.361,o),
(854.024,-147.325,o),
(854.024,-186.458,q),
(854.024,-204.874,o),
(840.212,-255.517,o),
(810.287,-301.556,o),
(757.342,-331.481,o),
(715.907,-331.481,q),
(669.868,-331.481,o),
(610.017,-299.254,o),
(582.394,-280.838,q),
(633.037,-195.666,l),
(669.868,-220.987,o),
(690.586,-230.195,o),
(706.699,-230.195,q),
(734.323,-230.195,o),
(750.436,-200.27,o),
(750.436,-188.76,q),
(750.436,-158.835,o),
(711.303,-149.627,o),
(702.095,-149.627,q),
(683.68,-149.627,o),
(660.66,-151.929,o),
(649.15,-154.231,q),
(658.358,-29.925,l),
(568.582,-27.623,o),
(391.332,46.039,o),
(250.913,181.854,o),
(163.439,375.218,o),
(163.439,497.222,q),
(163.439,589.3,o),
(230.195,775.758,o),
(363.708,927.687,o),
(570.884,1024.37,o),
(713.605,1024.37,q),
(803.381,1024.37,o),
(941.498,980.632,o),
(1012.86,929.989,q),
(1015.16,927.687,o),
(1040.48,909.271,o),
(1058.9,895.459,o),
(1061.2,895.459,q),
(1068.11,895.459,o),
(1077.31,920.781,o),
(1079.62,925.385,q),
(1098.03,1019.76,l),
(1203.92,1008.25,l),
(1199.32,973.726,o),
(1183.2,856.326,o),
(1183.2,796.475,q),
(1183.2,734.323,o),
(1190.11,644.547,q),
(1084.22,628.433,l),
(1065.8,706.699,o),
(1033.58,796.475,o),
(989.839,833.307,q),
(957.612,858.628,o),
(883.95,888.553,o),
(812.589,904.667,o),
(748.134,909.271,o),
(725.115,909.271,q),
(614.621,909.271,o),
(451.183,837.911,o),
(340.689,720.511,o),
(287.744,575.488,o),
(287.744,499.524,q),
(287.744,425.861,o),
(338.387,278.536,o),
(441.975,158.835,o),
(603.111,82.87,o),
(715.907,82.87,q),
(840.212,82.87,o),
(1077.31,191.062,o),
(1203.92,278.536,q),
(1263.77,191.062,l),
(1137.16,94.38,o),
(904.667,-16.114,o),
(759.644,-29.925,q)
);
}
);
width = 1381;
}
);
unicode = 231;
},
{
glyphname = egrave;
layers = (
{
layerId = "0FD74DFA-4A91-4E89-B38F-D966F2F9984B";
shapes = (
{
closed = 1;
nodes = (
(1286.79,131.211,l),
(1240.75,105.89,o),
(1116.45,48.341,o),
(971.424,0,o),
(810.287,-32.227,o),
(729.719,-32.227,q),
(589.3,-32.227,o),
(379.822,55.247,o),
(239.403,200.27,o),
(170.344,391.332,o),
(170.344,492.618,q),
(170.344,598.508,o),
(246.309,791.871,o),
(386.728,939.196,o),
(589.3,1024.37,o),
(715.907,1024.37,q),
(847.118,1024.37,o),
(1042.78,941.498,o),
(1174,807.985,o),
(1238.45,644.547,o),
(1238.45,566.28,q),
(1238.45,538.657,o),
(1233.85,474.202,o),
(1233.85,462.692,q),
(294.65,462.692,l),
(296.952,416.653,o),
(333.783,285.442,o),
(430.465,165.741,o),
(598.508,78.266,o),
(732.021,78.266,q),
(803.381,78.266,o),
(953.008,112.796,o),
(1086.52,161.137,o),
(1197.02,214.082,o),
(1233.85,232.497,q)
);
},
{
closed = 1;
nodes = (
(1114.14,570.884,l),
(1114.14,626.131,o),
(1065.8,748.134,o),
(969.122,849.42,o),
(819.495,913.875,o),
(715.907,913.875,q),
(600.809,913.875,o),
(446.579,835.609,o),
(349.897,727.417,o),
(301.556,610.017,o),
(294.65,570.884,q)
);
},
{
closed = 1;
nodes = (
(900.063,1157.88,l),
(780.362,1157.88,l),
(476.504,1422.61,l),
(722.813,1422.61,l)
);
}
);
width = 1381;
}
);
unicode = 232;
},
{
glyphname = eacute;
layers = (
{
layerId = "0FD74DFA-4A91-4E89-B38F-D966F2F9984B";
shapes = (
{
closed = 1;
nodes = (
(1286.79,131.211,l),
(1240.75,105.89,o),
(1116.45,48.341,o),
(971.424,0,o),
(810.287,-32.227,o),
(729.719,-32.227,q),
(589.3,-32.227,o),
(379.822,55.247,o),
(239.403,200.27,o),
(170.344,391.332,o),
(170.344,492.618,q),
(170.344,598.508,o),
(246.309,791.871,o),
(386.728,939.196,o),
(589.3,1024.37,o),
(715.907,1024.37,q),
(847.118,1024.37,o),
(1042.78,941.498,o),
(1174,807.985,o),
(1238.45,644.547,o),
(1238.45,566.28,q),
(1238.45,538.657,o),
(1233.85,474.202,o),
(1233.85,462.692,q),
(294.65,462.692,l),
(296.952,416.653,o),
(333.783,285.442,o),
(430.465,165.741,o),
(598.508,78.266,o),
(732.021,78.266,q),
(803.381,78.266,o),
(953.008,112.796,o),
(1086.52,161.137,o),
(1197.02,214.082,o),
(1233.85,232.497,q)
);
},
{
closed = 1;
nodes = (
(1114.14,570.884,l),
(1114.14,626.131,o),
(1065.8,748.134,o),
(969.122,849.42,o),
(819.495,913.875,o),
(715.907,913.875,q),
(600.809,913.875,o),
(446.579,835.609,o),
(349.897,727.417,o),
(301.556,610.017,o),
(294.65,570.884,q)
);
},
{
closed = 1;
nodes = (
(494.92,1157.88,l),
(699.793,1422.61,l),
(946.102,1422.61,l),
(616.923,1157.88,l)
);
}
);
width = 1381;
}
);
unicode = 233;
},
{
glyphname = ecircumflex;
layers = (
{
layerId = "0FD74DFA-4A91-4E89-B38F-D966F2F9984B";
shapes = (
{
closed = 1;
nodes = (
(1286.79,131.211,l),
(1240.75,105.89,o),
(1116.45,48.341,o),
(971.424,0,o),
(810.287,-32.227,o),
(729.719,-32.227,q),
(589.3,-32.227,o),
(379.822,55.247,o),
(239.403,200.27,o),
(170.344,391.332,o),
(170.344,492.618,q),
(170.344,598.508,o),
(246.309,791.871,o),
(386.728,939.196,o),
(589.3,1024.37,o),
(715.907,1024.37,q),
(847.118,1024.37,o),
(1042.78,941.498,o),
(1174,807.985,o),
(1238.45,644.547,o),
(1238.45,566.28,q),
(1238.45,538.657,o),
(1233.85,474.202,o),
(1233.85,462.692,q),
(294.65,462.692,l),
(296.952,416.653,o),
(333.783,285.442,o),
(430.465,165.741,o),
(598.508,78.266,o),
(732.021,78.266,q),
(803.381,78.266,o),
(953.008,112.796,o),
(1086.52,161.137,o),
(1197.02,214.082,o),
(1233.85,232.497,q)
);
},
{
closed = 1;
nodes = (
(1114.14,570.884,l),
(1114.14,626.131,o),
(1065.8,748.134,o),
(969.122,849.42,o),
(819.495,913.875,o),
(715.907,913.875,q),
(600.809,913.875,o),
(446.579,835.609,o),
(349.897,727.417,o),
(301.556,610.017,o),
(294.65,570.884,q)
);
},
{
closed = 1;
nodes = (
(985.235,1213.13,l),
(911.573,1155.58,l),
(679.076,1307.51,l),
(469.598,1155.58,l),
(393.634,1210.83,l),
(596.206,1429.51,l),
(773.456,1429.51,l)
);
}
);
width = 1381;
}
);
unicode = 234;
},
{
glyphname = edieresis;
layers = (
{
layerId = "0FD74DFA-4A91-4E89-B38F-D966F2F9984B";
shapes = (
{
closed = 1;
nodes = (
(1286.79,131.211,l),
(1240.75,105.89,o),
(1116.45,48.341,o),
(971.424,0,o),
(810.287,-32.227,o),
(729.719,-32.227,q),
(589.3,-32.227,o),
(379.822,55.247,o),
(239.403,200.27,o),
(170.344,391.332,o),
(170.344,492.618,q),
(170.344,598.508,o),
(246.309,791.871,o),
(386.728,939.196,o),
(589.3,1024.37,o),
(715.907,1024.37,q),
(847.118,1024.37,o),
(1042.78,941.498,o),
(1174,807.985,o),
(1238.45,644.547,o),
(1238.45,566.28,q),
(1238.45,538.657,o),
(1233.85,474.202,o),
(1233.85,462.692,q),
(294.65,462.692,l),
(296.952,416.653,o),
(333.783,285.442,o),
(430.465,165.741,o),
(598.508,78.266,o),
(732.021,78.266,q),
(803.381,78.266,o),
(953.008,112.796,o),
(1086.52,161.137,o),
(1197.02,214.082,o),
(1233.85,232.497,q)
);
},
{
closed = 1;
nodes = (
(1114.14,570.884,l),
(1114.14,626.131,o),
(1065.8,748.134,o),
(969.122,849.42,o),
(819.495,913.875,o),
(715.907,913.875,q),
(600.809,913.875,o),
(446.579,835.609,o),
(349.897,727.417,o),
(301.556,610.017,o),
(294.65,570.884,q)
);
},
{
closed = 1;
nodes = (
(623.829,1429.51,l),
(623.829,1180.9,l),
(458.088,1180.9,l),
(458.088,1429.51,l)
);
},
{
closed = 1;
nodes = (
(923.083,1429.51,l),
(923.083,1180.9,l),
(757.342,1180.9,l),
(757.342,1429.51,l)
);
}
);
width = 1381;
}
);
unicode = 235;
},
{
glyphname = igrave;
layers = (
{
layerId = "0FD74DFA-4A91-4E89-B38F-D966F2F9984B";
shapes = (
{
closed = 1;
nodes = (
(860.93,1157.88,l),
(741.229,1157.88,l),
(437.371,1422.61,l),
(683.68,1422.61,l)
);
},
{
closed = 1;
nodes = (
(752.738,108.192,l),
(1150.98,108.192,l),
(1150.98,0,l),
(232.497,0,l),
(232.497,108.192,l),
(637.641,108.192,l),
(637.641,881.648,l),
(299.254,881.648,l),
(299.254,989.839,l),
(752.738,989.839,l)
);
}
);
width = 1381;
}
);
unicode = 236;
},
{
glyphname = iacute;
layers = (
{
layerId = "0FD74DFA-4A91-4E89-B38F-D966F2F9984B";
shapes = (
{
closed = 1;
nodes = (
(494.92,1157.88,l),
(699.793,1422.61,l),
(946.102,1422.61,l),
(616.923,1157.88,l)
);
},
{
closed = 1;
nodes = (
(752.738,108.192,l),
(1150.98,108.192,l),
(1150.98,0,l),
(232.497,0,l),
(232.497,108.192,l),
(637.641,108.192,l),
(637.641,881.648,l),
(299.254,881.648,l),
(299.254,989.839,l),
(752.738,989.839,l)
);
}
);
width = 1381;
}
);
unicode = 237;
},
{
glyphname = icircumflex;
layers = (
{
layerId = "0FD74DFA-4A91-4E89-B38F-D966F2F9984B";
shapes = (
{
closed = 1;
nodes = (
(985.235,1213.13,l),
(911.573,1155.58,l),
(679.076,1307.51,l),
(469.598,1155.58,l),
(393.634,1210.83,l),
(596.206,1429.51,l),
(773.456,1429.51,l)
);
},
{
closed = 1;
nodes = (
(752.738,108.192,l),
(1150.98,108.192,l),
(1150.98,0,l),
(232.497,0,l),
(232.497,108.192,l),
(637.641,108.192,l),
(637.641,881.648,l),
(299.254,881.648,l),
(299.254,989.839,l),
(752.738,989.839,l)
);
}
);
width = 1381;
}
);
unicode = 238;
},
{
glyphname = idieresis;
layers = (
{
layerId = "0FD74DFA-4A91-4E89-B38F-D966F2F9984B";
shapes = (
{
closed = 1;
nodes = (
(623.829,1429.51,l),
(623.829,1180.9,l),
(458.088,1180.9,l),
(458.088,1429.51,l)
);
},
{
closed = 1;
nodes = (
(923.083,1429.51,l),
(923.083,1180.9,l),
(757.342,1180.9,l),
(757.342,1429.51,l)
);
},
{
closed = 1;
nodes = (
(752.738,108.192,l),
(1150.98,108.192,l),
(1150.98,0,l),
(232.497,0,l),
(232.497,108.192,l),
(637.641,108.192,l),
(637.641,881.648,l),
(299.254,881.648,l),
(299.254,989.839,l),
(752.738,989.839,l)
);
}
);
width = 1381;
}
);
unicode = 239;
},
{
glyphname = eth;
layers = (
{
layerId = "0FD74DFA-4A91-4E89-B38F-D966F2F9984B";
shapes = (
{
closed = 1;
nodes = (
(391.332,1187.81,l),
(506.429,1362.76,l),
(462.692,1383.47,o),
(398.238,1413.4,o),
(340.689,1436.42,o),
(285.442,1454.83,o),
(250.913,1466.34,q),
(290.046,1579.14,l),
(333.783,1565.33,o),
(400.54,1542.31,o),
(462.692,1516.99,o),
(529.449,1487.06,o),
(570.884,1466.34,q),
(665.264,1620.57,l),
(764.248,1556.12,l),
(674.472,1413.4,l),
(709.001,1392.68,o),
(824.099,1316.72,o),
(955.31,1208.52,o),
(1086.52,1063.5,o),
(1194.71,879.346,o),
(1261.47,656.056,o),
(1261.47,522.543,q),
(1261.47,389.03,o),
(1174,181.854,o),
(1019.76,41.435,o),
(810.287,-32.227,o),
(690.586,-32.227,q),
(547.865,-32.227,o),
(333.783,59.851,o),
(191.062,209.478,o),
(119.702,400.54,o),
(119.702,501.826,q),
(119.702,628.433,o),
(211.78,826.401,o),
(366.01,964.518,o),
(563.978,1035.88,o),
(669.868,1035.88,q),
(759.644,1035.88,o),
(934.593,999.047,o),
(985.235,973.726,q),
(989.839,978.33,l),
(957.612,1019.76,o),
(893.157,1095.73,o),
(807.985,1176.3,o),
(692.888,1259.17,o),
(610.017,1307.51,q),
(490.316,1118.75,l)
);
},
{
closed = 1;
nodes = (
(244.007,418.955,o),
(301.556,267.026,o),
(416.653,147.325,o),
(582.394,75.964,o),
(690.586,75.964,q),
(801.079,75.964,o),
(969.122,149.627,o),
(1079.62,269.328,o),
(1137.16,421.257,o),
(1137.16,501.826,q),
(1137.16,580.092,o),
(1079.62,734.323,o),
(966.82,854.024,o),
(801.079,927.687,o),
(690.586,927.687,q),
(582.394,927.687,o),
(416.653,856.326,o),
(303.858,738.927,o),
(244.007,584.696,o),
(244.007,501.826,q)
);
}
);
width = 1381;
}
);
unicode = 240;
},
{
glyphname = ntilde;
layers = (
{
layerId = "0FD74DFA-4A91-4E89-B38F-D966F2F9984B";
shapes = (
{
closed = 1;
nodes = (
(382.124,860.93,l),
(418.955,888.553,o),
(506.429,946.102,o),
(605.413,994.443,o),
(715.907,1024.37,o),
(778.06,1024.37,q),
(856.326,1024.37,o),
(982.934,969.122,o),
(1072.71,867.836,o),
(1121.05,727.417,o),
(1121.05,644.547,q),
(1121.05,108.192,l),
(1305.21,108.192,l),
(1305.21,0,l),
(807.985,0,l),
(807.985,108.192,l),
(1005.95,108.192,l),
(1005.95,635.339,l),
(1005.95,761.946,o),
(883.95,909.271,o),
(780.362,909.271,q),
(752.738,909.271,o),
(679.076,897.761,o),
(582.394,858.628,o),
(460.39,787.268,o),
(382.124,725.115,q),
(382.124,108.192,l),
(575.488,108.192,l),
(575.488,0,l),
(78.266,0,l),
(78.266,108.192,l),
(267.026,108.192,l),
(267.026,881.648,l),
(78.266,881.648,l),
(78.266,989.839,l),
(382.124,989.839,l)
);
},
{
closed = 1;
nodes = (
(1058.9,1394.98,l),
(1054.29,1390.38,o),
(1054.29,1378.87,q),
(1026.67,1282.19,o),
(902.365,1183.2,o),
(828.703,1183.2,q),
(789.57,1183.2,o),
(718.209,1215.43,o),
(665.264,1256.87,q),
(610.017,1298.3,o),
(563.978,1323.62,o),
(538.657,1323.62,q),
(492.618,1323.62,o),
(437.371,1249.96,o),
(418.955,1203.92,q),
(418.955,1201.62,o),
(416.653,1197.02,q),
(414.351,1190.11,l),
(322.273,1222.34,l),
(354.501,1309.81,o),
(453.485,1427.21,o),
(538.657,1427.21,q),
(593.904,1427.21,o),
(672.17,1381.17,o),
(709.001,1348.94,q),
(752.738,1316.72,o),
(810.287,1286.79,o),
(835.609,1286.79,q),
(865.534,1286.79,o),
(909.271,1316.72,o),
(939.196,1360.45,o),
(959.914,1406.49,o),
(966.82,1424.91,q)
);
}
);
width = 1381;
}
);
unicode = 241;
},
{
glyphname = ograve;
layers = (
{
layerId = "0FD74DFA-4A91-4E89-B38F-D966F2F9984B";
shapes = (
{
closed = 1;
nodes = (
(119.702,605.413,o),
(193.364,798.777,o),
(336.085,946.102,o),
(550.167,1035.88,o),
(690.586,1035.88,q),
(835.609,1035.88,o),
(1049.69,943.8,o),
(1190.11,791.871,o),
(1261.47,600.809,o),
(1261.47,501.826,q),
(1261.47,402.842,o),
(1190.11,211.78,o),
(1049.69,59.851,o),
(835.609,-32.227,o),
(690.586,-32.227,q),
(550.167,-32.227,o),
(336.085,57.549,o),
(193.364,207.176,o),
(119.702,398.238,o),
(119.702,501.826,q)
);
},
{
closed = 1;
nodes = (
(244.007,421.257,o),
(301.556,269.328,o),
(414.351,151.929,o),
(582.394,82.87,o),
(690.586,82.87,q),
(801.079,82.87,o),
(969.122,154.231,o),
(1079.62,271.63,o),
(1137.16,421.257,o),
(1137.16,501.826,q),
(1137.16,580.092,o),
(1079.62,732.021,o),
(969.122,849.42,o),
(801.079,920.781,o),
(690.586,920.781,q),
(582.394,920.781,o),
(416.653,851.722,o),
(301.556,734.323,o),
(244.007,584.696,o),
(244.007,501.826,q)
);
},
{
closed = 1;
nodes = (
(860.93,1157.88,l),
(741.229,1157.88,l),
(437.371,1422.61,l),
(683.68,1422.61,l)
);
}
);
width = 1381;
}
);
unicode = 242;
},
{
glyphname = oacute;
layers = (
{
layerId = "0FD74DFA-4A91-4E89-B38F-D966F2F9984B";
shapes = (
{
closed = 1;
nodes = (
(119.702,605.413,o),
(193.364,798.777,o),
(336.085,946.102,o),
(550.167,1035.88,o),
(690.586,1035.88,q),
(835.609,1035.88,o),
(1049.69,943.8,o),
(1190.11,791.871,o),
(1261.47,600.809,o),
(1261.47,501.826,q),
(1261.47,402.842,o),
(1190.11,211.78,o),
(1049.69,59.851,o),
(835.609,-32.227,o),
(690.586,-32.227,q),
(550.167,-32.227,o),
(336.085,57.549,o),
(193.364,207.176,o),
(119.702,398.238,o),
(119.702,501.826,q)
);
},
{
closed = 1;
nodes = (
(244.007,421.257,o),
(301.556,269.328,o),
(414.351,151.929,o),
(582.394,82.87,o),
(690.586,82.87,q),
(801.079,82.87,o),
(969.122,154.231,o),
(1079.62,271.63,o),
(1137.16,421.257,o),
(1137.16,501.826,q),
(1137.16,580.092,o),
(1079.62,732.021,o),
(969.122,849.42,o),
(801.079,920.781,o),
(690.586,920.781,q),
(582.394,920.781,o),
(416.653,851.722,o),
(301.556,734.323,o),
(244.007,584.696,o),
(244.007,501.826,q)
);
},
{
closed = 1;
nodes = (
(494.92,1157.88,l),
(699.793,1422.61,l),
(946.102,1422.61,l),
(616.923,1157.88,l)
);
}
);
width = 1381;
}
);
unicode = 243;
},
{
glyphname = ocircumflex;
layers = (
{
layerId = "0FD74DFA-4A91-4E89-B38F-D966F2F9984B";
shapes = (
{
closed = 1;
nodes = (
(119.702,605.413,o),
(193.364,798.777,o),
(336.085,946.102,o),
(550.167,1035.88,o),
(690.586,1035.88,q),
(835.609,1035.88,o),
(1049.69,943.8,o),
(1190.11,791.871,o),
(1261.47,600.809,o),
(1261.47,501.826,q),
(1261.47,402.842,o),
(1190.11,211.78,o),
(1049.69,59.851,o),
(835.609,-32.227,o),
(690.586,-32.227,q),
(550.167,-32.227,o),
(336.085,57.549,o),
(193.364,207.176,o),
(119.702,398.238,o),
(119.702,501.826,q)
);
},
{
closed = 1;
nodes = (
(244.007,421.257,o),
(301.556,269.328,o),
(414.351,151.929,o),
(582.394,82.87,o),
(690.586,82.87,q),
(801.079,82.87,o),
(969.122,154.231,o),
(1079.62,271.63,o),
(1137.16,421.257,o),
(1137.16,501.826,q),
(1137.16,580.092,o),
(1079.62,732.021,o),
(969.122,849.42,o),
(801.079,920.781,o),
(690.586,920.781,q),
(582.394,920.781,o),
(416.653,851.722,o),
(301.556,734.323,o),
(244.007,584.696,o),
(244.007,501.826,q)
);
},
{
closed = 1;
nodes = (
(985.235,1213.13,l),
(911.573,1155.58,l),
(679.076,1307.51,l),
(469.598,1155.58,l),
(393.634,1210.83,l),
(596.206,1429.51,l),
(773.456,1429.51,l)
);
}
);
width = 1381;
}
);
unicode = 244;
},
{
glyphname = otilde;
layers = (
{
layerId = "0FD74DFA-4A91-4E89-B38F-D966F2F9984B";
shapes = (
{
closed = 1;
nodes = (
(119.702,605.413,o),
(193.364,798.777,o),
(336.085,946.102,o),
(550.167,1035.88,o),
(690.586,1035.88,q),
(835.609,1035.88,o),
(1049.69,943.8,o),
(1190.11,791.871,o),
(1261.47,600.809,o),
(1261.47,501.826,q),
(1261.47,402.842,o),
(1190.11,211.78,o),
(1049.69,59.851,o),
(835.609,-32.227,o),
(690.586,-32.227,q),
(550.167,-32.227,o),
(336.085,57.549,o),
(193.364,207.176,o),
(119.702,398.238,o),
(119.702,501.826,q)
);
},
{
closed = 1;
nodes = (
(244.007,421.257,o),
(301.556,269.328,o),
(414.351,151.929,o),
(582.394,82.87,o),
(690.586,82.87,q),
(801.079,82.87,o),
(969.122,154.231,o),
(1079.62,271.63,o),
(1137.16,421.257,o),
(1137.16,501.826,q),
(1137.16,580.092,o),
(1079.62,732.021,o),
(969.122,849.42,o),
(801.079,920.781,o),
(690.586,920.781,q),
(582.394,920.781,o),
(416.653,851.722,o),
(301.556,734.323,o),
(244.007,584.696,o),
(244.007,501.826,q)
);
},
{
closed = 1;
nodes = (
(1058.9,1394.98,l),
(1054.29,1390.38,o),
(1054.29,1378.87,q),
(1026.67,1282.19,o),
(902.365,1183.2,o),
(828.703,1183.2,q),
(789.57,1183.2,o),
(718.209,1215.43,o),
(665.264,1256.87,q),
(610.017,1298.3,o),
(563.978,1323.62,o),
(538.657,1323.62,q),
(492.618,1323.62,o),
(437.371,1249.96,o),
(418.955,1203.92,q),
(418.955,1201.62,o),
(416.653,1197.02,q),
(414.351,1190.11,l),
(322.273,1222.34,l),
(354.501,1309.81,o),
(453.485,1427.21,o),
(538.657,1427.21,q),
(593.904,1427.21,o),
(672.17,1381.17,o),
(709.001,1348.94,q),
(752.738,1316.72,o),
(810.287,1286.79,o),
(835.609,1286.79,q),
(865.534,1286.79,o),
(909.271,1316.72,o),
(939.196,1360.45,o),
(959.914,1406.49,o),
(966.82,1424.91,q)
);
}
);
width = 1381;
}
);
unicode = 245;
},
{
glyphname = odieresis;
layers = (
{
layerId = "0FD74DFA-4A91-4E89-B38F-D966F2F9984B";
shapes = (
{
closed = 1;
nodes = (
(119.702,605.413,o),
(193.364,798.777,o),
(336.085,946.102,o),
(550.167,1035.88,o),
(690.586,1035.88,q),
(835.609,1035.88,o),
(1049.69,943.8,o),
(1190.11,791.871,o),
(1261.47,600.809,o),
(1261.47,501.826,q),
(1261.47,402.842,o),
(1190.11,211.78,o),
(1049.69,59.851,o),
(835.609,-32.227,o),
(690.586,-32.227,q),
(550.167,-32.227,o),
(336.085,57.549,o),
(193.364,207.176,o),
(119.702,398.238,o),
(119.702,501.826,q)
);
},
{
closed = 1;
nodes = (
(244.007,421.257,o),
(301.556,269.328,o),
(414.351,151.929,o),
(582.394,82.87,o),
(690.586,82.87,q),
(801.079,82.87,o),
(969.122,154.231,o),
(1079.62,271.63,o),
(1137.16,421.257,o),
(1137.16,501.826,q),
(1137.16,580.092,o),
(1079.62,732.021,o),
(969.122,849.42,o),
(801.079,920.781,o),
(690.586,920.781,q),
(582.394,920.781,o),
(416.653,851.722,o),
(301.556,734.323,o),
(244.007,584.696,o),
(244.007,501.826,q)
);
},
{
closed = 1;
nodes = (
(623.829,1429.51,l),
(623.829,1180.9,l),
(458.088,1180.9,l),
(458.088,1429.51,l)
);
},
{
closed = 1;
nodes = (
(923.083,1429.51,l),
(923.083,1180.9,l),
(757.342,1180.9,l),
(757.342,1429.51,l)
);
}
);
width = 1381;
}
);
unicode = 246;
},
{
glyphname = divide;
layers = (
{
layerId = "0FD74DFA-4A91-4E89-B38F-D966F2F9984B";
shapes = (
{
closed = 1;
nodes = (
(732.021,1215.43,o),
(794.173,1157.88,o),
(794.173,1111.84,q),
(794.173,1070.41,o),
(736.625,1008.25,o),
(690.586,1008.25,q),
(646.849,1008.25,o),
(586.998,1070.41,o),
(586.998,1111.84,q),
(586.998,1157.88,o),
(651.452,1215.43,o),
(690.586,1215.43,q)
);
},
{
closed = 1;
nodes = (
(1229.24,639.943,l),
(151.929,639.943,l),
(151.929,755.04,l),
(1229.24,755.04,l)
);
},
{
closed = 1;
nodes = (
(729.719,386.728,o),
(794.173,329.179,o),
(794.173,283.14,q),
(794.173,237.101,o),
(729.719,179.552,o),
(690.586,179.552,q),
(649.15,179.552,o),
(586.998,239.403,o),
(586.998,283.14,q),
(586.998,329.179,o),
(649.15,386.728,o),
(690.586,386.728,q)
);
}
);
width = 1381;
}
);
unicode = 247;
},
{
glyphname = oslash;
layers = (
{
layerId = "0FD74DFA-4A91-4E89-B38F-D966F2F9984B";
shapes = (
{
closed = 1;
nodes = (
(138.117,52.945,l),
(244.007,158.835,l),
(204.874,207.176,o),
(156.533,306.16,o),
(128.909,398.238,o),
(119.702,476.504,o),
(119.702,504.127,q),
(119.702,603.111,o),
(191.062,796.475,o),
(336.085,943.8,o),
(547.865,1035.88,o),
(690.586,1035.88,q),
(771.154,1035.88,o),
(966.82,992.141,o),
(1040.48,932.291,q),
(1153.28,1047.39,l),
(1240.75,959.914,l),
(1134.86,854.024,l),
(1176.3,805.683,o),
(1226.94,702.095,o),
(1252.26,607.715,o),
(1261.47,527.147,o),
(1261.47,501.826,q),
(1261.47,398.238,o),
(1187.81,204.874,o),
(1042.78,55.247,o),
(831.005,-32.227,o),
(695.19,-32.227,q),
(683.68,-32.227,o),
(610.017,-29.925,o),
(508.731,-9.208,o),
(389.03,34.529,o),
(333.783,73.662,q),
(227.893,-32.227,l)
);
},
{
closed = 1;
nodes = (
(423.559,156.533,l),
(444.277,142.721,o),
(488.014,117.4,o),
(547.865,96.682,o),
(630.735,82.87,o),
(690.586,82.87,q),
(801.079,82.87,o),
(969.122,154.231,o),
(1079.62,271.63,o),
(1137.16,421.257,o),
(1137.16,501.826,q),
(1137.16,651.452,o),
(1045.09,764.248,q)
);
},
{
closed = 1;
nodes = (
(955.31,849.42,l),
(927.687,863.232,o),
(877.044,888.553,o),
(819.495,909.271,o),
(743.53,920.781,o),
(690.586,920.781,q),
(580.092,920.781,o),
(412.049,847.118,o),
(299.254,729.719,o),
(244.007,580.092,o),
(244.007,501.826,q),
(244.007,455.786,o),
(278.536,308.462,o),
(331.481,241.705,q)
);
}
);
width = 1381;
}
);
unicode = 248;
},
{
glyphname = ugrave;
layers = (
{
layerId = "0FD74DFA-4A91-4E89-B38F-D966F2F9984B";
shapes = (
{
closed = 1;
nodes = (
(377.52,379.822,l),
(377.52,356.803,o),
(384.426,257.819,o),
(428.163,158.835,o),
(520.241,82.87,o),
(607.715,82.87,q),
(704.397,82.87,o),
(881.648,179.552,o),
(978.33,283.14,q),
(978.33,881.648,l),
(780.362,881.648,l),
(780.362,989.839,l),
(1093.43,989.839,l),
(1093.43,108.192,l),
(1279.89,108.192,l),
(1279.89,0,l),
(978.33,0,l),
(978.33,126.607,l),
(953.008,105.89,o),
(883.95,50.643,o),
(794.173,2.302,o),
(683.68,-32.227,o),
(616.923,-32.227,q),
(508.731,-32.227,o),
(370.614,46.039,o),
(292.348,165.741,o),
(262.423,310.764,o),
(262.423,379.822,q),
(262.423,881.648,l),
(73.662,881.648,l),
(73.662,989.839,l),
(377.52,989.839,l)
);
},
{
closed = 1;
nodes = (
(860.93,1157.88,l),
(741.229,1157.88,l),
(437.371,1422.61,l),
(683.68,1422.61,l)
);
}
);
width = 1381;
}
);
unicode = 249;
},
{
glyphname = uacute;
layers = (
{
layerId = "0FD74DFA-4A91-4E89-B38F-D966F2F9984B";
shapes = (
{
closed = 1;
nodes = (
(377.52,379.822,l),
(377.52,356.803,o),
(384.426,257.819,o),
(428.163,158.835,o),
(520.241,82.87,o),
(607.715,82.87,q),
(704.397,82.87,o),
(881.648,179.552,o),
(978.33,283.14,q),
(978.33,881.648,l),
(780.362,881.648,l),
(780.362,989.839,l),
(1093.43,989.839,l),
(1093.43,108.192,l),
(1279.89,108.192,l),
(1279.89,0,l),
(978.33,0,l),
(978.33,126.607,l),
(953.008,105.89,o),
(883.95,50.643,o),
(794.173,2.302,o),
(683.68,-32.227,o),
(616.923,-32.227,q),
(508.731,-32.227,o),
(370.614,46.039,o),
(292.348,165.741,o),
(262.423,310.764,o),
(262.423,379.822,q),
(262.423,881.648,l),
(73.662,881.648,l),
(73.662,989.839,l),
(377.52,989.839,l)
);
},
{
closed = 1;
nodes = (
(494.92,1157.88,l),
(699.793,1422.61,l),
(946.102,1422.61,l),
(616.923,1157.88,l)
);
}
);
width = 1381;
}
);
unicode = 250;
},
{
glyphname = ucircumflex;
layers = (
{
layerId = "0FD74DFA-4A91-4E89-B38F-D966F2F9984B";
shapes = (
{
closed = 1;
nodes = (
(377.52,379.822,l),
(377.52,356.803,o),
(384.426,257.819,o),
(428.163,158.835,o),
(520.241,82.87,o),
(607.715,82.87,q),
(704.397,82.87,o),
(881.648,179.552,o),
(978.33,283.14,q),
(978.33,881.648,l),
(780.362,881.648,l),
(780.362,989.839,l),
(1093.43,989.839,l),
(1093.43,108.192,l),
(1279.89,108.192,l),
(1279.89,0,l),
(978.33,0,l),
(978.33,126.607,l),
(953.008,105.89,o),
(883.95,50.643,o),
(794.173,2.302,o),
(683.68,-32.227,o),
(616.923,-32.227,q),
(508.731,-32.227,o),
(370.614,46.039,o),
(292.348,165.741,o),
(262.423,310.764,o),
(262.423,379.822,q),
(262.423,881.648,l),
(73.662,881.648,l),
(73.662,989.839,l),
(377.52,989.839,l)
);
},
{
closed = 1;
nodes = (
(985.235,1213.13,l),
(911.573,1155.58,l),
(679.076,1307.51,l),
(469.598,1155.58,l),
(393.634,1210.83,l),
(596.206,1429.51,l),
(773.456,1429.51,l)
);
}
);
width = 1381;
}
);
unicode = 251;
},
{
glyphname = udieresis;
layers = (
{
layerId = "0FD74DFA-4A91-4E89-B38F-D966F2F9984B";
shapes = (
{
closed = 1;
nodes = (
(377.52,379.822,l),
(377.52,356.803,o),
(384.426,257.819,o),
(428.163,158.835,o),
(520.241,82.87,o),
(607.715,82.87,q),
(704.397,82.87,o),
(881.648,179.552,o),
(978.33,283.14,q),
(978.33,881.648,l),
(780.362,881.648,l),
(780.362,989.839,l),
(1093.43,989.839,l),
(1093.43,108.192,l),
(1279.89,108.192,l),
(1279.89,0,l),
(978.33,0,l),
(978.33,126.607,l),
(953.008,105.89,o),
(883.95,50.643,o),
(794.173,2.302,o),
(683.68,-32.227,o),
(616.923,-32.227,q),
(508.731,-32.227,o),
(370.614,46.039,o),
(292.348,165.741,o),
(262.423,310.764,o),
(262.423,379.822,q),
(262.423,881.648,l),
(73.662,881.648,l),
(73.662,989.839,l),
(377.52,989.839,l)
);
},
{
closed = 1;
nodes = (
(623.829,1429.51,l),
(623.829,1180.9,l),
(458.088,1180.9,l),
(458.088,1429.51,l)
);
},
{
closed = 1;
nodes = (
(923.083,1429.51,l),
(923.083,1180.9,l),
(757.342,1180.9,l),
(757.342,1429.51,l)
);
}
);
width = 1381;
}
);
unicode = 252;
},
{
glyphname = yacute;
layers = (
{
layerId = "0FD74DFA-4A91-4E89-B38F-D966F2F9984B";
shapes = (
{
closed = 1;
nodes = (
(485.712,881.648,l),
(326.877,881.648,l),
(690.586,181.854,l),
(1091.13,881.648,l),
(934.593,881.648,l),
(934.593,989.839,l),
(1355.85,989.839,l),
(1355.85,881.648,l),
(1222.34,881.648,l),
(577.79,-244.007,l),
(782.664,-244.007,l),
(782.664,-352.199,l),
(92.078,-352.199,l),
(92.078,-244.007,l),
(446.579,-244.007,l),
(623.829,62.153,l),
(195.666,881.648,l),
(55.247,881.648,l),
(55.247,989.839,l),
(485.712,989.839,l)
);
},
{
closed = 1;
nodes = (
(494.92,1157.88,l),
(699.793,1422.61,l),
(946.102,1422.61,l),
(616.923,1157.88,l)
);
}
);
width = 1381;
}
);
unicode = 253;
},
{
glyphname = thorn;
layers = (
{
layerId = "0FD74DFA-4A91-4E89-B38F-D966F2F9984B";
shapes = (
{
closed = 1;
nodes = (
(352.199,826.401,l),
(366.01,847.118,o),
(423.559,911.573,o),
(520.241,973.726,o),
(656.056,1019.76,o),
(748.134,1019.76,q),
(865.534,1019.76,o),
(1054.29,932.291,o),
(1187.81,789.57,o),
(1261.47,603.111,o),
(1261.47,504.127,q),
(1261.47,386.728,o),
(1171.69,195.666,o),
(1028.97,59.851,o),
(844.816,-16.114,o),
(752.738,-16.114,q),
(738.927,-16.114,o),
(656.056,-9.208,o),
(540.959,27.623,o),
(412.049,108.192,o),
(352.199,181.854,q),
(347.595,181.854,l),
(347.595,-253.215,l),
(690.586,-253.215,l),
(690.586,-361.406,l),
(43.737,-361.406,l),
(43.737,-253.215,l),
(232.497,-253.215,l),
(232.497,1328.23,l),
(27.623,1319.02,l),
(27.623,1427.21,l),
(347.595,1447.93,l),
(347.595,826.401,l)
);
},
{
closed = 1;
nodes = (
(338.387,409.747,o),
(416.653,255.517,o),
(536.355,151.929,o),
(681.378,98.984,o),
(748.134,98.984,q),
(826.401,98.984,o),
(966.82,161.137,o),
(1072.71,269.328,o),
(1137.16,418.955,o),
(1137.16,506.429,q),
(1137.16,577.79,o),
(1088.82,720.511,o),
(992.141,833.307,o),
(847.118,904.667,o),
(750.436,904.667,q),
(660.66,904.667,o),
(508.731,840.212,o),
(400.54,734.323,o),
(338.387,589.3,o),
(338.387,511.033,q)
);
}
);
width = 1381;
}
);
unicode = 254;
},
{
glyphname = ydieresis;
layers = (
{
layerId = "0FD74DFA-4A91-4E89-B38F-D966F2F9984B";
shapes = (
{
closed = 1;
nodes = (
(55.247,989.839,l),
(55.247,881.648,l),
(195.666,881.648,l),
(623.829,62.153,l),
(446.579,-244.007,l),
(92.078,-244.007,l),
(92.078,-352.199,l),
(782.664,-352.199,l),
(782.664,-244.007,l),
(577.79,-244.007,l),
(1222.34,881.648,l),
(1355.85,881.648,l),
(1355.85,989.839,l),
(934.593,989.839,l),
(934.593,881.648,l),
(1091.13,881.648,l),
(690.586,181.854,l),
(326.877,881.648,l),
(485.712,881.648,l),
(485.712,989.839,l)
);
},
{
closed = 1;
nodes = (
(458.088,1180.9,l),
(623.829,1180.9,l),
(623.829,1429.51,l),
(458.088,1429.51,l)
);
},
{
closed = 1;
nodes = (
(757.342,1180.9,l),
(923.083,1180.9,l),
(923.083,1429.51,l),
(757.342,1429.51,l)
);
}
);
width = 1381;
}
);
unicode = 255;
},
{
glyphname = OE;
layers = (
{
layerId = "0FD74DFA-4A91-4E89-B38F-D966F2F9984B";
shapes = (
{
closed = 1;
nodes = (
(1236.15,881.648,l),
(1134.86,881.648,l),
(1114.14,1187.81,l),
(810.287,1187.81,l),
(810.287,741.229,l),
(959.914,741.229,l),
(959.914,909.271,l),
(1065.8,909.271,l),
(1065.8,464.994,l),
(959.914,464.994,l),
(959.914,633.037,l),
(810.287,633.037,l),
(810.287,108.192,l),
(1146.37,108.192,l),
(1160.18,425.861,l),
(1266.07,425.861,l),
(1266.07,0,l),
(557.072,0,l),
(421.257,0,o),
(225.591,124.305,o),
(98.984,313.065,o),
(36.831,536.355,o),
(36.831,637.641,q),
(36.831,775.758,o),
(124.305,1015.16,o),
(283.14,1194.71,o),
(506.429,1296,o),
(642.245,1296,q),
(1236.15,1296,l)
);
},
{
closed = 1;
nodes = (
(635.339,1187.81,l),
(520.241,1187.81,o),
(342.991,1100.33,o),
(223.289,950.706,o),
(161.137,752.738,o),
(161.137,644.547,q),
(161.137,559.374,o),
(209.478,370.614,o),
(313.065,211.78,o),
(476.504,108.192,o),
(593.904,108.192,q),
(695.19,108.192,l),
(695.19,1187.81,l)
);
}
);
width = 1381;
}
);
unicode = 338;
},
{
glyphname = oe;
layers = (
{
layerId = "0FD74DFA-4A91-4E89-B38F-D966F2F9984B";
shapes = (
{
closed = 1;
nodes = (
(736.625,471.9,l),
(734.323,352.199,o),
(787.268,197.968,o),
(870.138,110.494,o),
(962.216,75.964,o),
(1001.35,75.964,q),
(1075.01,75.964,o),
(1220.03,112.796,o),
(1266.07,126.607,q),
(1307.51,27.623,l),
(1183.2,-13.812,o),
(1038.18,-34.529,o),
(1005.95,-34.529,q),
(985.235,-34.529,o),
(906.969,-23.02,o),
(817.193,18.416,o),
(725.115,103.588,o),
(690.586,179.552,q),
(681.378,158.835,o),
(642.245,87.474,o),
(568.582,16.114,o),
(458.088,-34.529,o),
(375.218,-34.529,q),
(285.442,-34.529,o),
(165.741,27.623,o),
(87.474,122.003,o),
(46.039,237.101,o),
(25.322,345.293,o),
(23.02,432.767,o),
(23.02,453.485,q),
(23.02,563.978,o),
(64.455,773.456,o),
(154.231,939.196,o),
(299.254,1038.18,o),
(405.144,1038.18,q),
(474.202,1038.18,o),
(575.488,989.839,o),
(644.547,927.687,o),
(683.68,863.232,o),
(690.586,847.118,q),
(743.53,943.8,o),
(900.063,1035.88,o),
(976.028,1035.88,q),
(1065.8,1035.88,o),
(1187.81,941.498,o),
(1263.77,801.079,o),
(1298.3,642.245,o),
(1298.3,577.79,q),
(1298.3,550.167,o),
(1296,488.014,o),
(1293.7,471.9,q)
);
},
{
closed = 1;
nodes = (
(621.527,630.735,o),
(584.696,805.683,o),
(522.543,900.063,o),
(446.579,927.687,o),
(405.144,927.687,q),
(333.783,927.687,o),
(237.101,842.514,o),
(174.948,706.699,o),
(147.325,540.959,o),
(147.325,460.39,q),
(147.325,395.936,o),
(168.042,260.121,o),
(218.685,147.325,o),
(306.16,75.964,o),
(372.916,75.964,q),
(435.069,75.964,o),
(520.241,124.305,o),
(575.488,202.572,o),
(605.413,296.952,o),
(619.225,389.03,o),
(621.527,464.994,o),
(621.527,485.712,q)
);
},
{
closed = 1;
nodes = (
(1183.2,573.186,l),
(1183.2,637.641,o),
(1160.18,764.248,o),
(1109.54,865.534,o),
(1031.27,925.385,o),
(976.028,925.385,q),
(957.612,925.385,o),
(881.648,902.365,o),
(801.079,831.005,o),
(738.927,690.586,o),
(736.625,573.186,q)
);
}
);
width = 1381;
}
);
unicode = 339;
},
{
glyphname = Scaron;
layers = (
{
layerId = "0FD74DFA-4A91-4E89-B38F-D966F2F9984B";
shapes = (
{
closed = 1;
nodes = (
(1167.09,1321.32,l),
(1155.58,1268.38,o),
(1146.37,1199.32,o),
(1146.37,1155.58,q),
(1146.37,1116.45,o),
(1155.58,980.632,o),
(1167.09,881.648,q),
(1063.5,863.232,l),
(1058.9,900.063,o),
(1031.27,1019.76,o),
(992.141,1079.62,q),
(978.33,1100.33,o),
(934.593,1148.67,o),
(865.534,1190.11,o),
(768.852,1220.03,o),
(699.793,1220.03,q),
(610.017,1220.03,o),
(478.806,1167.09,o),
(393.634,1086.52,o),
(352.199,992.141,o),
(352.199,948.404,q),
(352.199,867.836,o),
(430.465,775.758,o),
(540.959,725.115,o),
(660.66,706.699,o),
(702.095,702.095,q),
(831.005,688.284,o),
(978.33,658.358,o),
(1098.03,580.092,o),
(1180.9,451.183,o),
(1180.9,352.199,q),
(1180.9,250.913,o),
(1095.73,103.588,o),
(962.216,6.906,o),
(794.173,-39.133,o),
(709.001,-39.133,q),
(639.943,-39.133,o),
(536.355,-16.114,o),
(460.39,18.416,o),
(409.747,52.945,o),
(393.634,66.757,q),
(391.332,69.059,o),
(379.822,75.964,o),
(375.218,75.964,q),
(368.312,75.964,o),
(356.803,62.153,o),
(352.199,57.549,q),
(347.595,41.435,o),
(340.689,11.51,o),
(331.481,-46.039,q),
(227.893,-46.039,l),
(239.403,9.208,o),
(248.611,110.494,o),
(248.611,135.815,q),
(248.611,158.835,l),
(248.611,177.25,o),
(244.007,239.403,o),
(237.101,310.764,o),
(230.195,377.52,o),
(227.893,402.842,q),
(331.481,402.842,l),
(340.689,359.105,o),
(370.614,248.611,o),
(409.747,197.968,q),
(441.975,156.533,o),
(568.582,75.964,o),
(692.888,75.964,q),
(798.777,75.964,o),
(939.196,126.607,o),
(1022.07,204.874,o),
(1056.6,299.254,o),
(1056.6,342.991,q),
(1056.6,418.955,o),
(989.839,508.731,o),
(893.157,557.072,o),
(780.362,575.488,o),
(736.625,580.092,q),
(669.868,586.998,o),
(492.618,614.621,o),
(336.085,688.284,o),
(227.893,824.099,o),
(227.893,939.196,q),
(227.893,1017.46,o),
(296.952,1160.18,o),
(418.955,1270.68,o),
(586.998,1335.13,o),
(685.982,1335.13,q),
(748.134,1335.13,o),
(844.816,1312.11,o),
(913.875,1282.19,o),
(959.914,1249.96,o),
(971.424,1240.75,q),
(999.047,1220.03,o),
(1017.46,1208.52,o),
(1024.37,1208.52,q),
(1040.48,1208.52,o),
(1047.39,1236.15,o),
(1058.9,1291.4,q),
(1061.2,1302.9,o),
(1063.5,1316.72,o),
(1063.5,1321.32,q)
);
},
{
closed = 1;
nodes = (
(393.634,1694.24,l),
(467.296,1749.48,l),
(699.793,1599.86,l),
(911.573,1751.79,l),
(985.235,1694.24,l),
(782.664,1477.85,l),
(607.715,1477.85,l)
);
}
);
width = 1381;
}
);
unicode = 352;
},
{
glyphname = scaron;
layers = (
{
layerId = "0FD74DFA-4A91-4E89-B38F-D966F2F9984B";
shapes = (
{
closed = 1;
nodes = (
(1109.54,1019.76,l),
(1102.64,982.934,o),
(1088.82,888.553,o),
(1088.82,821.797,q),
(1088.82,773.456,o),
(1095.73,706.699,o),
(1100.33,676.774,q),
(999.047,665.264,l),
(992.141,699.793,o),
(966.82,782.664,o),
(895.459,854.024,o),
(757.342,904.667,o),
(637.641,904.667,q),
(499.524,904.667,o),
(352.199,805.683,o),
(352.199,734.323,q),
(352.199,672.17,o),
(423.559,600.809,o),
(552.468,561.676,o),
(725.115,547.865,o),
(826.401,543.261,q),
(847.118,543.261,o),
(955.31,529.449,o),
(1070.41,478.806,o),
(1160.18,375.218,o),
(1160.18,285.442,q),
(1160.18,202.572,o),
(1079.62,80.568,o),
(950.706,2.302,o),
(796.475,-34.529,o),
(720.511,-34.529,q),
(658.358,-34.529,o),
(552.468,-13.812,o),
(464.994,18.416,o),
(402.842,50.643,o),
(382.124,62.153,q),
(382.124,62.153,o),
(377.52,64.455,q),
(375.218,66.757,o),
(370.614,66.757,q),
(354.501,66.757,o),
(336.085,9.208,o),
(324.575,-29.925,q),
(223.289,-29.925,l),
(227.893,0,o),
(237.101,57.549,o),
(237.101,115.098,q),
(237.101,188.76,o),
(227.893,303.858,o),
(223.289,342.991,q),
(324.575,354.501,l),
(329.179,324.575,o),
(356.803,232.497,o),
(432.767,145.023,o),
(575.488,80.568,o),
(695.19,80.568,q),
(729.719,80.568,o),
(844.816,94.38,o),
(955.31,135.815,o),
(1035.88,214.082,o),
(1035.88,280.838,q),
(1035.88,331.481,o),
(987.537,391.332,o),
(900.063,421.257,o),
(778.06,430.465,o),
(706.699,432.767,q),
(660.66,435.069,o),
(499.524,451.183,o),
(342.991,508.731,o),
(227.893,626.131,o),
(227.893,729.719,q),
(227.893,791.871,o),
(287.744,897.761,o),
(393.634,976.028,o),
(545.563,1019.76,o),
(635.339,1019.76,q),
(738.927,1019.76,o),
(867.836,971.424,o),
(900.063,953.008,q),
(904.667,948.404,o),
(936.894,932.291,o),
(950.706,932.291,q),
(969.122,932.291,o),
(987.537,976.028,o),
(992.141,987.537,q),
(996.745,1010.56,o),
(1001.35,1024.37,o),
(1005.95,1035.88,q)
);
},
{
closed = 1;
nodes = (
(393.634,1388.08,l),
(467.296,1443.32,l),
(699.793,1293.7,l),
(911.573,1445.63,l),
(985.235,1388.08,l),
(782.664,1171.69,l),
(607.715,1171.69,l)
);
}
);
width = 1381;
}
);
unicode = 353;
},
{
glyphname = Ydieresis;
layers = (
{
layerId = "0FD74DFA-4A91-4E89-B38F-D966F2F9984B";
shapes = (
{
closed = 1;
nodes = (
(524.845,1187.81,l),
(349.897,1187.81,l),
(697.491,616.923,l),
(1040.48,1187.81,l),
(860.93,1187.81,l),
(860.93,1296,l),
(1307.51,1296,l),
(1307.51,1187.81,l),
(1162.49,1187.81,l),
(750.436,501.826,l),
(750.436,108.192,l),
(1022.07,108.192,l),
(1022.07,0,l),
(361.406,0,l),
(361.406,108.192,l),
(635.339,108.192,l),
(635.339,501.826,l),
(218.685,1187.81,l),
(73.662,1187.81,l),
(73.662,1296,l),
(524.845,1296,l)
);
},
{
closed = 1;
nodes = (
(623.829,1735.67,l),
(623.829,1487.06,l),
(458.088,1487.06,l),
(458.088,1735.67,l)
);
},
{
closed = 1;
nodes = (
(923.083,1735.67,l),
(923.083,1487.06,l),
(757.342,1487.06,l),
(757.342,1735.67,l)
);
}
);
width = 1381;
}
);
unicode = 376;
},
{
glyphname = Zcaron;
layers = (
{
layerId = "0FD74DFA-4A91-4E89-B38F-D966F2F9984B";
shapes = (
{
closed = 1;
nodes = (
(1134.86,1201.62,l),
(331.481,108.192,l),
(1079.62,108.192,l),
(1079.62,481.108,l),
(1187.81,481.108,l),
(1187.81,0,l),
(193.364,0,l),
(193.364,108.192,l),
(987.537,1187.81,l),
(317.669,1187.81,l),
(317.669,851.722,l),
(209.478,851.722,l),
(209.478,1296,l),
(1134.86,1296,l)
);
},
{
closed = 1;
nodes = (
(393.634,1694.24,l),
(467.296,1749.48,l),
(699.793,1599.86,l),
(911.573,1751.79,l),
(985.235,1694.24,l),
(782.664,1477.85,l),
(607.715,1477.85,l)
);
}
);
width = 1381;
}
);
unicode = 381;
},
{
glyphname = zcaron;
layers = (
{
layerId = "0FD74DFA-4A91-4E89-B38F-D966F2F9984B";
shapes = (
{
closed = 1;
nodes = (
(1141.77,890.855,l),
(395.936,108.192,l),
(1033.58,108.192,l),
(1033.58,319.971,l),
(1141.77,319.971,l),
(1141.77,0,l),
(239.403,0,l),
(239.403,108.192,l),
(978.33,881.648,l),
(370.614,881.648,l),
(370.614,676.774,l),
(262.423,676.774,l),
(262.423,989.839,l),
(1141.77,989.839,l)
);
},
{
closed = 1;
nodes = (
(393.634,1388.08,l),
(467.296,1443.32,l),
(699.793,1293.7,l),
(911.573,1445.63,l),
(985.235,1388.08,l),
(782.664,1171.69,l),
(607.715,1171.69,l)
);
}
);
width = 1381;
}
);
unicode = 382;
},
{
glyphname = florin;
layers = (
{
layerId = "0FD74DFA-4A91-4E89-B38F-D966F2F9984B";
shapes = (
{
closed = 1;
nodes = (
(1160.18,1401.89,l),
(1130.26,1408.79,o),
(1049.69,1420.3,o),
(994.443,1420.3,q),
(863.232,1420.3,o),
(722.813,1353.55,o),
(656.056,1256.87,o),
(644.547,1148.67,o),
(644.547,1104.94,q),
(644.547,978.33,l),
(1049.69,978.33,l),
(1049.69,881.648,l),
(644.547,881.648,l),
(644.547,117.4,l),
(644.547,36.831,o),
(607.715,-80.568,o),
(543.261,-128.909,q),
(467.296,-186.458,o),
(269.328,-227.893,o),
(170.344,-227.893,q),
(140.419,-227.893,o),
(80.568,-223.289,o),
(55.247,-218.685,q),
(64.455,-103.588,l),
(98.984,-108.192,o),
(181.854,-117.4,o),
(220.987,-117.4,q),
(296.952,-117.4,o),
(458.088,-75.964,o),
(494.92,-32.227,q),
(520.241,0,o),
(529.449,87.474,o),
(529.449,133.513,q),
(529.449,881.648,l),
(283.14,881.648,l),
(283.14,978.33,l),
(529.449,978.33,l),
(529.449,1116.45,l),
(529.449,1167.09,o),
(552.468,1309.81,o),
(651.452,1438.72,o),
(849.42,1528.5,o),
(1024.37,1528.5,q),
(1075.01,1528.5,o),
(1148.67,1523.89,o),
(1171.69,1519.29,q)
);
}
);
width = 1381;
}
);
unicode = 402;
},
{
glyphname = circumflex;
layers = (
{
layerId = "0FD74DFA-4A91-4E89-B38F-D966F2F9984B";
shapes = (
{
closed = 1;
nodes = (
(985.235,1213.13,l),
(911.573,1155.58,l),
(679.076,1307.51,l),
(469.598,1155.58,l),
(393.634,1210.83,l),
(596.206,1429.51,l),
(773.456,1429.51,l)
);
}
);
width = 1381;
}
);
unicode = 710;
},
{
glyphname = tilde;
layers = (
{
layerId = "0FD74DFA-4A91-4E89-B38F-D966F2F9984B";
shapes = (
{
closed = 1;
nodes = (
(1058.9,1394.98,l),
(1054.29,1390.38,o),
(1054.29,1378.87,q),
(1026.67,1282.19,o),
(902.365,1183.2,o),
(828.703,1183.2,q),
(789.57,1183.2,o),
(718.209,1215.43,o),
(665.264,1256.87,q),
(610.017,1298.3,o),
(563.978,1323.62,o),
(538.657,1323.62,q),
(492.618,1323.62,o),
(437.371,1249.96,o),
(418.955,1203.92,q),
(418.955,1201.62,o),
(416.653,1197.02,q),
(414.351,1190.11,l),
(322.273,1222.34,l),
(354.501,1309.81,o),
(453.485,1427.21,o),
(538.657,1427.21,q),
(593.904,1427.21,o),
(672.17,1381.17,o),
(709.001,1348.94,q),
(752.738,1316.72,o),
(810.287,1286.79,o),
(835.609,1286.79,q),
(865.534,1286.79,o),
(909.271,1316.72,o),
(939.196,1360.45,o),
(959.914,1406.49,o),
(966.82,1424.91,q)
);
}
);
width = 1381;
}
);
unicode = 732;
},
{
glyphname = uni1200;
layers = (
{
layerId = "0FD74DFA-4A91-4E89-B38F-D966F2F9984B";
shapes = (
{
closed = 1;
nodes = (
(963,1115,l),
(963,1195,o),
(900,1277,o),
(847,1277,q),
(668,1176,l),
(707,1165,o),
(733,1115,o),
(733,1064,q),
(733,271,l),
(733,199,o),
(692,105,o),
(639,52,o),
(587,29,o),
(576,29,q),
(523,31,o),
(442,63,o),
(390,145,o),
(364,293,o),
(364,410,q),
(364,1064,l),
(364,1138,o),
(335,1208,o),
(272,1208,q),
(74,1114,l),
(112,1095,o),
(136,1047,o),
(136,1011,q),
(134,379,l),
(134,276,o),
(153,127,o),
(210,28,o),
(318,-22,o),
(409,-24,q),
(422,-24,l),
(425,-24,o),
(434,-24,q),
(444,-24,o),
(457,-22,q),
(596,0,o),
(784,59,o),
(900,177,o),
(955,377,o),
(963,541,q)
);
}
);
width = 1018;
}
);
unicode = 4608;
},
{
glyphname = uni1201;
layers = (
{
layerId = "0FD74DFA-4A91-4E89-B38F-D966F2F9984B";
shapes = (
{
closed = 1;
nodes = (
(1432.1,705.004,o),
(1395.28,701.323,q),
(1376.88,701.323,o),
(1338.22,723.412,o),
(1306.93,756.545,o),
(1284.84,795.201,o),
(1283,811.767,q),
(962.708,716.049,l),
(962.708,1119.17,l),
(962.708,1198.32,o),
(900.123,1281.16,o),
(846.742,1281.16,q),
(670.03,1179.92,l),
(708.686,1168.87,o),
(734.456,1119.17,o),
(734.456,1067.63,q),
(732.615,270.589,l),
(732.615,198.8,o),
(692.119,104.922,o),
(638.738,51.541,o),
(587.197,29.452,o),
(576.152,29.452,q),
(522.771,31.293,o),
(441.778,62.585,o),
(390.237,145.419,o),
(364.467,292.678,o),
(364.467,410.486,q),
(364.467,1067.63,l),
(364.467,1141.26,o),
(335.015,1211.21,o),
(272.43,1211.21,q),
(73.63,1117.33,l),
(112.285,1098.92,o),
(136.215,1051.06,o),
(136.215,1014.25,q),
(134.374,379.193,l),
(134.374,276.111,o),
(152.782,127.011,o),
(209.845,27.611,o),
(318.448,-22.089,o),
(408.645,-23.93,q),
(421.53,-23.93,l),
(425.211,-23.93,o),
(434.415,-23.93,q),
(443.619,-23.93,o),
(456.504,-22.089,q),
(600.082,1.841,o),
(811.767,57.063,o),
(859.627,115.967,q),
(903.805,171.189,o),
(962.708,371.83,o),
(962.708,541.178,q),
(962.708,671.871,l),
(1078.68,703.164,l),
(1084.2,603.764,o),
(1179.92,520.93,o),
(1253.55,520.93,q),
(1275.63,520.93,l),
(1306.93,522.771,o),
(1371.35,555.904,o),
(1424.73,611.126,o),
(1457.87,690.278,o),
(1457.87,738.138,q)
);
}
);
width = 1476;
}
);
unicode = 4609;
},
{
glyphname = uni1202;
layers = (
{
layerId = "0FD74DFA-4A91-4E89-B38F-D966F2F9984B";
shapes = (
{
closed = 1;
nodes = (
(1117.33,79.152,o),
(1084.2,7.363,o),
(1030.82,-44.178,o),
(966.39,-75.47,o),
(936.938,-77.311,q),
(889.079,-77.311,o),
(819.13,-68.108,o),
(769.43,-42.337,o),
(736.297,5.522,o),
(725.253,44.178,q),
(495.16,-22.089,l),
(462.026,-22.089,o),
(401.282,-3.681,o),
(355.263,34.974,o),
(325.811,88.356,o),
(325.811,125.17,q),
(325.811,165.667,o),
(338.697,198.8,q),
(526.452,644.26,l),
(467.549,631.375,l),
(428.893,622.171,o),
(353.423,609.286,o),
(287.156,600.082,o),
(235.615,596.401,o),
(222.73,596.401,q),
(160.145,596.401,o),
(97.559,640.578,o),
(97.559,695.801,q),
(99.4,717.89,l),
(132.533,1089.72,l),
(132.533,1095.24,o),
(136.215,1130.22,o),
(136.215,1139.42,q),
(136.215,1172.55,o),
(110.445,1211.21,o),
(73.63,1224.09,q),
(283.474,1286.68,l),
(329.493,1281.16,o),
(371.83,1213.05,o),
(371.83,1163.35,q),
(371.83,1135.74,o),
(366.308,1111.81,q),
(331.334,797.041,l),
(331.334,785.997,o),
(329.493,780.475,q),
(329.493,765.749,l),
(329.493,714.208,o),
(417.849,679.234,o),
(473.071,679.234,q),
(502.523,679.234,l),
(511.726,681.075,o),
(524.612,681.075,q),
(537.497,681.075,l),
(675.552,1041.86,l),
(688.438,1091.56,o),
(688.438,1132.06,q),
(688.438,1205.69,o),
(624.012,1236.98,q),
(855.945,1288.52,l),
(927.734,1238.82,o),
(927.734,1115.49,q),
(927.734,1043.7,o),
(900.123,966.39,q),
(598.241,242.978,l),
(574.312,184.074,o),
(574.312,138.056,q),
(574.312,64.426,o),
(635.056,64.426,q),
(642.419,64.426,o),
(653.464,66.267,o),
(660.827,68.108,q),
(725.253,88.356,l),
(725.253,150.941,o),
(820.971,220.889,o),
(887.238,220.889,q),
(916.69,220.889,o),
(944.301,215.367,q),
(946.142,189.596,o),
(968.231,143.578,o),
(997.682,106.763,o),
(1036.34,84.674,o),
(1054.75,84.674,q),
(1091.56,88.356,o),
(1117.33,121.489,q)
);
}
);
width = 1138;
}
);
unicode = 4610;
},
{
glyphname = uni1203;
layers = (
{
layerId = "0FD74DFA-4A91-4E89-B38F-D966F2F9984B";
shapes = (
{
closed = 1;
nodes = (
(660.827,79.152,o),
(638.738,79.152,q),
(625.852,79.152,l),
(598.241,92.037,o),
(570.63,108.604,o),
(570.63,139.896,q),
(570.63,169.348,o),
(596.401,250.341,q),
(900.123,964.549,l),
(927.734,1041.86,o),
(927.734,1113.65,q),
(927.734,1235.14,o),
(855.945,1288.52,q),
(624.012,1235.14,l),
(688.438,1203.85,o),
(688.438,1130.22,q),
(688.438,1091.56,o),
(675.552,1041.86,q),
(537.497,679.234,l),
(522.771,679.234,l),
(511.726,679.234,o),
(504.363,677.393,q),
(476.752,677.393,l),
(421.53,677.393,o),
(329.493,714.208,o),
(329.493,765.749,q),
(329.493,780.475,l),
(331.334,785.997,o),
(331.334,797.041,q),
(366.308,1111.81,l),
(371.83,1135.74,o),
(371.83,1161.51,q),
(371.83,1213.05,o),
(329.493,1281.16,o),
(283.474,1286.68,q),
(73.63,1222.25,l),
(108.604,1209.37,o),
(136.215,1170.71,o),
(136.215,1137.58,q),
(136.215,1128.38,o),
(132.533,1093.4,o),
(132.533,1087.88,q),
(99.4,716.049,l),
(97.559,693.96,l),
(97.559,638.738,o),
(161.985,596.401,o),
(222.73,596.401,q),
(255.863,596.401,o),
(399.441,614.808,o),
(476.752,633.215,q),
(526.452,642.419,l),
(340.537,200.641,l),
(323.971,152.782,o),
(323.971,117.808,q),
(323.971,58.904,o),
(416.008,-27.611,o),
(493.319,-27.611,q),
(554.063,-27.611,o),
(664.508,31.293,o),
(686.597,90.196,q)
);
}
);
width = 983;
}
);
unicode = 4611;
},
{
glyphname = uni1204;
layers = (
{
layerId = "0FD74DFA-4A91-4E89-B38F-D966F2F9984B";
shapes = (
{
closed = 1;
nodes = (
(1170.71,344.219,o),
(1062.11,416.008,o),
(984.797,416.008,q),
(927.734,416.008,o),
(828.334,373.671,o),
(806.245,335.015,q),
(844.901,305.563,o),
(874.353,244.819,o),
(874.353,213.526,q),
(874.353,202.482,o),
(872.512,196.959,q),
(872.512,185.915,l),
(866.99,136.215,o),
(837.538,77.311,o),
(791.519,47.859,o),
(730.775,38.656,o),
(695.801,38.656,q),
(675.552,38.656,l),
(620.33,38.656,o),
(568.789,66.267,o),
(568.789,103.082,q),
(568.789,149.1,o),
(612.967,252.182,q),
(900.123,959.027,l),
(927.734,1036.34,o),
(927.734,1108.13,q),
(927.734,1229.62,o),
(855.945,1283,q),
(624.012,1229.62,l),
(688.438,1198.32,o),
(688.438,1124.69,q),
(688.438,1086.04,o),
(675.552,1036.34,q),
(537.497,673.712,l),
(522.771,673.712,l),
(511.726,673.712,o),
(504.363,671.871,q),
(476.752,671.871,l),
(421.53,671.871,o),
(329.493,708.686,o),
(329.493,760.227,q),
(329.493,774.953,l),
(331.334,780.475,o),
(331.334,791.519,q),
(366.308,1104.45,l),
(371.83,1128.38,o),
(371.83,1154.15,q),
(371.83,1205.69,o),
(329.493,1273.79,o),
(283.474,1279.32,q),
(73.63,1214.89,l),
(108.604,1202,o),
(136.215,1163.35,o),
(136.215,1130.22,q),
(136.215,1121.01,o),
(132.533,1086.04,o),
(132.533,1080.52,q),
(88.356,710.527,l),
(88.356,590.878,o),
(222.73,590.878,q),
(255.863,590.878,o),
(399.441,609.286,o),
(476.752,627.693,q),
(526.452,636.897,l),
(340.537,195.119,l),
(323.971,147.259,o),
(323.971,106.763,q),
(323.971,47.859,o),
(388.397,-25.77,o),
(441.778,-25.77,q),
(587.197,-12.885,o),
(760.227,0,o),
(855.945,5.522,o),
(896.442,7.363,o),
(911.167,9.204,q),
(986.638,14.726,o),
(1087.88,62.585,o),
(1146.78,134.374,o),
(1170.71,228.252,o),
(1170.71,277.952,q)
);
}
);
width = 1193;
}
);
unicode = 4612;
},
{
glyphname = uni1205;
layers = (
{
layerId = "0FD74DFA-4A91-4E89-B38F-D966F2F9984B";
shapes = (
{
closed = 1;
nodes = (
(962.708,1119.17,l),
(962.708,1198.32,o),
(900.123,1281.16,o),
(846.742,1281.16,q),
(670.03,1179.92,l),
(708.686,1168.87,o),
(734.456,1119.17,o),
(734.456,1067.63,q),
(732.615,270.589,l),
(732.615,198.8,o),
(692.119,104.922,o),
(638.738,51.541,o),
(587.197,29.452,o),
(576.152,29.452,q),
(465.708,34.974,o),
(366.308,242.978,o),
(364.467,478.593,q),
(364.467,537.497,o),
(384.715,609.286,o),
(414.167,660.827,o),
(445.46,706.845,o),
(456.504,739.978,q),
(456.504,754.704,o),
(425.211,762.067,o),
(412.326,762.067,q),
(401.282,762.067,o),
(373.671,754.704,o),
(364.467,739.978,q),
(364.467,1135.74,l),
(364.467,1209.37,o),
(335.015,1279.32,o),
(272.43,1279.32,q),
(73.63,1185.44,l),
(112.285,1167.03,o),
(136.215,1119.17,o),
(136.215,1082.36,q),
(136.215,738.138,l),
(136.215,723.412,o),
(165.667,716.049,o),
(176.711,716.049,q),
(187.756,716.049,o),
(206.163,725.253,o),
(226.411,739.978,q),
(215.367,703.164,o),
(184.074,657.145,o),
(154.622,601.923,o),
(134.374,519.089,o),
(134.374,447.3,q),
(134.374,344.219,o),
(152.782,173.03,o),
(209.845,47.859,o),
(318.448,-22.089,o),
(408.645,-23.93,q),
(421.53,-23.93,l),
(425.211,-23.93,o),
(434.415,-23.93,q),
(443.619,-23.93,o),
(456.504,-22.089,q),
(596.401,0,o),
(784.156,58.904,o),
(900.123,176.711,o),
(955.345,377.352,o),
(962.708,541.178,q)
);
}
);
width = 1018;
}
);
unicode = 4613;
},
{
glyphname = uni1206;
layers = (
{
layerId = "0FD74DFA-4A91-4E89-B38F-D966F2F9984B";
shapes = (
{
closed = 1;
nodes = (
(1113.65,947.982,l),
(1113.65,898.282,o),
(1084.2,835.697,o),
(1040.02,800.723,o),
(984.797,784.156,o),
(960.868,780.475,q),
(960.868,1178.08,l),
(1008.73,1196.48,o),
(1041.86,1196.48,q),
(1084.2,1196.48,o),
(1113.65,1126.53,o),
(1113.65,1043.7,q)
);
},
{
closed = 1;
nodes = (
(1356.63,1178.08,o),
(1260.91,1283,o),
(1170.71,1283,q),
(1095.24,1283,o),
(997.682,1248.02,q),
(668.189,1126.53,l),
(706.845,1115.49,o),
(732.615,1065.79,o),
(732.615,1014.25,q),
(734.456,272.43,l),
(734.456,200.641,o),
(693.96,106.763,o),
(640.578,53.382,o),
(589.038,31.293,o),
(577.993,31.293,q),
(524.612,33.133,o),
(443.619,64.426,o),
(390.237,147.259,o),
(364.467,294.519,o),
(364.467,412.326,q),
(364.467,1014.25,l),
(364.467,1087.88,o),
(335.015,1157.83,o),
(272.43,1157.83,q),
(73.63,1063.95,l),
(112.285,1045.54,o),
(136.215,997.682,o),
(136.215,960.868,q),
(136.215,381.034,l),
(136.215,277.952,o),
(154.622,128.852,o),
(213.526,29.452,o),
(322.13,-20.248,o),
(412.326,-22.089,q),
(421.53,-22.089,l),
(430.734,-22.089,o),
(436.256,-20.248,q),
(460.186,-20.248,l),
(600.082,1.841,o),
(785.997,60.745,o),
(901.964,178.552,o),
(957.186,379.193,o),
(964.549,543.019,q),
(960.868,736.297,l),
(1086.04,754.704,o),
(1240.66,815.449,o),
(1327.18,898.282,o),
(1356.63,1003.2,o),
(1356.63,1065.79,q)
);
}
);
width = 1377;
}
);
unicode = 4614;
},
{
glyphname = uni1208;
layers = (
{
layerId = "0FD74DFA-4A91-4E89-B38F-D966F2F9984B";
shapes = (
{
closed = 1;
nodes = (
(1071,118,o),
(1035,118,q),
(994,118,o),
(948,184,o),
(948,269,q),
(948,593,l),
(948,703,o),
(898,834,o),
(804,900,o),
(668,920,o),
(580,920,q),
(543,920,o),
(464,893,o),
(394,845,o),
(350,786,o),
(350,757,q),
(350,1082,l),
(350,1132,o),
(344,1200,o),
(326,1246,o),
(295,1276,o),
(269,1285,q),
(74,1208,l),
(77,1204,l),
(96,1182,o),
(118,1134,o),
(120,1082,q),
(120,138,l),
(120,55,o),
(223,-24,o),
(306,-24,q),
(337,-24,o),
(407,2,o),
(464,46,o),
(501,109,o),
(501,145,q),
(473,118,o),
(436,118,q),
(398,118,o),
(350,177,o),
(350,263,q),
(350,676,l),
(350,698,o),
(379,758,o),
(433,814,o),
(503,852,o),
(543,852,q),
(644,852,o),
(718,769,o),
(718,676,q),
(718,147,l),
(718,61,o),
(808,-24,o),
(858,-24,q),
(902,-24,o),
(988,-2,o),
(1057,42,o),
(1099,105,o),
(1099,145,q)
);
}
);
width = 1117;
}
);
unicode = 4616;
},
{
glyphname = uni1209;
layers = (
{
layerId = "0FD74DFA-4A91-4E89-B38F-D966F2F9984B";
shapes = (
{
closed = 1;
nodes = (
(1413.69,577.993,o),
(1380.56,576.152,q),
(1362.15,576.152,o),
(1323.49,594.56,o),
(1292.2,625.852,o),
(1270.11,662.667,o),
(1268.27,681.075,q),
(947.982,590.878,l),
(947.982,701.323,o),
(900.123,832.016,o),
(806.245,900.123,o),
(668.189,920.371,o),
(579.834,920.371,q),
(543.019,920.371,o),
(463.867,892.76,o),
(393.919,844.901,o),
(349.741,785.997,o),
(349.741,756.545,q),
(349.741,1082.36,l),
(349.741,1132.06,o),
(344.219,1200.16,o),
(325.811,1246.18,o),
(294.519,1275.63,o),
(268.748,1284.84,q),
(73.63,1207.53,l),
(77.311,1203.85,l),
(95.719,1181.76,o),
(117.808,1133.9,o),
(119.648,1082.36,q),
(119.648,138.056,l),
(119.648,55.222,o),
(222.73,-23.93,o),
(305.563,-23.93,q),
(336.856,-23.93,o),
(406.804,1.841,o),
(463.867,46.019,o),
(500.682,108.604,o),
(500.682,145.419,q),
(473.071,117.808,o),
(436.256,117.808,q),
(397.6,117.808,o),
(349.741,176.711,o),
(349.741,263.226,q),
(349.741,675.552,l),
(349.741,697.641,o),
(377.352,758.386,o),
(427.052,813.608,o),
(497,852.264,o),
(541.178,852.264,q),
(636.897,852.264,o),
(717.89,769.43,o),
(717.89,675.552,q),
(717.89,147.259,l),
(717.89,60.745,o),
(808.086,-23.93,o),
(857.786,-23.93,q),
(901.964,-23.93,o),
(988.479,-1.841,o),
(1056.59,42.337,o),
(1098.92,104.922,o),
(1098.92,145.419,q),
(1071.31,117.808,o),
(1034.5,117.808,q),
(994.001,117.808,o),
(947.982,184.074,o),
(947.982,268.748,q),
(947.982,548.541,l),
(1063.95,577.993,l),
(1069.47,484.115,o),
(1165.19,406.804,o),
(1238.82,406.804,q),
(1260.91,406.804,l),
(1290.36,408.645,o),
(1354.79,438.097,o),
(1408.17,489.637,o),
(1443.14,563.267,o),
(1443.14,611.126,q)
);
}
);
width = 1461;
}
);
unicode = 4617;
},
{
glyphname = uni120A;
layers = (
{
layerId = "0FD74DFA-4A91-4E89-B38F-D966F2F9984B";
shapes = (
{
closed = 1;
nodes = (
(1448.66,77.311,o),
(1415.53,75.47,q),
(1397.12,75.47,o),
(1358.47,95.719,o),
(1329.02,130.693,o),
(1306.93,174.871,o),
(1305.09,198.8,q),
(1277.48,204.322,o),
(1248.02,204.322,q),
(1181.76,204.322,o),
(1086.04,138.056,o),
(1086.04,79.152,q),
(1021.61,60.745,l),
(1014.25,58.904,o),
(1003.2,57.063,o),
(997.682,57.063,q),
(981.116,57.063,o),
(960.868,73.63,o),
(949.823,117.808,o),
(947.982,198.8,o),
(947.982,263.226,q),
(947.982,592.719,l),
(947.982,703.164,o),
(898.282,833.856,o),
(804.404,900.123,o),
(668.189,920.371,o),
(579.834,920.371,q),
(543.019,920.371,o),
(463.867,892.76,o),
(393.919,844.901,o),
(349.741,785.997,o),
(349.741,756.545,q),
(349.741,1082.36,l),
(349.741,1132.06,o),
(344.219,1200.16,o),
(325.811,1246.18,o),
(294.519,1275.63,o),
(268.748,1284.84,q),
(73.63,1207.53,l),
(77.311,1203.85,l),
(95.719,1181.76,o),
(117.808,1133.9,o),
(119.648,1082.36,q),
(119.648,138.056,l),
(119.648,55.222,o),
(222.73,-23.93,o),
(305.563,-23.93,q),
(336.856,-23.93,o),
(406.804,1.841,o),
(463.867,46.019,o),
(500.682,108.604,o),
(500.682,145.419,q),
(473.071,117.808,o),
(436.256,117.808,q),
(397.6,117.808,o),
(349.741,176.711,o),
(349.741,263.226,q),
(349.741,675.552,l),
(349.741,697.641,o),
(377.352,760.227,o),
(428.893,815.449,o),
(502.523,854.104,o),
(548.541,854.104,q),
(638.738,854.104,o),
(717.89,769.43,o),
(717.89,675.552,q),
(717.89,139.896,l),
(717.89,-23.93,o),
(855.945,-23.93,q),
(1086.04,38.656,l),
(1097.08,1.841,o),
(1130.22,-42.337,o),
(1179.92,-68.108,o),
(1249.86,-75.47,o),
(1297.72,-75.47,q),
(1327.18,-73.63,o),
(1391.6,-46.019,o),
(1444.98,3.681,o),
(1478.12,69.948,o),
(1478.12,110.445,q)
);
}
);
width = 1495;
}
);
unicode = 4618;
},
{
glyphname = uni120B;
layers = (
{
layerId = "0FD74DFA-4A91-4E89-B38F-D966F2F9984B";
shapes = (
{
closed = 1;
nodes = (
(1071.31,121.489,o),
(1034.5,121.489,q),
(994.001,121.489,o),
(947.982,187.756,o),
(947.982,272.43,q),
(947.982,596.401,l),
(947.982,706.845,o),
(898.282,837.538,o),
(804.404,903.805,o),
(668.189,924.053,o),
(579.834,924.053,q),
(543.019,924.053,o),
(463.867,896.442,o),
(393.919,848.582,o),
(349.741,789.678,o),
(349.741,760.227,q),
(349.741,1086.04,l),
(349.741,1135.74,o),
(344.219,1203.85,o),
(325.811,1249.86,o),
(294.519,1279.32,o),
(268.748,1288.52,q),
(73.63,1211.21,l),
(77.311,1207.53,l),
(95.719,1185.44,o),
(117.808,1137.58,o),
(119.648,1086.04,q),
(119.648,428.893,l),
(119.648,344.219,o),
(222.73,266.908,o),
(305.563,266.908,q),
(336.856,266.908,o),
(404.963,290.837,o),
(463.867,335.015,o),
(500.682,397.6,o),
(500.682,434.415,q),
(469.389,406.804,o),
(436.256,406.804,q),
(397.6,406.804,o),
(349.741,469.389,o),
(349.741,552.223,q),
(349.741,679.234,l),
(349.741,701.323,o),
(377.352,763.908,o),
(428.893,819.13,o),
(504.363,857.786,o),
(552.223,857.786,q),
(640.578,857.786,o),
(717.89,773.112,o),
(717.89,679.234,q),
(717.89,150.941,l),
(717.89,64.426,o),
(808.086,-20.248,o),
(857.786,-20.248,q),
(901.964,-20.248,o),
(988.479,1.841,o),
(1056.59,46.019,o),
(1098.92,108.604,o),
(1098.92,149.1,q)
);
}
);
width = 1117;
}
);
unicode = 4619;
},
{
glyphname = uni120C;
layers = (
{
layerId = "0FD74DFA-4A91-4E89-B38F-D966F2F9984B";
shapes = (
{
closed = 1;
nodes = (
(1087.88,130.693,l),
(1087.88,68.108,o),
(1032.66,11.044,o),
(995.842,11.044,q),
(968.231,11.044,o),
(949.823,20.248,o),
(949.823,34.974,q),
(949.823,300.041,l),
(949.823,327.652,o),
(992.16,382.874,o),
(1016.09,382.874,q),
(1049.22,382.874,o),
(1087.88,338.697,o),
(1087.88,281.634,q)
);
},
{
closed = 1;
nodes = (
(1248.02,305.563,l),
(1248.02,430.734,o),
(1063.95,430.734,q),
(1014.25,430.734,o),
(951.664,381.034,o),
(949.823,349.741,q),
(949.823,596.401,l),
(949.823,705.004,o),
(901.964,835.697,o),
(809.927,903.805,o),
(670.03,925.893,o),
(579.834,925.893,q),
(543.019,925.893,o),
(463.867,898.282,o),
(393.919,850.423,o),
(349.741,791.519,o),
(349.741,762.067,q),
(349.741,1089.72,l),
(349.741,1139.42,o),
(344.219,1207.53,o),
(325.811,1253.55,o),
(294.519,1283,o),
(268.748,1292.2,q),
(73.63,1214.89,l),
(77.311,1211.21,l),
(95.719,1189.12,o),
(117.808,1141.26,o),
(119.648,1089.72,q),
(119.648,141.737,l),
(119.648,58.904,o),
(222.73,-20.248,o),
(305.563,-20.248,q),
(336.856,-20.248,o),
(406.804,5.522,o),
(463.867,49.7,o),
(500.682,112.285,o),
(500.682,149.1,q),
(469.389,121.489,o),
(436.256,121.489,q),
(397.6,121.489,o),
(349.741,182.233,o),
(349.741,268.748,q),
(349.741,681.075,l),
(349.741,705.004,o),
(377.352,767.59,o),
(428.893,822.812,o),
(502.523,861.467,o),
(548.541,861.467,q),
(642.419,861.467,o),
(717.89,774.953,o),
(717.89,681.075,q),
(717.89,143.578,l),
(717.89,60.745,o),
(808.086,-20.248,o),
(857.786,-20.248,q),
(911.167,-14.726,o),
(947.982,-3.681,o),
(947.982,0,q),
(949.823,-11.044,o),
(1014.25,-20.248,o),
(1063.95,-20.248,q),
(1084.2,-20.248,o),
(1146.78,-1.841,o),
(1205.69,38.656,o),
(1248.02,101.241,o),
(1248.02,143.578,q)
);
}
);
width = 1268;
}
);
unicode = 4620;
},
{
glyphname = uni120D;
layers = (
{
layerId = "0FD74DFA-4A91-4E89-B38F-D966F2F9984B";
shapes = (
{
closed = 1;
nodes = (
(1205.69,121.489,o),
(1172.55,121.489,q),
(1132.06,121.489,o),
(1086.04,187.756,o),
(1086.04,272.43,q),
(1086.04,598.241,l),
(1086.04,708.686,o),
(1012.41,839.379,o),
(892.76,905.645,o),
(738.138,925.893,o),
(657.145,925.893,q),
(568.789,925.893,o),
(404.963,832.016,o),
(349.741,762.067,q),
(349.741,1089.72,l),
(349.741,1139.42,o),
(344.219,1207.53,o),
(325.811,1253.55,o),
(294.519,1283,o),
(268.748,1292.2,q),
(73.63,1214.89,l),
(77.311,1211.21,l),
(95.719,1189.12,o),
(117.808,1141.26,o),
(119.648,1089.72,q),
(119.648,141.737,l),
(119.648,53.382,o),
(237.456,-20.248,o),
(349.741,-20.248,q),
(450.982,-20.248,o),
(576.152,-7.363,o),
(644.26,34.974,o),
(666.349,115.967,o),
(666.349,185.915,q),
(666.349,298.2,o),
(642.419,408.645,o),
(609.286,434.415,q),
(592.719,447.3,o),
(554.063,462.026,o),
(495.16,469.389,o),
(410.486,471.23,o),
(349.741,471.23,q),
(349.741,681.075,l),
(351.582,697.641,o),
(393.919,754.704,o),
(463.867,806.245,o),
(559.586,844.901,o),
(614.808,844.901,q),
(730.775,844.901,o),
(855.945,760.227,o),
(855.945,681.075,q),
(855.945,150.941,l),
(855.945,64.426,o),
(946.142,-20.248,o),
(995.842,-20.248,q),
(1040.02,-20.248,o),
(1126.53,1.841,o),
(1194.64,46.019,o),
(1236.98,108.604,o),
(1236.98,149.1,q)
);
},
{
closed = 1;
nodes = (
(482.275,127.011,o),
(478.593,84.674,o),
(462.026,47.859,o),
(427.052,22.089,o),
(395.76,22.089,q),
(371.83,22.089,o),
(349.741,104.922,o),
(349.741,215.367,q),
(349.741,432.574,l),
(401.282,432.574,o),
(454.663,410.486,o),
(465.708,381.034,q),
(476.752,353.423,o),
(482.275,254.022,o),
(482.275,143.578,q)
);
}
);
width = 1259;
}
);
unicode = 4621;
},
{
glyphname = uni120E;
layers = (
{
layerId = "0FD74DFA-4A91-4E89-B38F-D966F2F9984B";
shapes = (
{
closed = 1;
nodes = (
(1592.24,658.986,o),
(1555.43,734.456,o),
(1500.21,776.793,o),
(1441.3,791.519,o),
(1419.21,791.519,q),
(1415.53,791.519,l),
(1411.85,791.519,o),
(1410.01,789.678,q),
(1404.49,789.678,l),
(1358.47,774.953,o),
(1275.63,751.023,o),
(1167.03,719.73,o),
(1014.25,673.712,o),
(901.964,638.738,q),
(896.442,736.297,o),
(841.219,850.423,o),
(754.704,909.327,o),
(642.419,925.893,o),
(579.834,925.893,q),
(543.019,925.893,o),
(463.867,898.282,o),
(393.919,850.423,o),
(349.741,791.519,o),
(349.741,762.067,q),
(349.741,1089.72,l),
(349.741,1139.42,o),
(344.219,1207.53,o),
(325.811,1253.55,o),
(294.519,1283,o),
(268.748,1292.2,q),
(73.63,1214.89,l),
(77.311,1211.21,l),
(95.719,1189.12,o),
(117.808,1141.26,o),
(119.648,1089.72,q),
(119.648,141.737,l),
(119.648,58.904,o),
(222.73,-20.248,o),
(305.563,-20.248,q),
(336.856,-20.248,o),
(406.804,5.522,o),
(463.867,49.7,o),
(500.682,112.285,o),
(500.682,149.1,q),
(469.389,121.489,o),
(436.256,121.489,q),
(397.6,121.489,o),
(349.741,182.233,o),
(349.741,268.748,q),
(349.741,681.075,l),
(349.741,705.004,o),
(375.511,769.43,o),
(421.53,826.493,o),
(484.115,865.149,o),
(520.93,865.149,q),
(600.082,865.149,o),
(671.871,780.475,o),
(671.871,681.075,q),
(671.871,150.941,l),
(671.871,64.426,o),
(762.067,-20.248,o),
(811.767,-20.248,q),
(855.945,-20.248,o),
(942.46,1.841,o),
(1010.57,46.019,o),
(1052.9,108.604,o),
(1052.9,149.1,q),
(1021.61,121.489,o),
(988.479,121.489,q),
(947.982,121.489,o),
(901.964,187.756,o),
(901.964,272.43,q),
(901.964,598.241,l),
(1040.02,638.738,l),
(1040.02,487.797,o),
(1093.4,353.423,o),
(1132.06,353.423,q),
(1159.67,353.423,o),
(1238.82,384.715,o),
(1270.11,393.919,q),
(1378.72,406.804,o),
(1500.21,434.415,o),
(1562.79,476.752,o),
(1584.88,544.86,o),
(1592.24,598.241,q)
);
},
{
closed = 1;
nodes = (
(1411.85,487.797,o),
(1371.35,434.415,o),
(1316.13,434.415,q),
(1283,434.415,o),
(1259.07,485.956,o),
(1249.86,539.338,q),
(1246.18,570.63,o),
(1235.14,611.126,o),
(1235.14,633.215,q),
(1235.14,666.349,o),
(1270.11,717.89,o),
(1306.93,717.89,q),
(1332.7,717.89,o),
(1373.19,681.075,o),
(1398.96,624.012,o),
(1411.85,555.904,o),
(1411.85,524.612,q)
);
}
);
width = 1612;
}
);
unicode = 4622;
},
{
glyphname = uni120F;
layers = (
{
layerId = "0FD74DFA-4A91-4E89-B38F-D966F2F9984B";
shapes = (
{
closed = 1;
nodes = (
(1323.49,31.293,o),
(1290.36,31.293,q),
(1218.57,31.293,o),
(1218.57,132.533,q),
(947.982,132.533,l),
(947.982,596.401,l),
(947.982,706.845,o),
(898.282,837.538,o),
(804.404,903.805,o),
(668.189,924.053,o),
(579.834,924.053,q),
(544.86,924.053,o),
(465.708,896.442,o),
(397.6,852.264,o),
(351.582,795.201,o),
(349.741,765.749,q),
(349.741,1086.04,l),
(349.741,1135.74,o),
(344.219,1203.85,o),
(325.811,1249.86,o),
(294.519,1279.32,o),
(268.748,1288.52,q),
(73.63,1211.21,l),
(77.311,1207.53,l),
(95.719,1185.44,o),
(117.808,1137.58,o),
(119.648,1086.04,q),
(119.648,428.893,l),
(119.648,344.219,o),
(222.73,266.908,o),
(305.563,266.908,q),
(336.856,266.908,o),
(404.963,290.837,o),
(463.867,335.015,o),
(500.682,397.6,o),
(500.682,434.415,q),
(469.389,406.804,o),
(436.256,406.804,q),
(397.6,406.804,o),
(349.741,469.389,o),
(349.741,552.223,q),
(349.741,679.234,l),
(349.741,701.323,o),
(377.352,763.908,o),
(428.893,819.13,o),
(504.363,857.786,o),
(552.223,857.786,q),
(640.578,857.786,o),
(717.89,773.112,o),
(717.89,679.234,q),
(717.89,132.533,l),
(454.663,132.533,l),
(454.663,31.293,o),
(382.874,31.293,q),
(349.741,31.293,o),
(323.971,51.541,q),
(335.015,3.681,o),
(377.352,-58.904,o),
(430.734,-95.719,o),
(489.637,-110.445,o),
(515.408,-110.445,q),
(589.038,-110.445,o),
(671.871,-31.293,o),
(671.871,23.93,q),
(671.871,25.77,l),
(671.871,40.496,o),
(666.349,71.789,o),
(662.667,90.196,q),
(1010.57,90.196,l),
(1006.89,71.789,o),
(1001.36,40.496,o),
(1001.36,25.77,q),
(1001.36,23.93,l),
(1001.36,-31.293,o),
(1084.2,-110.445,o),
(1157.83,-110.445,q),
(1183.6,-110.445,o),
(1242.5,-95.719,o),
(1295.88,-58.904,o),
(1338.22,3.681,o),
(1349.26,51.541,q)
);
}
);
width = 1372;
}
);
unicode = 4623;
},
{
glyphname = uni1210;
layers = (
{
layerId = "0FD74DFA-4A91-4E89-B38F-D966F2F9984B";
shapes = (
{
closed = 1;
nodes = (
(1438,120,o),
(1403,120,q),
(1362,120,o),
(1316,188,o),
(1316,271,q),
(1316,484,l),
(1316,567,o),
(1285,672,o),
(1219,734,o),
(1115,758,o),
(1044,758,q),
(1022,758,o),
(955,758,q),
(889,758,o),
(810,744,q),
(810,1121,l),
(810,1173,o),
(803,1235,o),
(784,1272,o),
(747,1285,o),
(718,1285,q),
(488,1200,l),
(519,1196,o),
(556,1182,o),
(574,1154,o),
(580,1108,o),
(580,1073,q),
(580,725,l),
(399,698,o),
(195,574,o),
(96,414,o),
(74,232,o),
(74,144,q),
(74,59,o),
(164,-26,o),
(214,-26,q),
(258,-26,o),
(344,-2,o),
(412,42,o),
(455,107,o),
(455,149,q),
(425,120,o),
(390,120,q),
(350,120,o),
(304,188,o),
(304,271,q),
(311,352,o),
(352,497,o),
(420,609,o),
(515,677,o),
(580,681,q),
(580,144,l),
(580,59,o),
(670,-26,o),
(720,-26,q),
(764,-26,o),
(850,-2,o),
(919,42,o),
(961,107,o),
(961,149,q),
(931,120,o),
(896,120,q),
(856,120,o),
(810,188,o),
(810,271,q),
(810,714,l),
(858,716,o),
(919,718,o),
(944,718,q),
(992,718,o),
(1049,690,o),
(1079,633,o),
(1086,545,o),
(1086,484,q),
(1086,144,l),
(1086,59,o),
(1176,-26,o),
(1226,-26,q),
(1270,-26,o),
(1357,-2,o),
(1425,42,o),
(1467,107,o),
(1467,149,q)
);
}
);
width = 1482;
}
);
unicode = 4624;
},
{
glyphname = uni1211;
layers = (
{
layerId = "0FD74DFA-4A91-4E89-B38F-D966F2F9984B";
shapes = (
{
closed = 1;
nodes = (
(1781.84,508.045,o),
(1748.71,506.204,q),
(1732.14,506.204,o),
(1693.48,526.452,o),
(1660.35,557.745,o),
(1638.26,596.401,o),
(1636.42,612.967,q),
(1316.13,519.089,l),
(1312.45,587.197,o),
(1279.32,679.234,o),
(1213.05,730.775,o),
(1113.65,752.864,o),
(1043.7,752.864,q),
(1021.61,752.864,o),
(955.345,752.864,q),
(889.079,752.864,o),
(809.927,738.138,q),
(809.927,1121.01,l),
(809.927,1172.55,o),
(802.564,1235.14,o),
(784.156,1271.95,o),
(747.341,1284.84,o),
(717.89,1284.84,q),
(487.797,1200.16,l),
(519.089,1196.48,o),
(555.904,1181.76,o),
(574.312,1154.15,o),
(579.834,1108.13,o),
(579.834,1073.15,q),
(579.834,719.73,l),
(399.441,692.119,o),
(195.119,570.63,o),
(95.719,414.167,o),
(73.63,233.774,o),
(73.63,145.419,q),
(73.63,60.745,o),
(163.826,-23.93,o),
(213.526,-23.93,q),
(257.704,-23.93,o),
(344.219,0,o),
(412.326,44.178,o),
(454.663,108.604,o),
(454.663,150.941,q),
(425.211,121.489,o),
(390.237,121.489,q),
(349.741,121.489,o),
(303.722,189.596,o),
(303.722,272.43,q),
(311.085,351.582,o),
(351.582,497,o),
(419.689,607.445,o),
(515.408,675.552,o),
(579.834,679.234,q),
(579.834,145.419,l),
(579.834,60.745,o),
(670.03,-23.93,o),
(719.73,-23.93,q),
(763.908,-23.93,o),
(850.423,0,o),
(918.53,44.178,o),
(960.868,108.604,o),
(960.868,150.941,q),
(931.416,121.489,o),
(896.442,121.489,q),
(855.945,121.489,o),
(809.927,189.596,o),
(809.927,272.43,q),
(809.927,703.164,l),
(889.079,714.208,o),
(944.301,714.208,q),
(992.16,714.208,o),
(1049.22,686.597,o),
(1078.68,629.534,o),
(1086.04,539.338,o),
(1086.04,478.593,q),
(1086.04,145.419,l),
(1086.04,60.745,o),
(1176.23,-23.93,o),
(1225.93,-23.93,q),
(1270.11,-23.93,o),
(1356.63,0,o),
(1424.73,44.178,o),
(1467.07,108.604,o),
(1467.07,150.941,q),
(1437.62,121.489,o),
(1402.65,121.489,q),
(1362.15,121.489,o),
(1316.13,189.596,o),
(1316.13,272.43,q),
(1316.13,476.752,l),
(1432.1,508.045,l),
(1437.62,412.326,o),
(1533.34,329.493,o),
(1606.97,329.493,q),
(1629.06,329.493,l),
(1658.51,331.334,o),
(1724.78,362.626,o),
(1776.32,416.008,o),
(1811.29,493.319,o),
(1811.29,541.178,q)
);
}
);
width = 1828;
}
);
unicode = 4625;
},
{
glyphname = uni1212;
layers = (
{
layerId = "0FD74DFA-4A91-4E89-B38F-D966F2F9984B";
shapes = (
{
closed = 1;
nodes = (
(1813.13,80.993,o),
(1783.68,79.152,q),
(1746.86,79.152,o),
(1676.92,154.622,o),
(1673.23,204.322,q),
(1652.99,211.685,o),
(1616.17,211.685,q),
(1549.91,211.685,o),
(1454.19,143.578,o),
(1454.19,82.833,q),
(1389.76,62.585,l),
(1386.08,62.585,o),
(1369.51,58.904,o),
(1365.83,58.904,q),
(1332.7,58.904,o),
(1316.13,128.852,o),
(1316.13,230.093,q),
(1316.13,487.797,l),
(1316.13,570.63,o),
(1284.84,675.552,o),
(1218.57,738.138,o),
(1115.49,762.067,o),
(1043.7,762.067,q),
(1021.61,762.067,o),
(955.345,762.067,q),
(889.079,762.067,o),
(809.927,747.341,q),
(809.927,1122.85,l),
(809.927,1174.39,o),
(802.564,1236.98,o),
(784.156,1273.79,o),
(747.341,1286.68,o),
(717.89,1286.68,q),
(487.797,1202,l),
(519.089,1198.32,o),
(555.904,1183.6,o),
(574.312,1155.99,o),
(579.834,1109.97,o),
(579.834,1074.99,q),
(579.834,728.934,l),
(399.441,701.323,o),
(195.119,577.993,o),
(95.719,417.849,o),
(73.63,233.774,o),
(73.63,145.419,q),
(73.63,60.745,o),
(163.826,-23.93,o),
(213.526,-23.93,q),
(257.704,-23.93,o),
(344.219,0,o),
(412.326,44.178,o),
(454.663,108.604,o),
(454.663,150.941,q),
(425.211,121.489,o),
(390.237,121.489,q),
(349.741,121.489,o),
(303.722,189.596,o),
(303.722,272.43,q),
(311.085,351.582,o),
(351.582,500.682,o),
(419.689,616.649,o),
(515.408,688.438,o),
(579.834,692.119,q),
(579.834,145.419,l),
(579.834,60.745,o),
(670.03,-23.93,o),
(719.73,-23.93,q),
(763.908,-23.93,o),
(850.423,0,o),
(918.53,44.178,o),
(960.868,108.604,o),
(960.868,150.941,q),
(931.416,121.489,o),
(896.442,121.489,q),
(855.945,121.489,o),
(809.927,189.596,o),
(809.927,272.43,q),
(809.927,712.367,l),
(852.264,719.73,o),
(918.53,727.093,o),
(944.301,727.093,q),
(994.001,727.093,o),
(1049.22,699.482,o),
(1078.68,640.578,o),
(1086.04,550.382,o),
(1086.04,487.797,q),
(1086.04,145.419,l),
(1086.04,-23.93,o),
(1224.09,-23.93,q),
(1454.19,40.496,l),
(1465.23,1.841,o),
(1498.36,-44.178,o),
(1548.06,-68.108,o),
(1618.01,-77.311,o),
(1665.87,-77.311,q),
(1695.32,-75.47,o),
(1759.75,-47.859,o),
(1813.13,1.841,o),
(1846.26,71.789,o),
(1846.26,114.126,q)
);
}
);
width = 1859;
}
);
unicode = 4626;
},
{
glyphname = uni1213;
layers = (
{
layerId = "0FD74DFA-4A91-4E89-B38F-D966F2F9984B";
shapes = (
{
closed = 1;
nodes = (
(1437.62,119.648,o),
(1402.65,119.648,q),
(1362.15,119.648,o),
(1316.13,187.756,o),
(1316.13,270.589,q),
(1316.13,513.567,l),
(1316.13,596.401,o),
(1284.84,701.323,o),
(1218.57,763.908,o),
(1115.49,787.838,o),
(1043.7,787.838,q),
(982.956,787.838,o),
(809.927,771.271,q),
(809.927,1122.85,l),
(809.927,1174.39,o),
(802.564,1236.98,o),
(784.156,1273.79,o),
(747.341,1286.68,o),
(717.89,1286.68,q),
(487.797,1202,l),
(519.089,1198.32,o),
(555.904,1183.6,o),
(574.312,1155.99,o),
(579.834,1109.97,o),
(579.834,1074.99,q),
(579.834,752.864,l),
(430.734,723.412,o),
(250.341,666.349,o),
(145.419,607.445,o),
(99.4,541.178,o),
(84.674,502.523,q),
(77.311,485.956,o),
(73.63,381.034,o),
(73.63,312.926,q),
(73.63,228.252,o),
(163.826,143.578,o),
(213.526,143.578,q),
(257.704,143.578,o),
(344.219,167.508,o),
(412.326,211.685,o),
(454.663,276.111,o),
(454.663,318.448,q),
(425.211,288.997,o),
(390.237,288.997,q),
(349.741,288.997,o),
(303.722,401.282,o),
(303.722,484.115,q),
(314.767,544.86,o),
(362.626,624.012,o),
(430.734,673.712,o),
(517.249,701.323,o),
(565.108,710.527,q),
(579.834,714.208,l),
(579.834,312.926,l),
(579.834,228.252,o),
(670.03,143.578,o),
(719.73,143.578,q),
(763.908,143.578,o),
(850.423,167.508,o),
(918.53,211.685,o),
(960.868,276.111,o),
(960.868,318.448,q),
(931.416,288.997,o),
(896.442,288.997,q),
(855.945,288.997,o),
(809.927,401.282,o),
(809.927,484.115,q),
(809.927,730.775,l),
(852.264,738.138,o),
(914.849,739.978,o),
(944.301,741.819,q),
(994.001,741.819,o),
(1049.22,714.208,o),
(1078.68,658.986,o),
(1086.04,572.471,o),
(1086.04,513.567,q),
(1086.04,143.578,l),
(1086.04,58.904,o),
(1176.23,-25.77,o),
(1225.93,-25.77,q),
(1270.11,-25.77,o),
(1356.63,-1.841,o),
(1424.73,42.337,o),
(1467.07,106.763,o),
(1467.07,149.1,q)
);
}
);
width = 1480;
}
);
unicode = 4627;
},
{
glyphname = uni1214;
layers = (
{
layerId = "0FD74DFA-4A91-4E89-B38F-D966F2F9984B";
shapes = (
{
closed = 1;
nodes = (
(1616.17,312.926,l),
(1616.17,379.193,o),
(1525.98,439.937,o),
(1432.1,439.937,q),
(1382.4,439.937,o),
(1319.81,388.397,o),
(1317.97,357.104,q),
(1316.13,485.956,l),
(1316.13,568.789,o),
(1284.84,673.712,o),
(1218.57,736.297,o),
(1115.49,760.227,o),
(1043.7,760.227,q),
(1021.61,760.227,o),
(955.345,760.227,q),
(889.079,760.227,o),
(809.927,745.501,q),
(809.927,1124.69,l),
(809.927,1176.23,o),
(802.564,1238.82,o),
(784.156,1275.63,o),
(747.341,1288.52,o),
(717.89,1288.52,q),
(487.797,1203.85,l),
(519.089,1200.16,o),
(555.904,1185.44,o),
(574.312,1157.83,o),
(579.834,1111.81,o),
(579.834,1076.83,q),
(579.834,727.093,l),
(399.441,699.482,o),
(195.119,576.152,o),
(95.719,416.008,o),
(73.63,233.774,o),
(73.63,145.419,q),
(73.63,60.745,o),
(163.826,-23.93,o),
(213.526,-23.93,q),
(257.704,-23.93,o),
(344.219,0,o),
(412.326,44.178,o),
(454.663,108.604,o),
(454.663,150.941,q),
(425.211,121.489,o),
(390.237,121.489,q),
(349.741,121.489,o),
(303.722,189.596,o),
(303.722,272.43,q),
(311.085,353.423,o),
(351.582,500.682,o),
(419.689,614.808,o),
(515.408,684.756,o),
(579.834,688.438,q),
(579.834,145.419,l),
(579.834,60.745,o),
(670.03,-23.93,o),
(719.73,-23.93,q),
(763.908,-23.93,o),
(850.423,0,o),
(918.53,44.178,o),
(960.868,108.604,o),
(960.868,150.941,q),
(931.416,121.489,o),
(896.442,121.489,q),
(855.945,121.489,o),
(809.927,189.596,o),
(809.927,272.43,q),
(809.927,708.686,l),
(852.264,716.049,o),
(918.53,717.89,o),
(944.301,717.89,q),
(992.16,717.89,o),
(1049.22,692.119,o),
(1078.68,635.056,o),
(1086.04,546.7,o),
(1086.04,485.956,q),
(1086.04,145.419,l),
(1086.04,60.745,o),
(1176.23,-23.93,o),
(1225.93,-23.93,q),
(1279.32,-18.407,o),
(1316.13,-5.522,o),
(1316.13,-3.681,q),
(1317.97,-16.567,o),
(1382.4,-23.93,o),
(1432.1,-23.93,q),
(1452.35,-23.93,o),
(1514.93,-3.681,o),
(1573.83,38.656,o),
(1616.17,101.241,o),
(1616.17,145.419,q)
);
},
{
closed = 1;
nodes = (
(1456.03,130.693,l),
(1456.03,66.267,o),
(1400.8,7.363,o),
(1363.99,7.363,q),
(1336.38,7.363,o),
(1317.97,14.726,o),
(1317.97,31.293,q),
(1317.97,307.404,l),
(1317.97,336.856,o),
(1360.31,392.078,o),
(1384.24,392.078,q),
(1417.37,392.078,o),
(1456.03,344.219,o),
(1456.03,287.156,q)
);
}
);
width = 1637;
}
);
unicode = 4628;
},
{
glyphname = uni1215;
layers = (
{
layerId = "0FD74DFA-4A91-4E89-B38F-D966F2F9984B";
shapes = (
{
closed = 1;
nodes = (
(1437.62,121.489,o),
(1402.65,121.489,q),
(1362.15,121.489,o),
(1316.13,189.596,o),
(1316.13,272.43,q),
(1316.13,443.619,l),
(1316.13,526.452,o),
(1284.84,631.375,o),
(1218.57,693.96,o),
(1115.49,717.89,o),
(1043.7,717.89,q),
(1021.61,717.89,o),
(955.345,717.89,q),
(889.079,717.89,o),
(809.927,703.164,q),
(809.927,975.593,l),
(809.927,1027.13,o),
(802.564,1089.72,o),
(784.156,1126.53,o),
(747.341,1139.42,o),
(717.89,1139.42,q),
(498.841,1089.72,l),
(498.841,1106.29,l),
(500.682,1111.81,o),
(500.682,1121.01,q),
(500.682,1198.32,o),
(412.326,1290.36,o),
(323.971,1290.36,q),
(261.385,1290.36,o),
(141.737,1220.41,o),
(119.648,1146.78,q),
(145.419,1161.51,o),
(165.667,1161.51,q),
(200.641,1161.51,o),
(261.385,1084.2,o),
(261.385,1032.66,q),
(261.385,1021.61,l),
(259.545,1017.93,o),
(259.545,1012.41,q),
(495.16,1054.75,l),
(522.771,1054.75,o),
(557.745,1043.7,o),
(574.312,1014.25,o),
(579.834,966.39,o),
(579.834,927.734,q),
(579.834,684.756,l),
(399.441,657.145,o),
(195.119,546.7,o),
(95.719,403.123,o),
(73.63,233.774,o),
(73.63,145.419,q),
(73.63,60.745,o),
(163.826,-23.93,o),
(213.526,-23.93,q),
(257.704,-23.93,o),
(344.219,0,o),
(412.326,44.178,o),
(454.663,108.604,o),
(454.663,150.941,q),
(425.211,121.489,o),
(390.237,121.489,q),
(349.741,121.489,o),
(303.722,189.596,o),
(303.722,272.43,q),
(318.448,434.415,o),
(452.823,636.897,o),
(579.834,644.26,q),
(579.834,145.419,l),
(579.834,60.745,o),
(670.03,-23.93,o),
(719.73,-23.93,q),
(763.908,-23.93,o),
(850.423,0,o),
(918.53,44.178,o),
(960.868,108.604,o),
(960.868,150.941,q),
(931.416,121.489,o),
(896.442,121.489,q),
(855.945,121.489,o),
(809.927,189.596,o),
(809.927,272.43,q),
(809.927,662.667,l),
(857.786,670.03,o),
(916.69,675.552,o),
(942.46,675.552,q),
(990.319,675.552,o),
(1047.38,649.782,o),
(1076.83,592.719,o),
(1086.04,504.363,o),
(1086.04,443.619,q),
(1086.04,145.419,l),
(1086.04,60.745,o),
(1176.23,-23.93,o),
(1225.93,-23.93,q),
(1270.11,-23.93,o),
(1356.63,0,o),
(1424.73,44.178,o),
(1467.07,108.604,o),
(1467.07,150.941,q)
);
}
);
width = 1486;
}
);
unicode = 4629;
},
{
glyphname = uni1216;
layers = (
{
layerId = "0FD74DFA-4A91-4E89-B38F-D966F2F9984B";
shapes = (
{
closed = 1;
nodes = (
(1437.62,290.837,o),
(1402.65,290.837,q),
(1362.15,290.837,o),
(1316.13,358.945,o),
(1316.13,441.778,q),
(1316.13,484.115,l),
(1316.13,566.949,o),
(1284.84,671.871,o),
(1218.57,734.456,o),
(1115.49,758.386,o),
(1043.7,758.386,q),
(1021.61,758.386,o),
(955.345,758.386,q),
(889.079,758.386,o),
(809.927,743.66,q),
(809.927,1126.53,l),
(809.927,1178.08,o),
(802.564,1240.66,o),
(784.156,1277.48,o),
(747.341,1290.36,o),
(717.89,1290.36,q),
(487.797,1205.69,l),
(519.089,1202,o),
(555.904,1187.28,o),
(574.312,1159.67,o),
(579.834,1113.65,o),
(579.834,1078.68,q),
(579.834,730.775,l),
(404.963,705.004,o),
(202.482,592.719,o),
(99.4,438.097,o),
(73.63,248.5,o),
(73.63,145.419,q),
(73.63,60.745,o),
(163.826,-23.93,o),
(213.526,-23.93,q),
(257.704,-23.93,o),
(344.219,0,o),
(412.326,44.178,o),
(454.663,108.604,o),
(454.663,150.941,q),
(425.211,121.489,o),
(390.237,121.489,q),
(349.741,121.489,o),
(303.722,189.596,o),
(303.722,272.43,q),
(303.722,362.626,o),
(342.378,513.567,o),
(414.167,625.852,o),
(515.408,690.278,o),
(579.834,693.96,q),
(579.834,314.767,l),
(579.834,230.093,o),
(670.03,145.419,o),
(719.73,145.419,q),
(763.908,145.419,o),
(850.423,169.348,o),
(918.53,213.526,o),
(960.868,277.952,o),
(960.868,320.289,q),
(931.416,290.837,o),
(896.442,290.837,q),
(855.945,290.837,o),
(809.927,358.945,o),
(809.927,441.778,q),
(809.927,708.686,l),
(848.582,716.049,o),
(913.008,719.73,o),
(944.301,721.571,q),
(992.16,721.571,o),
(1049.22,686.597,o),
(1078.68,616.649,o),
(1086.04,508.045,o),
(1086.04,436.256,q),
(1086.04,314.767,l),
(1086.04,230.093,o),
(1176.23,145.419,o),
(1225.93,145.419,q),
(1270.11,145.419,o),
(1356.63,169.348,o),
(1424.73,213.526,o),
(1467.07,277.952,o),
(1467.07,320.289,q)
);
}
);
width = 1482;
}
);
unicode = 4630;
},
